<svg width="73" height="18" viewBox="0 0 73 18" fill="none" xmlns="http://www.w3.org/2000/svg">
<path d="M24.4397 0.0287547L18.9295 18H26.0853L26.7865 15.9351H30.8439L31.545 18H38.7008L33.1889 0.0287547H24.4397ZM28.8197 11.5555H27.8139L28.8143 7.99002L29.8164 11.5555H28.8197ZM11.0852 0.0287547H18.1148V18H11.0852V12.5188H7.02963V18H0V0.0287547H7.02963V5.50998H11.0852V0.0287547ZM73 10.9912V18H58.9407V0.0287547H65.9704V10.9912H73ZM54.7392 8.73762C56.192 7.80312 56.9184 6.55771 56.9184 5.02656C56.9184 3.49541 56.3776 2.27336 55.2583 1.38918C54.1426 0.454673 52.6123 0 50.6169 0H39.3605V18H50.6169C52.6916 18 54.3769 17.5202 55.6999 16.5875C57.0229 15.6548 57.67 14.5298 57.67 13.261C57.67 11.1781 56.6877 9.67033 54.7392 8.73762ZM46.3631 4.54852H48.8C49.6058 4.54852 50.0203 4.90795 50.0203 5.64836C50.0203 6.38878 49.6058 6.72664 48.8 6.72664H46.3631V4.54852ZM49.0668 13.4515H46.3631V11.2734H49.0668C49.8707 11.2734 50.2871 11.6328 50.2871 12.3516C50.2871 13.0705 49.8635 13.4515 49.0596 13.4515H49.0668Z" fill="url(#paint0_linear_960_18029)"/>
<defs>
<linearGradient id="paint0_linear_960_18029" x1="73" y1="8.99999" x2="-1.5" y2="8.99999" gradientUnits="userSpaceOnUse">
<stop stop-color="#6A82FB"/>
<stop offset="1" stop-color="#FC5C7D"/>
</linearGradient>
</defs>
</svg>
