<svg width="20" height="20" viewBox="0 0 20 20" fill="none" xmlns="http://www.w3.org/2000/svg">
<path d="M13 19.25H7C4.57397 19.25 3.07086 18.7602 2.15533 17.8447C1.2398 16.9291 0.75 15.426 0.75 13V7C0.75 4.57397 1.2398 3.07086 2.15533 2.15533C3.07086 1.2398 4.57397 0.75 7 0.75H13C15.426 0.75 16.9291 1.2398 17.8447 2.15533C18.7602 3.07086 19.25 4.57397 19.25 7V13C19.25 15.426 18.7602 16.9291 17.8447 17.8447C16.9291 18.7602 15.426 19.25 13 19.25Z" stroke="#C2C2C2" stroke-width="1.5" stroke-linecap="round" stroke-linejoin="round"/>
<path d="M5.33008 12.4898L7.71008 9.39976C8.0501 8.95976 8.6801 8.87976 9.1201 9.21976L10.9501 10.6598C11.3901 10.9998 12.0201 10.9198 12.3601 10.4898L14.6701 7.50977" stroke="#C2C2C2" stroke-width="1.5" stroke-linecap="round" stroke-linejoin="round"/>
</svg>
