<svg width="20" height="27" viewBox="0 0 20 27" fill="none" xmlns="http://www.w3.org/2000/svg">
<g clip-path="url(#clip0_101_152460)">
<path d="M0.833496 3.33333C0.833496 1.49479 2.32829 0 4.16683 0H15.8335C17.672 0 19.1668 1.49479 19.1668 3.33333V23.3333C19.1668 25.1719 17.672 26.6667 15.8335 26.6667H4.16683C2.32829 26.6667 0.833496 25.1719 0.833496 23.3333V3.33333ZM11.6668 23.3333C11.6668 22.8913 11.4912 22.4674 11.1787 22.1548C10.8661 21.8423 10.4422 21.6667 10.0002 21.6667C9.55813 21.6667 9.13421 21.8423 8.82165 22.1548C8.50909 22.4674 8.3335 22.8913 8.3335 23.3333C8.3335 23.7754 8.50909 24.1993 8.82165 24.5118C9.13421 24.8244 9.55813 25 10.0002 25C10.4422 25 10.8661 24.8244 11.1787 24.5118C11.4912 24.1993 11.6668 23.7754 11.6668 23.3333ZM15.8335 3.33333H4.16683V20H15.8335V3.33333Z" fill="#222222"/>
</g>
<defs>
<clipPath id="clip0_101_152460">
<rect width="20" height="26.6667" fill="white"/>
</clipPath>
</defs>
</svg>
