<svg width="30" height="30" viewBox="0 0 30 30" fill="none" xmlns="http://www.w3.org/2000/svg">
<path d="M17.6402 22.4749C17.6402 22.9982 17.485 23.5097 17.1943 23.9448C16.9036 24.3799 16.4903 24.719 16.0069 24.9192C15.5234 25.1195 14.9915 25.1719 14.4782 25.0698C13.965 24.9677 13.4936 24.7157 13.1236 24.3457C12.7535 23.9757 12.5016 23.5043 12.3995 22.991C12.2974 22.4778 12.3498 21.9458 12.55 21.4624C12.7503 20.9789 13.0894 20.5657 13.5245 20.275C13.9596 19.9843 14.4711 19.8291 14.9944 19.8291C15.6961 19.8291 16.3691 20.1079 16.8652 20.604C17.3614 21.1002 17.6402 21.7732 17.6402 22.4749Z" fill="#F4B442"/>
<path d="M23.8065 21.7371C23.6691 21.965 23.4734 22.1521 23.2396 22.2792C23.0058 22.4063 22.7423 22.4687 22.4764 22.46H7.51257C7.21676 22.4835 6.9209 22.4153 6.66515 22.2648C6.40941 22.1143 6.20617 21.8888 6.08302 21.6188C5.95987 21.3488 5.92278 21.0475 5.97678 20.7557C6.03078 20.4639 6.17325 20.1958 6.38487 19.9878L7.66438 18.6143C7.7892 18.481 7.85893 18.3053 7.85956 18.1227V12.6721C7.85956 11.2687 8.41706 9.9228 9.40942 8.93044C10.4018 7.93809 11.7477 7.38059 13.1511 7.38059V6.72276C13.1511 6.23387 13.3453 5.765 13.691 5.4193C14.0367 5.07361 14.5056 4.87939 14.9945 4.87939C15.4834 4.87939 15.9522 5.07361 16.2979 5.4193C16.6436 5.765 16.8378 6.23387 16.8378 6.72276V7.38059C18.2412 7.38059 19.5872 7.93809 20.5795 8.93044C21.5719 9.9228 22.1294 11.2687 22.1294 12.6721V18.1227C22.13 18.3053 22.1997 18.481 22.3245 18.6143L23.6041 19.9878C23.8184 20.2205 23.9535 20.5152 23.9899 20.8295C24.0262 21.1438 23.962 21.4616 23.8065 21.7371Z" fill="#FFD066"/>
</svg>
