<svg width="20" height="20" viewBox="0 0 20 20" fill="none" xmlns="http://www.w3.org/2000/svg">
<path d="M15.386 20H4.61395C2.06512 20 0 17.9233 0 15.3717V8.47115C0 7.20463 0.781395 5.6122 1.78605 4.82995L6.8 0.918707C8.30698 -0.254661 10.7163 -0.310536 12.2791 0.788332L18.0279 4.82063C19.1349 5.59357 20 7.25119 20 8.60153V15.381C20 17.9233 17.9349 20 15.386 20ZM7.65581 2.01758L2.64186 5.92882C1.9814 6.45032 1.39535 7.633 1.39535 8.47115V15.3717C1.39535 17.1504 2.83721 18.6031 4.61395 18.6031H15.386C17.1628 18.6031 18.6047 17.1597 18.6047 15.381V8.60153C18.6047 7.7075 17.9628 6.46894 17.2279 5.96607L11.4791 1.93377C10.4186 1.18877 8.66977 1.22602 7.65581 2.01758Z" fill="#C2C2C2"/>
<path d="M9.99998 16.2751C9.61859 16.2751 9.30231 15.9585 9.30231 15.5767V12.7829C9.30231 12.4011 9.61859 12.0845 9.99998 12.0845C10.3814 12.0845 10.6977 12.4011 10.6977 12.7829V15.5767C10.6977 15.9585 10.3814 16.2751 9.99998 16.2751Z" fill="#C2C2C2"/>
</svg>
