<svg width="20" height="20" viewBox="0 0 20 20" fill="none" xmlns="http://www.w3.org/2000/svg">
<g clip-path="url(#clip0_101_156563)">
<path d="M11.4417 17.5C11.2952 17.7526 11.0849 17.9622 10.8319 18.1079C10.5789 18.2537 10.292 18.3304 10 18.3304C9.70803 18.3304 9.42117 18.2537 9.16816 18.1079C8.91515 17.9622 8.70486 17.7526 8.55835 17.5" stroke="white" stroke-linecap="round" stroke-linejoin="round"/>
<path d="M15.5249 10.8332C15.1542 9.47601 14.9775 8.07321 14.9999 6.6665" stroke="white" stroke-linecap="round" stroke-linejoin="round"/>
<path d="M5.21667 5.2168C5.07189 5.68647 4.99884 6.17531 5 6.6668C5 12.5001 2.5 14.1668 2.5 14.1668H14.1667" stroke="white" stroke-linecap="round" stroke-linejoin="round"/>
<path d="M15.0001 6.6666C15.0014 5.76082 14.7567 4.87169 14.292 4.09418C13.8274 3.31666 13.1602 2.67998 12.3619 2.25213C11.5635 1.82428 10.6639 1.62134 9.75918 1.66499C8.85445 1.70863 7.97857 1.99722 7.2251 2.49993" stroke="white" stroke-linecap="round" stroke-linejoin="round"/>
<path d="M0.833252 0.833496L19.1666 19.1668" stroke="white" stroke-linecap="round" stroke-linejoin="round"/>
</g>
<defs>
<clipPath id="clip0_101_156563">
<rect width="20" height="20" fill="white"/>
</clipPath>
</defs>
</svg>
