<svg width="30" height="30" viewBox="0 0 30 30" fill="none" xmlns="http://www.w3.org/2000/svg">
<path fill-rule="evenodd" clip-rule="evenodd" d="M6.80166 7.93588L21.7363 7.00138C22.2938 6.96651 22.7519 7.45844 22.7519 8.01701V9.01891L4.77002 9.24683C4.84507 8.06849 5.55536 8.03294 6.8017 7.9359L6.80166 7.93588Z" fill="#5C5B5A"/>
<path fill-rule="evenodd" clip-rule="evenodd" d="M6.13334 8.78076H23.2371C23.5168 8.78076 23.7715 8.89313 23.9572 9.07486C24.1443 9.25793 24.26 9.51084 24.26 9.79039C24.26 14.1078 24.2589 17.6824 24.2589 21.9893C24.2589 22.2686 24.1431 22.5221 23.9559 22.7058C23.7704 22.8877 23.5158 23.0005 23.236 23.0005H5.78361C5.50391 23.0005 5.24878 22.8876 5.06277 22.7056C4.87539 22.5222 4.75928 22.2688 4.75928 21.9893C4.75928 21.276 4.76337 19.5522 4.76744 17.828C4.76914 17.1065 4.7821 9.52171 4.75928 9.49888C4.75928 9.27595 4.78661 9.03022 4.84107 8.78076H5.68499C5.69873 8.78362 5.71376 8.78515 5.73049 8.78498L6.13342 8.78076H6.13334Z" fill="#8D908F"/>
<path fill-rule="evenodd" clip-rule="evenodd" d="M20.0205 14.0629H24.259C24.5002 14.0629 24.7255 14.1347 24.894 14.2503C25.108 14.3972 25.2408 14.6136 25.2408 14.8641V16.9179C25.2408 17.1684 25.1079 17.3848 24.894 17.5317C24.7255 17.6473 24.5002 17.7192 24.259 17.7192H20.0205C19.7794 17.7192 19.5892 17.6714 19.4431 17.5712C19.2472 17.4368 19.1538 17.2475 19.1538 16.9969V14.7851C19.1538 14.5346 19.2471 14.3453 19.4431 14.2108C19.5891 14.1106 19.7793 14.0629 20.0205 14.0629Z" fill="#5C5B5A"/>
<path d="M22.7246 17.2001C23.3718 17.2001 23.8965 16.6754 23.8965 16.0282C23.8965 15.381 23.3718 14.8563 22.7246 14.8563C22.0774 14.8563 21.5527 15.381 21.5527 16.0282C21.5527 16.6754 22.0774 17.2001 22.7246 17.2001Z" fill="#FEFEFE"/>
</svg>
