<svg width="30" height="30" viewBox="0 0 30 30" fill="none" xmlns="http://www.w3.org/2000/svg">
<path d="M15 25C20.5228 25 25 20.5228 25 15C25 9.47715 20.5228 5 15 5C9.47715 5 5 9.47715 5 15C5 20.5228 9.47715 25 15 25Z" fill="#A9D2ED"/>
<path d="M14.9998 12.857C16.1833 12.857 17.1426 11.8976 17.1426 10.7141C17.1426 9.53068 16.1833 8.57129 14.9998 8.57129C13.8163 8.57129 12.8569 9.53068 12.8569 10.7141C12.8569 11.8976 13.8163 12.857 14.9998 12.857Z" fill="#36A0E8"/>
<path d="M14.9998 13.5713C13.8181 13.5713 12.8569 14.5325 12.8569 15.7141V19.9999C12.8569 21.1815 13.8181 22.1427 14.9998 22.1427C16.1814 22.1427 17.1426 21.1815 17.1426 19.9999V15.7141C17.1426 14.5325 16.1814 13.5713 14.9998 13.5713Z" fill="#36A0E8"/>
</svg>
