  <svg
    width="50"
    height="50"
    viewBox="0 0 50 50"
    fill="none"
  >
    <circle
      cx="25"
      cy="25"
      r="24.75"
      fill="#fff"
      stroke="#000"
      strokeWidth="0.5"
    />
    <path
      d="M28.066 16.009c.25.08.49.17.73.27h.06c-.13-.05 0 0 0 0l.18.08.35.17c.445.225.872.483 1.28.77l.28.21.08.06.15.12c.19.16.37.32.55.5.18.18.36.36.53.55l.24.29.1.12s.06.08.08.11c.3.403.57.828.81 1.27.12.233.23.463.33.69v.09-.06.06l.06.16c.05.12.1.25.14.38.19.566.343 1.144.46 1.73.07.34.13.69.19 1 0 .17 0 .33.07.49.07.16 0-.1 0 .05v.4c.18 1.524.2 3.062.06 4.59a.51.51 0 0 0 .5.51.53.53 0 0 0 .51-.51 22.557 22.557 0 0 0-.31-6.37c-.11-.621-.253-1.235-.43-1.84a10.64 10.64 0 0 0-3.67-5.24 10.39 10.39 0 0 0-3.11-1.65.51.51 0 0 0-.63.35.528.528 0 0 0 .41.65zM15.066 30.378a3.45 3.45 0 0 0 .86-2.64c0-.42-.17-.83-.24-1.25v-.32a.994.994 0 0 1 0-.16v-.55a8.826 8.826 0 0 1 0-1.15c.01-.187.03-.374.06-.56 0-.06 0 0 0 0v-.08a.682.682 0 0 0 0-.14c.022-.095.039-.192.05-.29.08-.36.17-.73.28-1.08.05-.19.12-.37.18-.54.06-.17.07-.18.1-.26v-.08s0 .09 0 0 0-.09.07-.14c.154-.344.33-.679.53-1 .175-.293.365-.576.57-.85a.608.608 0 0 1 .07-.1c.08-.1 0 .05 0 0 .048-.07.101-.137.16-.2l.33-.38a7.93 7.93 0 0 1 .71-.71l.37-.31.11-.09.21-.16c.54-.386 1.116-.721 1.72-1 .072-.025.142-.055.21-.09-.13.06 0 0 0 0l.13-.05.52-.19c.33-.11.67-.2 1-.28.33-.08.42-.09.63-.12h.55c.423-.03.847-.03 1.27 0l.64.05a.51.51 0 0 0 0-1 10.561 10.561 0 0 0-8.35 2.87 10.699 10.699 0 0 0-2.47 3.69 10.39 10.39 0 0 0-.72 4.58c0 .42.09.83.16 1.24 0 .2.09.4.13.6v.2c0 .02 0-.09 0 0v.29c.005.084.005.167 0 .25v.14c0 .04 0 .08 0 0a2.18 2.18 0 0 1-.11.44.418.418 0 0 1 0 .1c0 .06 0-.1 0 0l-.09.19c-.057.107-.121.21-.19.31l-.05.07s.08-.09.05-.05l-.1.11a.51.51 0 0 0 .72.72l-.07-.03z"
      fill="#000"
    />
    <path
      d="M17.316 23.929c0 .14 0 0 0 0v-.32c0-.07.06-.3.1-.44.071-.291.158-.578.26-.86 0-.06 0-.13.08-.19v-.08c0-.12-.05.1 0 0s.12-.27.19-.41c.133-.264.28-.521.44-.77.122-.215.263-.419.42-.61l.06-.08.2-.16.26-.29c.17-.18.35-.36.54-.53l.26-.22.14-.11c.09-.08-.09.07 0 0l.09-.06c.41-.3.844-.565 1.3-.79l.33-.16h.06c-.13 0 0 0 0 0l.2-.07a8.491 8.491 0 0 1 1.57-.43h.89a6.94 6.94 0 0 1 .79 0H26.066s.13 0 0 0h.33l.36.07c.22.05.43.11.64.18.21.07.44.14.65.23 0 0 .11.05 0 0l.14.07.32.15c.401.206.786.443 1.15.71l.12.09c-.1-.06-.05 0 0 0l.06.05.26.22c.17.15.34.3.49.46.15.16.32.34.46.51.035.041.069.085.1.13-.1-.08 0 0 0 0l.21.28c.263.375.49.773.68 1.19.029.05.053.104.07.16 0 0 .09.2 0 .05l.13.33c.08.22.16.45.22.68.16.59.28 1.2.38 1.8 0 .15.05.3.07.44V25.569c.04.32.07.653.09 1 0 .63.07 1.26.06 1.9-.01.64 0 1.27-.11 1.91l.12.43c0 .15 0-.06 0 0v.37c-.047.32-.107.653-.18 1-.06.3-.13.6-.2.9a.518.518 0 1 0 1 .27c.623-2.59.751-5.273.38-7.91-.09-.7-.21-1.4-.36-2.09a9.435 9.435 0 0 0-.43-1.49 8.905 8.905 0 0 0-1.52-2.57 8.81 8.81 0 0 0-4.85-2.9 8.84 8.84 0 0 0-10.43 6.62c-.07.32-.13.65-.17 1a.51.51 0 0 0 .51.51.51.51 0 0 0 .35-.15.58.58 0 0 0 .15-.36v-.08zM15.956 31.899c.18-.22.37-.42.55-.64.174-.23.335-.47.48-.72.367-.664.58-1.403.62-2.16a4.997 4.997 0 0 0-.14-1.55.52.52 0 0 0-.63-.36.54.54 0 0 0-.35.63c.029.105.052.212.07.32a.873.873 0 0 1 0 .16s0-.12 0 0v.09a3.9 3.9 0 0 1 0 .59c.005.093.005.186 0 .28v.13-.05.1a4.298 4.298 0 0 1-.27.95c-.06.15 0-.08 0 0a.981.981 0 0 1 0 .1l-.1.21a5.15 5.15 0 0 1-.4.63c0 .07.07-.08 0 0v.06l-.1.12-.38.43a.51.51 0 0 0 .72.72l-.07-.04z"
      fill="#000"
    />
    <path
      d="M21.866 18.608a7.19 7.19 0 0 0-3.94 6.98c0 .3.07.6.13.9.075.283.132.57.17.86 0-.11 0 0 0 0v.12c.004.067.004.134 0 .2v1.15c0 .04 0 .15 0 0a2 2 0 0 1-.07.41c0 .13-.06.26-.1.39-.04.13-.07.25-.11.37l-.07.18v.08c-.05.13 0-.06 0 0-.218.467-.49.907-.81 1.31-.05.07 0 0 0 0l-.09.12c-.05.06-.11.12-.16.19-.21.23-.42.47-.61.72a.53.53 0 0 0-.05.39.51.51 0 0 0 .93.12c.08-.11-.07.08 0 0l.06-.07.14-.16.21-.24c.127-.143.248-.293.36-.45a6.67 6.67 0 0 0 1.39-4.28c0-.31 0-.62-.1-.93-.1-.31-.12-.55-.17-.83a1.282 1.282 0 0 1 0-.19v-.08c0-.14 0 .11 0 0v-.39c-.02-.27-.02-.54 0-.81v-.37s0-.16 0 0v-.08a1.878 1.878 0 0 0 0-.23c.05-.257.118-.51.2-.76 0-.13.08-.25.13-.37.017-.065.04-.129.07-.19 0 0 0 .1 0 0v-.11c.119-.253.253-.5.4-.74l.25-.36v-.08c.04-.055.083-.109.13-.16.19-.23.398-.448.62-.65l.34-.3s.09-.07 0 0l.1-.08.2-.14c.256-.174.523-.33.8-.47a.51.51 0 0 0 .19-.69.53.53 0 0 0-.7-.18l.16-.1zM31.266 21.44a7.18 7.18 0 0 0-7.89-3.38.51.51 0 0 0-.35.62.53.53 0 0 0 .62.36l.45-.1h.36c.293-.026.587-.026.88 0H26.036c.257.04.512.1.76.18l.37.11.17.07h.09c.05 0 .09 0 0 0 .24.092.47.206.69.34.23.127.45.271.66.43h.07l.14.12.31.28c.22.214.426.441.62.68.08.09 0-.06 0 0 .03.034.056.07.08.11.05.064.097.13.14.2.09.13.17.26.25.4a.502.502 0 0 0 .837.049.505.505 0 0 0 .033-.56l.01.09zM31.335 35.089a20.148 20.148 0 0 0 1.12-4.53 19.685 19.685 0 0 0 0-4.54 22.586 22.586 0 0 0-.39-2.69.52.52 0 0 0-.62-.35.53.53 0 0 0-.36.62c.09.38.18.76.24 1.14 0 .19.07.38.1.57.03.19 0 .17 0 .26s0 .13 0 0v.17c.103.752.16 1.51.17 2.27.01.748-.03 1.497-.12 2.24v.28s0 .13 0 0a.783.783 0 0 0 0 .15l-.09.55c-.07.37-.14.74-.23 1.11-.192.825-.439 1.637-.74 2.43a.49.49 0 0 0 .35.62.52.52 0 0 0 .62-.35l-.05.05zM29.365 32.509c-.156.58-.343 1.15-.56 1.71l-.15.4-.09.21c0-.06 0 0 0 0v.1l-.36.76a.53.53 0 0 0 .18.7.51.51 0 0 0 .69-.18c.546-1.104.982-2.26 1.3-3.45a.517.517 0 0 0-1-.26l-.01.01z"
      fill="#000"
    />
    <path
      d="m18.336 34.259.07-.1.08-.09c.06-.08.13-.15.19-.22l.23-.27c.21-.253.408-.516.59-.79a8.826 8.826 0 0 0 1-2.15c.3-.953.418-1.954.35-2.95 0-.32-.06-.63-.11-.95-.05-.32-.13-.57-.18-.85v-.22c0 .11 0 0 0 0v-.96a1.794 1.794 0 0 1 0-.22.767.767 0 0 1 0-.15c.05-.272.12-.54.21-.8l.08-.2c0-.08-.05.11 0 0a.543.543 0 0 0 .05-.11c.07-.13.13-.26.21-.39l.19-.31.12-.16.05-.07c-.09.11 0 0 0 0 .154-.195.324-.375.51-.54l.13-.11.08-.07s.09-.07 0 0l.08-.06.17-.12a4.93 4.93 0 0 1 .64-.35h.09c-.09 0-.06 0 0 0l.19-.07c.12-.05.243-.09.37-.12.124-.04.25-.07.38-.09h.22c.14 0-.11 0 0 0h.13c.273-.02.547-.02.82 0h.26c-.12 0-.08 0 0 0l.37.07c.214.046.425.11.63.19l.15.06c.1 0-.11-.05 0 0h.07c.109.044.216.094.32.15.19.105.374.221.55.35a.24.24 0 0 0 .08.06c-.1 0-.06 0 0 0l.13.11.25.23.21.22.12.13.05.06s.08.12 0 .05c-.08-.07 0 0 0 0l.06.08.09.12.18.3.15.29c0 .05.05.1.08.16s0 0 0 .06c-.07-.14 0 0 0 0 .084.211.155.428.21.65.08.32.15.653.21 1 0 .15.05.3.07.45.004.073.004.146 0 .22v.22c0 .05 0 .06 0 0v.2c.004.073.004.146 0 .22v.49c0 .32 0 .65.05 1 .018.627.001 1.254-.05 1.88v.44c.005.073.005.146 0 .22v.13c0 .05 0-.11 0 0a.5.5 0 0 0 .35.62c.24 0 .59-.07.62-.35.193-1.325.237-2.666.13-4a19.635 19.635 0 0 0-.28-2 8.506 8.506 0 0 0-.15-1.84 5.68 5.68 0 0 0-1.84-2.41 5.51 5.51 0 0 0-8.76 4 5.757 5.757 0 0 0 .17 1.85c0 .14 0 .27.08.4v.38c.032.272.048.546.05.82.02.256.02.513 0 .77v.27c0 .12 0-.12 0 0l-.06.35a7.555 7.555 0 0 1-.38 1.31 1.22 1.22 0 0 1-.05.14v.07c0 .06.05-.13 0 0s-.09.2-.13.29c-.08.175-.17.345-.27.51a7.488 7.488 0 0 1-.54.84l-.06.08s-.08.09 0 0l-.12.16-.23.27c-.203.213-.39.44-.56.68a.51.51 0 0 0 .571.74.51.51 0 0 0 .309-.23l-.03-.04z"
      fill="#000"
    />
    <path
      d="M21.485 26.64v.25c0-.07 0 0 0 0v.12c.005.056.005.113 0 .17v.6c.026.372.026.746 0 1.12.006.082.006.166 0 .25v.14c0 .12 0-.08 0 0l-.09.52c-.059.337-.139.671-.24 1l-.09.4-.08.2v.11c0 .07 0 0 0 0-.12.26-.23.52-.37.77-.229.431-.49.846-.78 1.24a1.35 1.35 0 0 1-.11.14s.08-.1 0-.05l-.05.07c-.07.08-.13.16-.2.23-.2.25-.42.47-.6.73a.502.502 0 0 0 .562.74.51.51 0 0 0 .308-.23v-.06l.1-.11.12-.14.17-.19.43-.54c.3-.388.568-.8.8-1.23a10 10 0 0 0 1.2-3.8 10.21 10.21 0 0 0-.1-2.76.518.518 0 1 0-1 .27l.02.04zM23.205 21.668a3.91 3.91 0 0 0-2 3.1.51.51 0 0 0 .51.51.53.53 0 0 0 .51-.51v-.1a.705.705 0 0 1 0-.2c0-.14.07-.27.11-.41v-.09s.05-.12 0-.06v-.09c.063-.124.133-.244.21-.36 0 0 .1-.15.11-.15l.06-.07c.078-.091.162-.178.25-.26l.14-.12.08-.06.32-.2a.505.505 0 0 0-.51-.87l.21-.06zM29.275 28.139c0-.67-.042-1.337-.13-2a15.166 15.166 0 0 0-.38-2.13 3.87 3.87 0 0 0-1.91-2.39 4 4 0 0 0-1.79-.43.5.5 0 0 0-.5.5.51.51 0 0 0 .5.51c.12-.01.24-.01.36 0h.06c-.12 0-.06 0 0 0h.19l.32.09.16.06h.06c-.15-.05 0 0 0 0 .2.098.392.215.57.35.06 0-.1-.09 0 0l.07.06.11.1c.088.075.168.159.24.25l.1.12c.07.08-.07-.1 0 0v.07c.07.1.14.2.2.3l.14.29c-.08-.14 0 0 0 .07l.06.19c.088.288.155.582.2.88.07.32.13.65.17 1 0-.11 0 0 0 0V28.079a.51.51 0 0 0 1 0l.2.06z"
      fill="#000"
    />
    <Path
      d="M29.215 29.599c0-.48.06-1 .06-1.46a.51.51 0 1 0-1 0c.002.487-.021.975-.07 1.46a.51.51 0 0 0 .315.472.49.49 0 0 0 .195.038.53.53 0 0 0 .35-.1.65.65 0 0 0 .15-.36v-.05z"
      fill="#000"
    />
    <path
      d="M26.885 36.689a16.82 16.82 0 0 0 2.07-5.3c.11-.59.2-1.19.26-1.79a.51.51 0 0 0-.51-.5.52.52 0 0 0-.51.5v.35c-.005.06-.005.12 0 .18a.25.25 0 0 0 0 .08c0-.12 0 0 0 0 0 .24-.04.48-.12.72-.19.958-.46 1.898-.81 2.81l-.12.31v.07c0 .07 0-.07 0 0s-.05.12-.07.17c-.09.21-.19.41-.28.61-.21.43-.44.84-.68 1.25a.51.51 0 0 0 .18.69.51.51 0 0 0 .69-.18l-.1.03zM22.636 31.729c-.057.17-.123.337-.2.5v.05a.368.368 0 0 1-.05.11c0 .09-.07.17-.11.25-.15.3-.3.59-.47.87-.17.28-.31.51-.48.75-.17.24-.15.22-.23.32l-.06.07-.12.15c-.15.19-.3.37-.46.55a.503.503 0 0 0 .71.71 12.085 12.085 0 0 0 1.9-2.82c.2-.4.37-.82.53-1.24a.52.52 0 0 0-.36-.63.53.53 0 0 0-.62.36h.02z"
      fill="#000"
    />
    <path
      d="M24.855 36.748a14.93 14.93 0 0 0 2-3.9c.548-1.608.812-3.3.78-5-.02-.865-.11-1.728-.27-2.58a5.532 5.532 0 0 0-.3-1.17 2.09 2.09 0 0 0-.64-.8 2.16 2.16 0 0 0-2.09-.29 2.2 2.2 0 0 0-1.38 1.55 2.631 2.631 0 0 0 0 1.15c0 .21.1.42.13.63.03.21 0 .2.05.3.05.1 0 .17 0 .06v.17c.075.748.075 1.502 0 2.25l-.06.51a.53.53 0 0 0 .315.473.49.49 0 0 0 .195.037.55.55 0 0 0 .48-.13.61.61 0 0 0 .14-.36 10.35 10.35 0 0 0 .08-2.08 15.612 15.612 0 0 0-.35-2.36c0-.07 0 .11 0 0v-.05a.283.283 0 0 1 0-.09v-.19c0 .09 0 0 0 0a.43.43 0 0 1 0-.11v-.09c0-.07 0 0 0 0l.09-.18a.56.56 0 0 0 .05-.08v-.05c0-.05-.07.08 0 0l.14-.15.07-.06s-.08.07 0 0l.17-.1h.1c.07 0-.1 0 0 0l.21-.06H25.225l.19.05s-.1-.05 0 0l.11.05.17.11c.08.05-.07-.07 0 0l.09.09c.05.045.096.091.14.14a.22.22 0 0 0 0 .05.21.21 0 0 1 .06.1c0 .06.06.12.1.18.04.06 0-.11 0 0v.16a10.536 10.536 0 0 1 .24 1.19c.03.2 0 .19.05.29.05.1 0 .13 0 0a.878.878 0 0 1 0 .17c.05.39.08.78.1 1.18.063.749.066 1.501.01 2.25 0 .06 0 0 0 0v.15c0 .1 0 .2-.05.3-.05.1-.07.38-.11.57a13.825 13.825 0 0 1-.68 2.24l-.1.25c.005.02.005.04 0 .06l-.06.15-.23.48c-.298.59-.632 1.162-1 1.71-.08.13-.17.25-.25.37a.51.51 0 0 0 .18.69.51.51 0 0 0 .69-.18l-.02-.05z"
      fill="#000"
    />
    <path
      d="M24.576 25.159c.117.447.204.901.26 1.36 0 0 0-.09 0 0v.08a.792.792 0 0 1 0 .16v.97c.025.42.025.84 0 1.26 0 .2 0 .4-.05.59.005.05.005.1 0 .15a.172.172 0 0 1 0 .07s0-.12 0 0 0 .2-.05.3c-.12.75-.31 1.487-.57 2.2-.06.17-.13.35-.2.52-.07.17 0 .07 0 .11 0 .04 0-.1 0 0v.06a2.75 2.75 0 0 1-.11.25c-.15.32-.31.64-.48.94-.17.3-.38.66-.59 1-.11.15-.21.3-.32.44l-.09.12v.05c-.06.07.05-.07 0 0l-.17.22a.51.51 0 0 0-.15.35.51.51 0 0 0 .87.36 14.002 14.002 0 0 0 2.14-3.92c.596-1.526.894-3.152.88-4.79a14.249 14.249 0 0 0-.39-3.12.51.51 0 0 0-.62-.36.53.53 0 0 0-.36.63zM15.975 18.849c.12-.19.25-.37.39-.55.14-.18 0 0 0 0l.06-.07.1-.12.23-.27c.283-.333.587-.647.91-.94a5.39 5.39 0 0 1 .51-.44l.12-.1s.15-.13 0 0a2.78 2.78 0 0 1 .27-.21 11.02 11.02 0 0 1 1.14-.72l.58-.31.3-.14.14-.06h.08c.41-.187.832-.35 1.26-.49.445-.117.896-.211 1.35-.28h.16c.07 0-.13 0 0 0h1.13c.531-.02 1.063 0 1.59.06h.18c.14 0-.11 0 0 0h.08l.4.06a12.615 12.615 0 0 1 2.26.66s.14.06 0 0h.07l.18.08.35.16.73.4c.23.13.46.28.69.44.115.073.225.153.33.24l.12.09c.06 0-.09-.08 0 0l.08.06c.35.28.684.581 1 .9.318.314.615.648.89 1v.05c-.08-.1 0 0 0 0l.09.13.21.29.36.55c.237.387.45.787.64 1.2l.13.3v.07l.06.16c.08.22.16.44.23.66.192.423.36.857.5 1.3l.06.35a1.017 1.017 0 0 0 0 .16s0 .11 0 0a.45.45 0 0 1 0 .11c0 .23.05.47.07.7.02.23 0 .47 0 .71a.51.51 0 0 0 .5.51.53.53 0 0 0 .56-.54 12.069 12.069 0 0 0-1.42-5.67 12.209 12.209 0 0 0-3.81-4.24 12 12 0 0 0-6.33-2.09 11.941 11.941 0 0 0-10 4.76c-.14.18-.27.36-.4.55a.51.51 0 0 0 .18.69.53.53 0 0 0 .7-.18l-.01.02zM14.525 28.149a14.922 14.922 0 0 1-.35-1.61c0-.14 0 .07 0 0v-3c0-.09 0 .12 0 0a.502.502 0 0 1 0-.12c.077-.528.194-1.05.35-1.56.08-.28.18-.56.28-.83 0-.07.05-.13.08-.19v-.15c.06-.14.12-.28.19-.42a.51.51 0 0 0-.88-.51 12.11 12.11 0 0 0-.71 8.64.517.517 0 1 0 1-.27l.04.02z"
      fill="#000"
    />
  </svg>