<svg width="30" height="30" viewBox="0 0 30 30" fill="none" xmlns="http://www.w3.org/2000/svg">
<path d="M21.0953 19.0593H8.90479V11.0156C8.90479 7.65454 11.6389 4.92041 15 4.92041C18.3611 4.92041 21.0953 7.65454 21.0953 11.0156V19.0593ZM10.7937 17.1704H19.2064V11.0156C19.2064 8.69819 17.3215 6.8093 15 6.8093C12.6786 6.8093 10.7937 8.69422 10.7937 11.0156V17.1704Z" fill="#DADEDF"/>
<path d="M23 12.6543H7V25.0789H23V12.6543Z" fill="#FDC77C"/>
<path d="M23 24.1504H7V25.079H23V24.1504Z" fill="#E39A61"/>
<path d="M16.8054 17.579C16.8054 16.583 15.9959 15.7734 14.9999 15.7734C14.0039 15.7734 13.1943 16.583 13.1943 17.579C13.1943 18.3885 13.7301 19.075 14.4642 19.3052V21.4242C14.4642 21.7219 14.7062 21.9599 14.9999 21.9599C15.2935 21.9599 15.5356 21.7179 15.5356 21.4242V19.3052C16.2737 19.075 16.8054 18.3885 16.8054 17.579Z" fill="#E39A61"/>
</svg>
