<svg width="15" height="15" viewBox="0 0 15 15" fill="none" xmlns="http://www.w3.org/2000/svg">
<g clip-path="url(#clip0_128_37070)">
<path d="M7.5 13.75C10.9518 13.75 13.75 10.9518 13.75 7.5C13.75 4.04822 10.9518 1.25 7.5 1.25C4.04822 1.25 1.25 4.04822 1.25 7.5C1.25 10.9518 4.04822 13.75 7.5 13.75Z" stroke="white" stroke-linecap="round" stroke-linejoin="round"/>
<path d="M5.68127 5.62499C5.82821 5.20728 6.11824 4.85506 6.5 4.6307C6.88175 4.40634 7.33058 4.32433 7.76701 4.39918C8.20344 4.47404 8.59928 4.70094 8.88445 5.03969C9.16961 5.37845 9.32568 5.80719 9.32502 6.24999C9.32502 7.49999 7.45002 8.12499 7.45002 8.12499" stroke="white" stroke-linecap="round" stroke-linejoin="round"/>
<path d="M7.5 10.625H7.50625" stroke="white" stroke-linecap="round" stroke-linejoin="round"/>
</g>
<defs>
<clipPath id="clip0_128_37070">
<rect width="15" height="15" fill="white"/>
</clipPath>
</defs>
</svg>
