<svg width="30" height="30" viewBox="0 0 30 30" fill="none" xmlns="http://www.w3.org/2000/svg">
<path d="M25.0001 6.48194V8.95226C25.0001 9.39485 24.8038 9.79114 24.4946 10.0634C24.6533 10.2017 24.7806 10.3724 24.8678 10.5641C24.955 10.7558 25.0001 10.9639 25.0001 11.1744V13.6429C25.0001 14.0855 24.8038 14.4818 24.4946 14.754C24.8038 15.0262 25.0001 15.4225 25.0001 15.8651V18.3336C25.0001 19.1502 24.3353 19.815 23.5186 19.815H16.2355V20.9354C16.4762 21.0965 16.6836 21.302 16.8447 21.5446H19.6909C20.3724 21.5446 20.9261 22.0983 20.9261 22.7779C20.9261 23.4594 20.3724 24.0131 19.6909 24.0131H16.8447C16.4392 24.6186 15.7521 25.0001 15.0003 25.0001C14.2503 25.0001 13.5614 24.6186 13.1559 24.0131H10.3096C9.62818 24.0131 9.07448 23.4594 9.07448 22.7779C9.07448 22.0983 9.62818 21.5446 10.3096 21.5446H13.1559C13.3167 21.3032 13.5238 21.0961 13.7651 20.9354V19.815H6.48194C5.66529 19.815 5.00049 19.1502 5.00049 18.3336V15.8651C5.00049 15.4225 5.19678 15.0262 5.50603 14.754C5.19678 14.4818 5.00049 14.0855 5.00049 13.6429V11.1744C5.00049 10.7319 5.19678 10.3337 5.50603 10.0634C5.19678 9.79114 5.00049 9.39485 5.00049 8.95226V6.48194C5.00049 5.66529 5.66529 5.00049 6.48194 5.00049H23.5186C24.3353 5.00049 25.0001 5.66529 25.0001 6.48194Z" fill="#FDFEFF"/>
<path d="M16.3957 23.272H19.6917C19.8227 23.272 19.9483 23.22 20.0409 23.1273C20.1335 23.0347 20.1856 22.9091 20.1856 22.7781C20.1856 22.6471 20.1335 22.5215 20.0409 22.4289C19.9483 22.3363 19.8227 22.2842 19.6917 22.2842H16.3955C16.4505 22.4389 16.4818 22.6046 16.4818 22.7781C16.4814 22.9464 16.4523 23.1135 16.3957 23.272ZM13.605 22.2842H10.3091C10.2435 22.283 10.1782 22.2948 10.1172 22.319C10.0562 22.3433 10.0006 22.3795 9.95372 22.4254C9.90684 22.4714 9.8696 22.5263 9.84418 22.5868C9.81876 22.6474 9.80566 22.7124 9.80566 22.778C9.80566 22.8437 9.81876 22.9087 9.84418 22.9692C9.8696 23.0298 9.90684 23.0846 9.95372 23.1306C10.0006 23.1766 10.0562 23.2128 10.1172 23.237C10.1782 23.2613 10.2435 23.2731 10.3091 23.2718H13.605C13.5483 23.1134 13.5192 22.9464 13.5189 22.7781C13.5189 22.6046 13.5503 22.4389 13.605 22.2842ZM14.5064 9.69189H15.4942V10.4326H14.5064V9.69189ZM14.5064 14.3833H15.4942V15.124H14.5064V14.3833ZM14.5064 21.3828C14.6612 21.328 14.8268 21.2967 15.0003 21.2967C15.1738 21.2967 15.3394 21.3281 15.4942 21.3828V19.0745H14.5064V21.3828Z" fill="#2F4859"/>
<path d="M6.48194 15.124C6.28548 15.124 6.09708 15.2021 5.95816 15.341C5.81925 15.4799 5.74121 15.6683 5.74121 15.8647V18.3338C5.74121 18.5302 5.81925 18.7186 5.95816 18.8575C6.09708 18.9965 6.28548 19.0745 6.48194 19.0745H23.5186C23.7151 19.0745 23.9035 18.9965 24.0424 18.8575C24.1813 18.7186 24.2594 18.5302 24.2594 18.3338V15.8647C24.2594 15.6683 24.1813 15.4799 24.0424 15.341C23.9035 15.2021 23.7151 15.124 23.5186 15.124H6.48194ZM8.82763 17.7166H7.59303V16.482H8.82763V17.7166ZM10.8028 17.7166H9.56836V16.482H10.8028V17.7166ZM12.7781 17.7166H11.5435V16.482H12.7781V17.7166ZM15.4599 16.7288H22.1264C22.2247 16.7288 22.3189 16.7678 22.3883 16.8373C22.4578 16.9067 22.4968 17.0009 22.4968 17.0992C22.4968 17.1974 22.4578 17.2916 22.3883 17.3611C22.3189 17.4305 22.2247 17.4695 22.1264 17.4695H15.4599C15.3617 17.4695 15.2675 17.4305 15.198 17.3611C15.1286 17.2916 15.0895 17.1974 15.0895 17.0992C15.0895 17.0009 15.1286 16.9067 15.198 16.8373C15.2675 16.7678 15.3617 16.7288 15.4599 16.7288Z" fill="#27A2DB"/>
<path d="M14.5061 21.383C14.2983 21.4568 14.1096 21.576 13.9536 21.7319C13.7977 21.8879 13.6785 22.0766 13.6047 22.2844C13.548 22.443 13.5189 22.61 13.5186 22.7783C13.5186 22.9517 13.55 23.1174 13.6047 23.272C13.8084 23.8472 14.3552 24.2598 15 24.2598C15.6448 24.2598 16.1918 23.8472 16.3954 23.272C16.452 23.1136 16.4811 22.9466 16.4815 22.7783C16.4815 22.6048 16.45 22.4391 16.3954 22.2844C16.3216 22.0766 16.2024 21.8879 16.0464 21.7319C15.8905 21.576 15.7017 21.4568 15.4939 21.383C15.3391 21.3282 15.1735 21.2969 15 21.2969C14.8265 21.2969 14.6609 21.3284 14.5061 21.383Z" fill="#F6C358"/>
<path d="M6.48194 10.4331C6.28548 10.4331 6.09708 10.5111 5.95816 10.6501C5.81925 10.789 5.74121 10.9774 5.74121 11.1738V13.643C5.74121 13.8395 5.81925 14.0279 5.95816 14.1668C6.09708 14.3057 6.28548 14.3838 6.48194 14.3838H23.5186C23.7151 14.3838 23.9035 14.3057 24.0424 14.1668C24.1813 14.0279 24.2594 13.8395 24.2594 13.643V11.1738C24.2594 10.9774 24.1813 10.789 24.0424 10.6501C23.9035 10.5111 23.7151 10.4331 23.5186 10.4331H6.48194ZM8.783 13.0256H7.5484V11.7912H8.783V13.0256ZM10.7581 13.0256H9.52373V11.7912H10.7581V13.0256ZM12.7335 13.0256H11.4989V11.7912H12.7335V13.0256ZM15.4153 12.0381H22.0818C22.18 12.0381 22.2742 12.0771 22.3437 12.1466C22.4132 12.216 22.4522 12.3102 22.4522 12.4084C22.4522 12.5067 22.4132 12.6009 22.3437 12.6703C22.2742 12.7398 22.18 12.7788 22.0818 12.7788H15.4153C15.3171 12.7788 15.2229 12.7398 15.1534 12.6703C15.0839 12.6009 15.0449 12.5067 15.0449 12.4084C15.0449 12.3102 15.0839 12.216 15.1534 12.1466C15.2229 12.0771 15.3171 12.0381 15.4153 12.0381Z" fill="#27A2DB"/>
<path d="M7.54785 11.791H8.78246V13.0254H7.54785V11.791Z" fill="#E56353"/>
<path d="M9.52344 11.791H10.7579V13.0254H9.52344V11.791Z" fill="#44C4A1"/>
<path d="M11.4985 11.791H12.7331V13.0254H11.4985V11.791Z" fill="#FCD462"/>
<path d="M15.4153 12.7788H22.0818C22.18 12.7788 22.2743 12.7398 22.3437 12.6703C22.4132 12.6009 22.4522 12.5067 22.4522 12.4084C22.4522 12.3102 22.4132 12.216 22.3437 12.1466C22.2743 12.0771 22.18 12.0381 22.0818 12.0381H15.4153C15.3171 12.0381 15.2229 12.0771 15.1534 12.1466C15.0839 12.216 15.0449 12.3102 15.0449 12.4084C15.0449 12.5067 15.0839 12.6009 15.1534 12.6703C15.2229 12.7398 15.3171 12.7788 15.4153 12.7788Z" fill="#64798A"/>
<path d="M23.5186 5.7417H6.48194C6.28548 5.7417 6.09708 5.81974 5.95816 5.95865C5.81925 6.09757 5.74121 6.28597 5.74121 6.48243V8.95145C5.74121 9.1479 5.81925 9.33631 5.95816 9.47522C6.09708 9.61414 6.28548 9.69218 6.48194 9.69218H23.5186C23.7151 9.69218 23.9035 9.61414 24.0424 9.47522C24.1813 9.33631 24.2594 9.1479 24.2594 8.95145V6.48243C24.2594 6.28597 24.1813 6.09757 24.0424 5.95865C23.9035 5.81974 23.7151 5.7417 23.5186 5.7417ZM8.783 8.33424H7.5484V7.09964H8.783V8.33424ZM10.7581 8.33424H9.52373V7.09964H10.7581V8.33424ZM12.7335 8.33424H11.4989V7.09964H12.7335V8.33424ZM22.0818 8.08739H15.4153C15.3171 8.08739 15.2229 8.04837 15.1534 7.97892C15.0839 7.90946 15.0449 7.81526 15.0449 7.71703C15.0449 7.6188 15.0839 7.5246 15.1534 7.45514C15.2229 7.38569 15.3171 7.34667 15.4153 7.34667H22.0818C22.18 7.34667 22.2742 7.38569 22.3437 7.45514C22.4132 7.5246 22.4522 7.6188 22.4522 7.71703C22.4522 7.81526 22.4132 7.90946 22.3437 7.97892C22.2742 8.04837 22.18 8.08739 22.0818 8.08739Z" fill="#27A2DB"/>
<path d="M7.54785 7.09961H8.78246V8.33421H7.54785V7.09961Z" fill="#E56353"/>
<path d="M9.52344 7.09961H10.7579V8.33421H9.52344V7.09961Z" fill="#44C4A1"/>
<path d="M11.4985 7.09961H12.7331V8.33421H11.4985V7.09961Z" fill="#FCD462"/>
<path d="M22.0818 7.34668H15.4153C15.3171 7.34668 15.2229 7.3857 15.1534 7.45516C15.0839 7.52461 15.0449 7.61882 15.0449 7.71704C15.0449 7.81527 15.0839 7.90947 15.1534 7.97893C15.2229 8.04839 15.3171 8.08741 15.4153 8.08741H22.0818C22.18 8.08741 22.2743 8.04839 22.3437 7.97893C22.4132 7.90947 22.4522 7.81527 22.4522 7.71704C22.4522 7.61882 22.4132 7.52461 22.3437 7.45516C22.2743 7.3857 22.18 7.34668 22.0818 7.34668Z" fill="#64798A"/>
<path d="M7.59277 16.4819H8.82738V17.7165H7.59277V16.4819Z" fill="#E56353"/>
<path d="M9.56787 16.4819H10.8023V17.7165H9.56787V16.4819Z" fill="#44C4A1"/>
<path d="M11.5435 16.4819H12.7781V17.7165H11.5435V16.4819Z" fill="#FCD462"/>
<path d="M15.4597 17.4697H22.1263C22.2245 17.4697 22.3187 17.4307 22.3881 17.3613C22.4576 17.2918 22.4966 17.1976 22.4966 17.0994C22.4966 17.0011 22.4576 16.9069 22.3881 16.8375C22.3187 16.768 22.2245 16.729 22.1263 16.729H15.4597C15.3615 16.729 15.2673 16.768 15.1978 16.8375C15.1284 16.9069 15.0894 17.0011 15.0894 17.0994C15.0894 17.1976 15.1284 17.2918 15.1978 17.3613C15.2673 17.4307 15.3615 17.4697 15.4597 17.4697Z" fill="#64798A"/>
</svg>
