<svg width="20" height="20" viewBox="0 0 20 20" fill="#F0F0F0" xmlns="http://www.w3.org/2000/svg">
<path d="M9.55173 2.57497C9.73515 2.20339 10.265 2.20339 10.4484 2.57497L12.4589 6.64787C12.5316 6.79529 12.6722 6.89752 12.8349 6.9213L17.3315 7.57855C17.7415 7.63847 17.9049 8.14239 17.6081 8.43147L14.3551 11.5998C14.2372 11.7147 14.1834 11.8803 14.2112 12.0425L14.9788 16.518C15.0489 16.9265 14.6201 17.2379 14.2533 17.045L10.2328 14.9307C10.0871 14.8541 9.91305 14.8541 9.76736 14.9307L5.7469 17.045C5.38008 17.2379 4.95131 16.9265 5.02137 16.518L5.78896 12.0425C5.81679 11.8803 5.76296 11.7147 5.64502 11.5998L2.39209 8.43147C2.09529 8.14239 2.25868 7.63847 2.66864 7.57855L7.16526 6.9213C7.32794 6.89752 7.46853 6.79529 7.5413 6.64787L9.55173 2.57497Z" 
/>
</svg>
