<svg width="50" height="50" viewBox="0 0 50 50" fill="none" xmlns="http://www.w3.org/2000/svg">
<circle cx="25" cy="25" r="24.5" fill="white" stroke="#F3F3F3"/>
<path d="M18.9999 27.6642H21.1599L20.4879 33.2802H21.5679L22.2639 27.6642H26.0559L25.4079 33.2802H26.4879L27.1359 27.6642H29.5599V26.5362H27.3039L27.8319 22.2162H30.0879V21.0642H27.9279L28.5999 16.0002H27.5199L26.8479 21.0642H23.0559L23.7039 16.0002H22.6239L21.9519 21.0642H19.5279V22.2162H21.8559C21.6879 23.6562 21.4719 25.0962 21.3039 26.5362H18.9999V27.6642ZM26.1999 26.5362H22.3839C22.5519 25.0962 22.7679 23.6562 22.9359 22.2162H26.7519C26.5839 23.6562 26.3679 25.0962 26.1999 26.5362Z" fill="#222222"/>
</svg>
