<svg width="30" height="30" viewBox="0 0 30 30" fill="none" xmlns="http://www.w3.org/2000/svg">
<path d="M15 5C9.477 5 5 9.4772 5 15C5 20.5228 9.477 25 15 25C20.5226 25 25 20.5228 25 15C25 9.4772 20.5226 5 15 5ZM15 22.4622C10.8854 22.4622 7.5378 19.1148 7.5378 15C7.5378 10.8852 10.8854 7.5378 15 7.5378C19.1146 7.5378 22.4622 10.8854 22.4622 15C22.4622 19.1146 19.1146 22.4622 15 22.4622Z" fill="#F05228"/>
<path d="M9.39177 7.59668L22.4024 20.6079L20.608 22.4023L7.59717 9.39128L9.39177 7.59668Z" fill="#F05228"/>
</svg>
