<svg width="30" height="30" viewBox="0 0 30 30" fill="none" xmlns="http://www.w3.org/2000/svg">
<path d="M20.0345 18.9454C19.5269 18.9454 19.0693 19.3564 19.1184 19.8615V23.6315H24.1358V19.8615C24.1358 19.354 23.7272 18.9454 23.2197 18.9454H20.0345Z" fill="#0066FF"/>
<path d="M6.72957 16.014C6.22206 16.014 5.81348 16.4226 5.81348 16.9301V23.6316H10.8309V16.9301C10.8309 16.4226 10.4223 16.014 9.9148 16.014H6.72957ZM13.5651 13.449C13.0575 13.449 12.649 13.8576 12.649 14.3651V23.6316H17.2999V14.3651C17.2999 13.8576 16.8914 13.449 16.3839 13.449H13.5651Z" fill="#00A1FF"/>
<path d="M24.605 25.9723H5.31209C4.5622 25.9723 3.9585 25.3686 3.9585 24.6187C3.9585 23.8688 4.5622 23.2651 5.31209 23.2651H24.605C25.3549 23.2651 25.9585 23.8688 25.9585 24.6187C25.9585 25.3686 25.3549 25.9723 24.605 25.9723ZM17.4299 11.5051C17.0276 11.7988 15.482 11.0345 14.9838 11.0356C14.4856 11.0377 12.9435 11.8081 12.5398 11.5161C12.1361 11.2243 12.3855 9.51807 12.2304 9.04464C12.0754 8.57122 10.8652 7.34289 11.0181 6.86877C11.171 6.39465 12.8707 6.10451 13.2731 5.8108C13.6754 5.51707 14.4697 3.98661 14.9679 3.98548C15.466 3.9834 16.2672 5.51122 16.6708 5.80312C17.0745 6.095 18.7756 6.37745 18.9305 6.85088C19.0856 7.32431 17.881 8.55808 17.7281 9.03221C17.5753 9.50633 17.8323 11.2114 17.4299 11.5051Z" fill="#A8D0FF"/>
</svg>
