<svg width="20" height="20" viewBox="0 0 20 20" fill="none" xmlns="http://www.w3.org/2000/svg">
<path d="M9.53581 19.0698C4.27948 19.0698 0 14.7908 0 9.53492C0 4.27909 4.27948 0 9.53581 0C14.7921 0 19.0716 4.27909 19.0716 9.53492C19.0716 14.7908 14.7921 19.0698 9.53581 19.0698ZM9.53581 1.39535C5.04235 1.39535 1.39548 5.05118 1.39548 9.53492C1.39548 14.0187 5.04235 17.6745 9.53581 17.6745C14.0293 17.6745 17.6761 14.0187 17.6761 9.53492C17.6761 5.05118 14.0293 1.39535 9.53581 1.39535Z" fill="#C2C2C2"/>
<path d="M19.3046 20.0004C19.1278 20.0004 18.9511 19.9353 18.8115 19.7957L16.9509 17.9351C16.6811 17.6653 16.6811 17.2187 16.9509 16.9489C17.2207 16.6791 17.6672 16.6791 17.937 16.9489L19.7977 18.8096C20.0675 19.0794 20.0675 19.5259 19.7977 19.7957C19.6581 19.9353 19.4814 20.0004 19.3046 20.0004Z" fill="#C2C2C2"/>
</svg>
