<svg width="19" height="18" viewBox="0 0 19 18" fill="none" xmlns="http://www.w3.org/2000/svg">
<path d="M2.75 4.5H4.25H16.25" stroke="#222222" stroke-linecap="round" stroke-linejoin="round"/>
<path d="M14.75 4.5V15C14.75 15.3978 14.592 15.7794 14.3107 16.0607C14.0294 16.342 13.6478 16.5 13.25 16.5H5.75C5.35218 16.5 4.97064 16.342 4.68934 16.0607C4.40804 15.7794 4.25 15.3978 4.25 15V4.5M6.5 4.5V3C6.5 2.60218 6.65804 2.22064 6.93934 1.93934C7.22064 1.65804 7.60218 1.5 8 1.5H11C11.3978 1.5 11.7794 1.65804 12.0607 1.93934C12.342 2.22064 12.5 2.60218 12.5 3V4.5" stroke="#222222" stroke-linecap="round" stroke-linejoin="round"/>
<path d="M8 8.25V12.75" stroke="#222222" stroke-linecap="round" stroke-linejoin="round"/>
<path d="M11 8.25V12.75" stroke="#222222" stroke-linecap="round" stroke-linejoin="round"/>
</svg>
