<svg width="30" height="30" viewBox="0 0 30 30" fill="none" xmlns="http://www.w3.org/2000/svg">
<path d="M15 25C20.5228 25 25 20.5228 25 15C25 9.47715 20.5228 5 15 5C9.47715 5 5 9.47715 5 15C5 20.5228 9.47715 25 15 25Z" fill="#4294FF"/>
<path d="M15.0001 18.4884C14.8151 18.4884 14.6376 18.4149 14.5068 18.284C14.3759 18.1532 14.3024 17.9757 14.3024 17.7907V16.4698C14.2933 15.9776 14.4306 15.4937 14.6969 15.0797C14.9632 14.6656 15.3466 14.34 15.7982 14.1442C16.1487 13.9996 16.4534 13.7625 16.6796 13.4583C16.9059 13.154 17.0452 12.7941 17.0828 12.4168C17.1204 12.0395 17.0548 11.6591 16.893 11.3162C16.7312 10.9733 16.4793 10.6808 16.1642 10.4699C15.8491 10.259 15.4826 10.1377 15.1039 10.1189C14.7253 10.1001 14.3486 10.1845 14.0141 10.3631C13.6797 10.5417 13.4 10.8078 13.205 11.133C13.0101 11.4581 12.9071 11.8302 12.9071 12.2093C12.9071 12.3944 12.8336 12.5718 12.7027 12.7026C12.5719 12.8335 12.3944 12.907 12.2094 12.907C12.0244 12.907 11.8469 12.8335 11.7161 12.7026C11.5852 12.5718 11.5117 12.3944 11.5117 12.2093C11.5117 11.5772 11.6833 10.957 12.0083 10.4149C12.3333 9.87279 12.7995 9.42913 13.357 9.13131C13.9145 8.8335 14.5424 8.69272 15.1737 8.724C15.805 8.75529 16.416 8.95747 16.9413 9.30894C17.4667 9.66042 17.8867 10.148 18.1565 10.7196C18.4263 11.2912 18.5357 11.9253 18.4732 12.5543C18.4107 13.1833 18.1784 13.7835 17.8013 14.2907C17.4243 14.798 16.9165 15.1933 16.3322 15.4344C16.1371 15.5264 15.9731 15.6734 15.8603 15.8574C15.7476 16.0413 15.6911 16.2542 15.6978 16.4698V17.7907C15.6978 17.9757 15.6243 18.1532 15.4934 18.284C15.3626 18.4149 15.1851 18.4884 15.0001 18.4884Z" fill="#FFD064"/>
<path d="M15.0001 21.5118C15.5138 21.5118 15.9303 21.0954 15.9303 20.5816C15.9303 20.0678 15.5138 19.6514 15.0001 19.6514C14.4863 19.6514 14.0698 20.0678 14.0698 20.5816C14.0698 21.0954 14.4863 21.5118 15.0001 21.5118Z" fill="#FFD064"/>
</svg>
