<svg width="28" height="21" viewBox="0 0 28 21" fill="none" xmlns="http://www.w3.org/2000/svg">
<path d="M1 19.6604C2.04327 19.4208 3.2311 3.20116 3.51404 3.20116C3.85435 3.20116 3.97203 5.36854 4.01685 5.55304C4.45952 7.3933 5.52756 9.50395 7.03354 10.2553C8.85701 11.1646 12.0714 4.73567 12.5646 3.04486C12.5776 3.0002 13.0162 0.860376 13.1932 1.00723C14.9409 2.46024 14.2873 12.2988 20.3582 11.3527C24.0016 10.785 25.5489 1.65737 26.2664 2.1046C26.5247 2.2653 26.024 6.24344 26.0151 6.49329C25.8498 11.0298 26.3917 15.476 26.3917 19.9738C19.1513 19.0149 11.7342 18.555 4.60262 19.9738" stroke="#FEB326" stroke-width="2" stroke-linecap="round" stroke-linejoin="round"/>
</svg>
