<svg width="19" height="18" viewBox="0 0 19 18" fill="none" xmlns="http://www.w3.org/2000/svg">
<path d="M8.75 3H3.5C3.10218 3 2.72064 3.15804 2.43934 3.43934C2.15804 3.72064 2 4.10218 2 4.5V15C2 15.3978 2.15804 15.7794 2.43934 16.0607C2.72064 16.342 3.10218 16.5 3.5 16.5H14C14.3978 16.5 14.7794 16.342 15.0607 16.0607C15.342 15.7794 15.5 15.3978 15.5 15V9.75" stroke="#222222" stroke-linecap="round" stroke-linejoin="round"/>
<path d="M14.375 1.87493C14.6734 1.57656 15.078 1.40894 15.5 1.40894C15.922 1.40894 16.3266 1.57656 16.625 1.87493C16.9234 2.17329 17.091 2.57797 17.091 2.99993C17.091 3.42188 16.9234 3.82656 16.625 4.12493L9.5 11.2499L6.5 11.9999L7.25 8.99993L14.375 1.87493Z" stroke="#222222" stroke-linecap="round" stroke-linejoin="round"/>
</svg>
