<svg width="22" height="22" viewBox="0 0 22 22" fill="none" xmlns="http://www.w3.org/2000/svg">
<g clip-path="url(#clip0_101_152458)">
<path d="M15.5934 2.78438L16.0402 4.125H19.25C20.7668 4.125 22 5.3582 22 6.875V17.875C22 19.3918 20.7668 20.625 19.25 20.625H2.75C1.2332 20.625 0 19.3918 0 17.875V6.875C0 5.3582 1.2332 4.125 2.75 4.125H5.95977L6.40664 2.78438C6.68594 1.94219 7.47227 1.375 8.36172 1.375H13.6383C14.5277 1.375 15.3141 1.94219 15.5934 2.78438ZM11 8.25C9.90598 8.25 8.85677 8.6846 8.08318 9.45818C7.3096 10.2318 6.875 11.281 6.875 12.375C6.875 13.469 7.3096 14.5182 8.08318 15.2918C8.85677 16.0654 9.90598 16.5 11 16.5C12.094 16.5 13.1432 16.0654 13.9168 15.2918C14.6904 14.5182 15.125 13.469 15.125 12.375C15.125 11.281 14.6904 10.2318 13.9168 9.45818C13.1432 8.6846 12.094 8.25 11 8.25Z" fill="#6A82FB"/>
</g>
<defs>
<clipPath id="clip0_101_152458">
<rect width="22" height="22" fill="white" transform="matrix(-1 0 0 1 22 0)"/>
</clipPath>
</defs>
</svg>
