<svg width="56" height="56" viewBox="0 0 56 56" fill="none" xmlns="http://www.w3.org/2000/svg">
<circle cx="28" cy="28" r="27.5" fill="white" stroke="#FAFAFA"/>
<path d="M42.7083 25.0623H41.5V25H28V31H36.4773C35.2405 34.4928 31.9172 37 28 37C23.0297 37 19 32.9702 19 28C19 23.0297 23.0297 19 28 19C30.2943 19 32.3815 19.8655 33.9708 21.2792L38.2135 17.0365C35.5345 14.5397 31.951 13 28 13C19.7162 13 13 19.7162 13 28C13 36.2838 19.7162 43 28 43C36.2838 43 43 36.2838 43 28C43 26.9943 42.8965 26.0125 42.7083 25.0623Z" fill="#FFC107"/>
<path d="M14.7295 21.0182L19.6577 24.6325C20.9912 21.331 24.2207 19 28 19C30.2942 19 32.3815 19.8655 33.9707 21.2792L38.2135 17.0365C35.5345 14.5397 31.951 13 28 13C22.2385 13 17.242 16.2527 14.7295 21.0182Z" fill="#FF3D00"/>
<path d="M27.9997 42.9995C31.8742 42.9995 35.3947 41.5168 38.0565 39.1055L33.414 35.177C31.908 36.3178 30.036 36.9995 27.9997 36.9995C24.0982 36.9995 20.7855 34.5118 19.5375 31.04L14.646 34.8088C17.1285 39.6665 22.17 42.9995 27.9997 42.9995Z" fill="#4CAF50"/>
<path d="M42.7083 25.0623H41.5V25H28V31H36.4773C35.8833 32.6778 34.804 34.1245 33.412 35.1782C33.4127 35.1775 33.4135 35.1775 33.4142 35.1768L38.0568 39.1052C37.7283 39.4037 43 35.5 43 28C43 26.9943 42.8965 26.0125 42.7083 25.0623Z" fill="#1976D2"/>
</svg>
