<svg width="56" height="56" viewBox="0 0 56 56" fill="none" xmlns="http://www.w3.org/2000/svg">
<circle cx="28" cy="28" r="28" fill="#222222"/>
<path fill-rule="evenodd" clip-rule="evenodd" d="M37.759 23.3875C36.4702 21.7816 34.6621 20.8525 32.9553 20.8525C30.6971 20.8525 29.7431 21.9253 28.1765 21.9253C26.5619 21.9253 25.3341 20.8541 23.3809 20.8541C21.4625 20.8541 19.4228 22.0194 18.1297 24.011C16.31 26.8116 16.6182 32.0809 19.5688 36.5712C20.6241 38.1768 22.0334 39.9824 23.8763 39.9996C25.5141 40.0146 25.9775 38.9549 28.1997 38.9424C30.4221 38.9302 30.8425 40.0112 32.4799 39.9959C34.3227 39.9784 35.8096 37.979 36.8643 36.3731C37.6202 35.2228 37.9018 34.6415 38.489 33.3412C34.2231 31.7293 33.5371 25.7016 37.759 23.3875Z" fill="white"/>
<path fill-rule="evenodd" clip-rule="evenodd" d="M31.2421 19.0587C32.0624 18.0062 32.6855 16.5194 32.4593 15C31.1193 15.0925 29.5518 15.9447 28.6368 17.0562C27.8062 18.065 27.1202 19.5609 27.3871 21.015C28.8499 21.0603 30.3637 20.1862 31.2421 19.0587Z" fill="white"/>
</svg>
