<svg width="31" height="30" viewBox="0 0 31 30" fill="none" xmlns="http://www.w3.org/2000/svg">
<path d="M15.5221 5.16365C15.2806 5.15317 15.0453 5.2453 14.8599 5.40692L5.85989 13.2576C5.63237 13.4564 5.50049 13.7507 5.50049 14.0611V24.0053C5.50049 25.1491 6.40782 26.0988 7.50052 26.0988H23.5005C24.5932 26.0988 25.5005 25.1491 25.5005 24.0053V14.0611C25.5004 13.7507 25.369 13.4564 25.1411 13.2576L16.141 5.40692C15.9672 5.25472 15.7488 5.16888 15.5221 5.16365Z" fill="#D2C2F0"/>
<path d="M15.5004 4.84875C14.7729 4.84875 14.0449 5.12284 13.475 5.66858L3.82664 14.8563C3.41728 15.2456 3.3875 15.9088 3.76009 16.3365C4.132 16.765 4.76554 16.7962 5.17418 16.406C8.39087 13.3413 11.6081 10.2769 14.8245 7.21214C15.2132 6.83993 15.7874 6.83993 16.1761 7.21214C19.3926 10.2768 22.6097 13.3415 25.8265 16.406C26.2352 16.7962 26.8686 16.765 27.2405 16.3365C27.6132 15.9088 27.5834 15.2456 27.1741 14.8563L17.5256 5.66858C16.9557 5.12284 16.228 4.84875 15.5004 4.84875Z" fill="#7150AF"/>
<path d="M12.5008 26.0988C12.5008 26.0988 12.5005 20.1739 12.5005 17.7247C12.5005 17.1466 12.9482 16.678 13.5005 16.678H17.5008C18.053 16.6782 18.5005 17.1467 18.5005 17.7247C18.5008 20.1672 18.5008 26.0988 18.5008 26.0988H12.5008Z" fill="#9877D5"/>
</svg>
