<svg width="20" height="20" viewBox="0 0 20 20" fill="none" xmlns="http://www.w3.org/2000/svg">
<path d="M5.82886 12.4162L5.82886 12.4162H5.83351L14.1665 12.4162L14.1711 12.4162C14.8392 12.412 15.5015 12.5406 16.1195 12.7943C16.7375 13.048 17.299 13.422 17.7714 13.8944C18.2438 14.3668 18.6177 14.9283 18.8715 15.5463C19.1252 16.1643 19.2537 16.8265 19.2496 17.4946L19.2495 17.5039L19.2497 17.5131C19.2539 17.7423 19.2119 17.97 19.1262 18.1825L19.8217 18.4631L19.1262 18.1825C19.0404 18.3951 18.9127 18.5882 18.7506 18.7502C18.5886 18.9123 18.3955 19.04 18.1829 19.1258C17.9704 19.2115 17.7427 19.2535 17.5136 19.2493L17.5136 19.2492H17.4997H2.50032V19.249L2.48644 19.2493C2.25728 19.2535 2.02962 19.2115 1.81706 19.1258C1.6045 19.04 1.41142 18.9123 1.24935 18.7502C1.08728 18.5882 0.959558 18.3951 0.873809 18.1825L0.178274 18.4631L0.873809 18.1825C0.788061 17.97 0.746051 17.7423 0.750292 17.5131L0.750463 17.5039L0.750406 17.4946C0.746264 16.8265 0.874794 16.1643 1.12854 15.5463C1.38229 14.9283 1.75621 14.3668 2.22862 13.8944C2.70102 13.422 3.26251 13.048 3.88053 12.7943C4.49854 12.5406 5.16079 12.412 5.82886 12.4162ZM12.3611 8.53336C11.6625 9.00015 10.8412 9.24939 10.001 9.24958C8.87477 9.24589 7.7957 8.79686 6.99932 8.00048C6.2029 7.20406 5.75387 6.12494 5.75021 4.99867C5.75043 4.15853 5.99966 3.3373 6.46643 2.63874C6.9334 1.93986 7.59713 1.39515 8.37368 1.0735C9.15022 0.751842 10.0047 0.667682 10.8291 0.831661C11.6535 0.99564 12.4107 1.40039 13.0051 1.99474C13.5994 2.58908 14.0042 3.34632 14.1681 4.1707C14.3321 4.99508 14.2479 5.84957 13.9263 6.62612C13.6046 7.40266 13.0599 8.06639 12.3611 8.53336Z" stroke="#C2C2C2" stroke-width="1.5"/>
</svg>
