<svg width="22" height="26" viewBox="0 0 22 26" fill="none" xmlns="http://www.w3.org/2000/svg">
<g clip-path="url(#clip0_101_152462)">
<path d="M11 0C10.1308 0 9.42861 0.702232 9.42861 1.57143V2.51429C5.84379 3.24107 3.14289 6.41339 3.14289 10.2143V11.1375C3.14289 13.4455 2.29334 15.675 0.761197 17.4036L0.397804 17.8112C-0.0146956 18.2728 -0.11291 18.9357 0.137537 19.5004C0.387983 20.0652 0.952715 20.4286 1.57147 20.4286H20.4286C21.0474 20.4286 21.6072 20.0652 21.8625 19.5004C22.1179 18.9357 22.0148 18.2728 21.6023 17.8112L21.2389 17.4036C19.7067 15.675 18.8572 13.4504 18.8572 11.1375V10.2143C18.8572 6.41339 16.1563 3.24107 12.5715 2.51429V1.57143C12.5715 0.702232 11.8692 0 11 0ZM13.2246 24.2246C13.8139 23.6353 14.1429 22.8348 14.1429 22H11H7.85718C7.85718 22.8348 8.1862 23.6353 8.77548 24.2246C9.36477 24.8138 10.1652 25.1429 11 25.1429C11.8349 25.1429 12.6353 24.8138 13.2246 24.2246Z" fill="#FFC107"/>
</g>
<defs>
<clipPath id="clip0_101_152462">
<rect width="22" height="25.1429" fill="white"/>
</clipPath>
</defs>
</svg>
