<svg width="21" height="20" viewBox="0 0 21 20" fill="none" xmlns="http://www.w3.org/2000/svg">
<circle cx="10.5" cy="10" r="10" fill="#FEB326"/>
<path d="M13.5886 9.55884H7.41214C6.92483 9.55884 6.52979 9.95388 6.52979 10.4412V13.5294C6.52979 14.0167 6.92483 14.4118 7.41214 14.4118H13.5886C14.0759 14.4118 14.471 14.0167 14.471 13.5294V10.4412C14.471 9.95388 14.0759 9.55884 13.5886 9.55884Z" stroke="white" stroke-linecap="round" stroke-linejoin="round"/>
<path d="M8.29443 9.55875V7.79404C8.29388 7.247 8.49662 6.71928 8.86328 6.31331C9.22993 5.90734 9.73436 5.65209 10.2786 5.59711C10.8229 5.54213 11.3682 5.69135 11.8086 6.0158C12.2491 6.34024 12.5532 6.81677 12.6621 7.35287" stroke="white" stroke-linecap="round" stroke-linejoin="round"/>
</svg>
