<svg width="31" height="30" viewBox="0 0 31 30" fill="none" xmlns="http://www.w3.org/2000/svg">
<path d="M17.3051 23.9448C22.1536 22.918 25.2268 18.0375 24.1692 13.0439C23.1116 8.0504 18.3238 4.83478 13.4753 5.86164C8.62677 6.88851 5.55363 11.769 6.61121 16.7625C7.6688 21.7561 12.4566 24.9717 17.3051 23.9448Z" fill="#D1F4FF"/>
<path opacity="0.3" d="M22.7533 12.5246C22.6382 12.5246 22.5232 12.4479 22.4848 12.3329C22.0246 11.0673 21.2577 9.91686 20.2606 9.03483C20.1455 8.91978 20.1455 8.76638 20.2222 8.61299C20.3373 8.49794 20.4907 8.49794 20.6441 8.57464C21.7178 9.53337 22.5615 10.7605 23.0217 12.1028C23.0601 12.2562 22.9834 12.4096 22.83 12.4863C22.7916 12.5246 22.7533 12.5246 22.7533 12.5246ZM18.8033 7.9994C18.765 7.9994 18.7266 7.9994 18.6499 7.96105C18.4198 7.80765 18.1514 7.73096 17.9213 7.65426C17.7679 7.57756 17.6912 7.42416 17.7679 7.27077C17.8446 7.11737 17.998 7.04067 18.1514 7.11737C18.3815 7.19407 18.6499 7.30912 18.9184 7.46251C19.0718 7.53921 19.1101 7.73096 19.0334 7.846C18.9951 7.9227 18.9184 7.9994 18.8033 7.9994Z" fill="white"/>
<path d="M16.234 7.61584C16.234 9.18816 14.9685 10.4537 13.3962 10.4537C11.8239 10.4537 10.5584 9.18816 10.5584 7.61584C10.5584 7.4241 10.5967 7.23235 10.5967 7.0406C11.4404 6.50372 12.4375 6.08188 13.4729 5.85178C14.1248 5.69838 14.8151 5.66003 15.4671 5.66003C15.9272 6.19692 16.234 6.84886 16.234 7.61584ZM23.8272 18.1235C23.6738 18.1619 23.5204 18.1619 23.367 18.1619C22.2165 18.1619 21.2961 17.2415 21.2961 16.091C21.2961 14.9405 22.2165 14.0202 23.367 14.0202C23.7121 14.0202 24.0573 14.0969 24.3257 14.2503C24.4408 15.5925 24.2874 16.8963 23.8272 18.1235ZM20.1073 18.4687C20.1073 19.7725 19.0335 20.808 17.768 20.808C16.4641 20.808 15.4287 19.7342 15.4287 18.4687C15.4287 17.1648 16.5025 16.1294 17.768 16.1294C19.0719 16.091 20.1073 17.1648 20.1073 18.4687ZM9.44624 11.5275C9.44624 12.4862 8.67925 13.2532 7.72052 13.2532C7.29868 13.2532 6.91519 13.0998 6.6084 12.8313C6.83849 11.7576 7.26033 10.7221 7.83557 9.80175C8.75595 9.8401 9.44624 10.6071 9.44624 11.5275ZM19.4937 10.4537C19.4937 11.0673 18.9952 11.5658 18.3816 11.5658C17.768 11.5658 17.2695 11.0673 17.2695 10.4537C17.2695 9.8401 17.768 9.34156 18.3816 9.34156C18.9952 9.34156 19.4937 9.8401 19.4937 10.4537Z" fill="#A6CDDD"/>
<path d="M14.1629 15.1707C15.0949 15.1707 15.8503 14.4153 15.8503 13.4834C15.8503 12.5515 15.0949 11.796 14.1629 11.796C13.231 11.796 12.4756 12.5515 12.4756 13.4834C12.4756 14.4153 13.231 15.1707 14.1629 15.1707Z" fill="#A6CDDD"/>
<path opacity="0.1" d="M22.4851 20.6162C21.8715 21.4599 21.1045 22.1502 20.2225 22.7254C18.2284 22.4953 16.0041 21.9201 13.8182 21.1147C11.0954 20.0793 8.56436 18.7371 6.76195 17.2415C6.7236 17.0497 6.68525 16.8963 6.6469 16.7046C6.45516 15.7075 6.37846 14.7488 6.49351 13.79C6.68525 14.0201 6.877 14.2502 7.10709 14.4803C7.26049 14.6721 7.45224 14.8255 7.64398 14.9789C9.33135 16.4745 11.824 17.8551 14.6235 18.9288C17.423 19.9643 20.2225 20.5395 22.4851 20.5011V20.6162Z" fill="#222222"/>
<path d="M27.2015 19.3124C27.0098 19.8493 26.6263 20.3095 26.1278 20.6547C25.6292 20.9998 24.9389 21.2683 24.172 21.46C23.5584 21.575 22.8681 21.6517 22.1011 21.6517C21.9477 21.6517 21.7943 21.6517 21.6026 21.6517C19.2249 21.6134 16.3871 20.9998 13.5109 19.926C10.7881 18.929 8.33375 17.5867 6.49299 16.1295C6.2629 15.9761 6.07115 15.7843 5.8794 15.6309C3.80855 13.7902 3.00321 11.9878 3.5401 10.4921C4.07699 8.99651 5.91775 8.15283 8.67889 8.15283C8.83229 8.15283 8.98569 8.15283 9.17743 8.15283C8.64054 8.65137 8.18036 9.22661 7.79686 9.87855C7.49007 9.91689 7.18328 9.95524 6.91483 9.99359C5.9561 10.1853 5.30417 10.5688 5.11242 11.0674C4.88232 11.7193 5.34252 12.7547 6.41629 13.8285C6.56969 14.0203 6.76144 14.1737 6.99153 14.3654C8.71724 15.8994 11.2099 17.3183 14.0478 18.3537C16.8856 19.4275 19.7235 20.0027 22.0244 19.9644C22.3312 19.9644 22.638 19.926 22.9448 19.926C24.4021 19.7726 25.3608 19.3508 25.6292 18.6989C25.7059 18.5071 25.7059 18.277 25.6676 18.0086C25.5525 17.4333 25.0923 16.7047 24.3254 15.9377C24.4021 15.2091 24.4021 14.4421 24.287 13.6751C24.5171 13.8285 24.7089 14.0203 24.9006 14.1737C26.9331 16.0144 27.7768 17.8168 27.2015 19.3124Z" fill="#608C9E"/>
</svg>
