<svg width="30" height="30" viewBox="0 0 30 30" fill="none" xmlns="http://www.w3.org/2000/svg">
<path fill-rule="evenodd" clip-rule="evenodd" d="M17.75 21.875V8.125C17.75 7.74516 17.4423 7.4375 17.0625 7.4375H12.9375C12.5577 7.4375 12.25 7.74516 12.25 8.125V21.875C12.25 22.2548 12.5577 22.5625 12.9375 22.5625H17.0625C17.4423 22.5625 17.75 22.2548 17.75 21.875Z" fill="#EAEAEA"/>
<path fill-rule="evenodd" clip-rule="evenodd" d="M15.6875 15.6875H22.5625C22.942 15.6875 23.25 15.3795 23.25 15C23.25 14.6205 22.942 14.3125 22.5625 14.3125H15.6875C15.308 14.3125 15 14.6205 15 15C15 15.3795 15.308 15.6875 15.6875 15.6875Z" fill="#364F6B"/>
<path fill-rule="evenodd" clip-rule="evenodd" d="M21.5905 14.9999L20.3578 13.7672C20.0893 13.4991 20.0893 13.0632 20.3578 12.7951C20.6259 12.5266 21.0618 12.5266 21.3299 12.7951L23.0486 14.5139C23.3171 14.7823 23.3171 15.2175 23.0486 15.486L21.3299 17.2047C21.0618 17.4732 20.6259 17.4732 20.3578 17.2047C20.0893 16.9366 20.0893 16.5007 20.3578 16.2326L21.5905 14.9999Z" fill="#364F6B"/>
<path fill-rule="evenodd" clip-rule="evenodd" d="M7.19619 7.48115C6.92772 7.58187 6.75 7.83831 6.75 8.125V21.875C6.75 22.1617 6.92772 22.4181 7.19619 22.5188L12.6962 24.5813C12.9072 24.6604 13.1438 24.6308 13.329 24.5026C13.5143 24.3741 13.625 24.163 13.625 23.9375V6.0625C13.625 5.837 13.5143 5.62593 13.329 5.49737C13.1438 5.36915 12.9072 5.33959 12.6962 5.41865L7.19619 7.48115Z" fill="#3FC1C9"/>
<path fill-rule="evenodd" clip-rule="evenodd" d="M10.875 14.3125H10.1875C9.808 14.3125 9.5 14.6205 9.5 15C9.5 15.3795 9.808 15.6875 10.1875 15.6875H10.875C11.2545 15.6875 11.5625 15.3795 11.5625 15C11.5625 14.6205 11.2545 14.3125 10.875 14.3125Z" fill="#364F6B"/>
</svg>
