<svg width="185" height="139" viewBox="0 0 185 139" fill="none" xmlns="http://www.w3.org/2000/svg">
<g style="mix-blend-mode:multiply">
<path d="M79.9595 74.9592H92.225L92.4493 75.6925H80.415L79.9595 74.9592Z" fill="#DDE2F8"/>
</g>
<path d="M144.912 104.33C144.912 103.519 139.229 102.866 132.219 102.866C125.21 102.866 119.527 103.521 119.527 104.33C119.527 105.138 125.209 105.795 132.219 105.795C139.23 105.795 144.912 105.14 144.912 104.33ZM50.8021 108.527C50.8021 107.573 42.1996 106.801 31.5887 106.801C20.9778 106.801 12.3718 107.573 12.3718 108.527C12.3718 109.48 20.9732 110.253 31.5841 110.253C42.195 110.253 50.8021 109.48 50.8021 108.527ZM173.842 110.534C173.842 109.723 168.159 109.07 161.15 109.07C154.141 109.07 148.462 109.725 148.462 110.534C148.462 111.343 154.144 111.998 161.155 111.998C168.165 111.998 173.842 111.344 173.842 110.534Z" fill="#E9EFFF"/>
<path d="M116.944 87.6477C121.071 86.2102 121.826 82.1861 119.479 77.5991C116.014 79.6424 113.616 84.2167 116.944 87.6477Z" fill="#DDE2F8"/>
<path d="M71.7766 73.9098V105.116C71.7766 106.1 73.6266 106.898 75.909 106.898H113.701C114.12 106.897 114.521 106.73 114.816 106.433C115.112 106.136 115.278 105.734 115.278 105.315V77.2759C115.278 76.8558 115.112 76.453 114.815 76.1558C114.519 75.8587 114.117 75.6916 113.698 75.6913H75.909C73.6266 75.6913 71.7766 74.8944 71.7766 73.9098Z" fill="#5652CC"/>
<path d="M71.7766 73.9099C71.7766 74.8945 73.6266 75.6914 75.909 75.6914H112.014V73.7118C112.014 73.2917 111.848 72.8889 111.551 72.5917C111.255 72.2946 110.853 72.1275 110.434 72.1272H75.909C73.6266 72.1272 71.7766 72.9253 71.7766 73.9099Z" fill="#222222"/>
<path d="M109.313 74.2261H75.9067C74.5354 74.2261 73.3202 74.5157 72.5686 74.9581C73.319 75.4029 74.5342 75.6914 75.9067 75.6914H110.884C110.855 75.2938 110.676 74.9221 110.385 74.6505C110.094 74.3789 109.711 74.2273 109.313 74.2261Z" fill="#362E94"/>
<path d="M115.278 84.1669V86.7384C116.319 86.7384 117.167 86.3156 117.167 85.7932C117.167 85.2708 116.324 84.8005 115.278 84.1669Z" fill="#222222"/>
<path d="M115.278 86.7384H108.307C107.019 86.7582 105.791 87.2846 104.888 88.2038C103.984 89.123 103.478 90.3614 103.478 91.6515C103.478 92.9416 103.984 94.18 104.888 95.0992C105.791 96.0184 107.019 96.5448 108.307 96.5646H115.278C116.319 96.5646 117.167 96.1406 117.167 95.6182V85.7932C117.171 86.3156 116.324 86.7384 115.278 86.7384Z" fill="#807DFB"/>
<g style="mix-blend-mode:multiply">
<path d="M106.316 92.127C106.316 91.6383 106.461 91.1606 106.732 90.7543C107.003 90.348 107.388 90.0313 107.839 89.8443C108.289 89.6573 108.785 89.6084 109.264 89.7037C109.742 89.7991 110.181 90.0344 110.526 90.3799C110.871 90.7254 111.106 91.1657 111.201 91.645C111.297 92.1242 111.248 92.621 111.061 93.0725C110.874 93.5239 110.558 93.9098 110.153 94.1813C109.747 94.4528 109.27 94.5977 108.782 94.5977C108.459 94.5977 108.138 94.5338 107.839 94.4096C107.539 94.2855 107.268 94.1035 107.039 93.874C106.81 93.6446 106.628 93.3722 106.504 93.0725C106.38 92.7727 106.316 92.4514 106.316 92.127Z" fill="#C4CAE9"/>
</g>
<path d="M105.841 91.6521C105.841 91.1633 105.985 90.6855 106.256 90.2791C106.527 89.8726 106.912 89.5558 107.362 89.3686C107.813 89.1814 108.309 89.1323 108.788 89.2275C109.266 89.3227 109.706 89.5579 110.051 89.9034C110.396 90.2489 110.631 90.6892 110.726 91.1685C110.821 91.6478 110.772 92.1446 110.586 92.5961C110.399 93.0477 110.083 93.4336 109.677 93.7051C109.272 93.9767 108.795 94.1216 108.307 94.1216C107.653 94.1213 107.026 93.8611 106.564 93.398C106.102 92.935 105.841 92.307 105.841 91.6521Z" fill="#E9EDF7"/>
<path d="M106.496 91.2442C106.301 91.0473 106.457 90.5747 106.843 90.1867C107.229 89.7986 107.704 89.6423 107.899 89.8392C108.094 90.0361 107.641 90.211 107.255 90.5991C106.869 90.9871 106.693 91.44 106.496 91.2442Z" fill="white"/>
<path d="M112.708 79.098H110.885C110.766 79.098 110.653 79.051 110.57 78.9674C110.486 78.8837 110.439 78.7703 110.439 78.652C110.439 78.5337 110.486 78.4203 110.57 78.3367C110.653 78.253 110.766 78.2061 110.885 78.2061H112.708C112.826 78.2061 112.939 78.253 113.023 78.3367C113.106 78.4203 113.153 78.5337 113.153 78.652C113.153 78.7703 113.106 78.8837 113.023 78.9674C112.939 79.051 112.826 79.098 112.708 79.098ZM108.148 79.098H106.324C106.206 79.098 106.093 79.051 106.01 78.9674C105.926 78.8837 105.879 78.7703 105.879 78.652C105.879 78.5337 105.926 78.4203 106.01 78.3367C106.093 78.253 106.206 78.2061 106.324 78.2061H108.148C108.266 78.2061 108.379 78.253 108.462 78.3367C108.546 78.4203 108.593 78.5337 108.593 78.652C108.593 78.7703 108.546 78.8837 108.462 78.9674C108.379 79.051 108.266 79.098 108.148 79.098ZM103.589 79.098H101.764C101.646 79.098 101.533 79.051 101.449 78.9674C101.366 78.8837 101.319 78.7703 101.319 78.652C101.319 78.5337 101.366 78.4203 101.449 78.3367C101.533 78.253 101.646 78.2061 101.764 78.2061H103.589C103.707 78.2061 103.82 78.253 103.903 78.3367C103.987 78.4203 104.034 78.5337 104.034 78.652C104.034 78.7703 103.987 78.8837 103.903 78.9674C103.82 79.051 103.707 79.098 103.589 79.098ZM99.0284 79.098H97.2038C97.0857 79.098 96.9725 79.051 96.889 78.9674C96.8055 78.8837 96.7586 78.7703 96.7586 78.652C96.7586 78.5337 96.8055 78.4203 96.889 78.3367C96.9725 78.253 97.0857 78.2061 97.2038 78.2061H99.0284C99.1464 78.2061 99.2596 78.253 99.3431 78.3367C99.4266 78.4203 99.4735 78.5337 99.4735 78.652C99.4735 78.7703 99.4266 78.8837 99.3431 78.9674C99.2596 79.051 99.1464 79.098 99.0284 79.098ZM94.4681 79.098H92.6435C92.5255 79.098 92.4123 79.051 92.3288 78.9674C92.2453 78.8837 92.1984 78.7703 92.1984 78.652C92.1984 78.5337 92.2453 78.4203 92.3288 78.3367C92.4123 78.253 92.5255 78.2061 92.6435 78.2061H94.4658C94.5839 78.2061 94.6971 78.253 94.7806 78.3367C94.864 78.4203 94.9109 78.5337 94.9109 78.652C94.9109 78.7703 94.864 78.8837 94.7806 78.9674C94.6971 79.051 94.5839 79.098 94.4658 79.098H94.4681ZM89.9079 79.098H88.0844C87.9664 79.098 87.8532 79.051 87.7697 78.9674C87.6862 78.8837 87.6393 78.7703 87.6393 78.652C87.6393 78.5337 87.6862 78.4203 87.7697 78.3367C87.8532 78.253 87.9664 78.2061 88.0844 78.2061H89.9079C90.0259 78.2061 90.1391 78.253 90.2226 78.3367C90.3061 78.4203 90.353 78.5337 90.353 78.652C90.353 78.7703 90.3061 78.8837 90.2226 78.9674C90.1391 79.051 90.0259 79.098 89.9079 79.098ZM85.3476 79.098H83.5242C83.4061 79.098 83.2929 79.051 83.2094 78.9674C83.1259 78.8837 83.079 78.7703 83.079 78.652C83.079 78.5337 83.1259 78.4203 83.2094 78.3367C83.2929 78.253 83.4061 78.2061 83.5242 78.2061H85.3476C85.4657 78.2061 85.5789 78.253 85.6624 78.3367C85.7459 78.4203 85.7928 78.5337 85.7928 78.652C85.7928 78.7703 85.7459 78.8837 85.6624 78.9674C85.5789 79.051 85.4657 79.098 85.3476 79.098ZM80.7874 79.098H78.9639C78.8459 79.098 78.7327 79.051 78.6492 78.9674C78.5657 78.8837 78.5188 78.7703 78.5188 78.652C78.5188 78.5337 78.5657 78.4203 78.6492 78.3367C78.7327 78.253 78.8459 78.2061 78.9639 78.2061H80.7874C80.9054 78.2061 81.0186 78.253 81.1021 78.3367C81.1856 78.4203 81.2325 78.5337 81.2325 78.652C81.2325 78.7703 81.1856 78.8837 81.1021 78.9674C81.0186 79.051 80.9054 79.098 80.7874 79.098ZM76.2283 79.098H76.0294C75.9113 79.098 75.7981 79.051 75.7146 78.9674C75.6311 78.8837 75.5842 78.7703 75.5842 78.652C75.5842 78.5337 75.6311 78.4203 75.7146 78.3367C75.7981 78.253 75.9113 78.2061 76.0294 78.2061H76.2283C76.3463 78.2061 76.4595 78.253 76.543 78.3367C76.6265 78.4203 76.6734 78.5337 76.6734 78.652C76.6734 78.7703 76.6265 78.8837 76.543 78.9674C76.4595 79.051 76.3463 79.098 76.2283 79.098ZM112.708 104.384H110.885C110.824 104.387 110.764 104.378 110.707 104.357C110.65 104.336 110.598 104.304 110.554 104.262C110.511 104.22 110.476 104.17 110.452 104.114C110.428 104.058 110.416 103.998 110.416 103.938C110.416 103.877 110.428 103.817 110.452 103.762C110.476 103.706 110.511 103.656 110.554 103.614C110.598 103.572 110.65 103.54 110.707 103.519C110.764 103.497 110.824 103.488 110.885 103.491H112.708C112.822 103.497 112.93 103.547 113.009 103.63C113.088 103.713 113.132 103.823 113.132 103.938C113.132 104.052 113.088 104.163 113.009 104.246C112.93 104.329 112.822 104.379 112.708 104.384ZM108.148 104.384H106.324C106.21 104.379 106.102 104.329 106.023 104.246C105.945 104.163 105.901 104.052 105.901 103.938C105.901 103.823 105.945 103.713 106.023 103.63C106.102 103.547 106.21 103.497 106.324 103.491H108.148C108.208 103.488 108.269 103.497 108.325 103.519C108.382 103.54 108.434 103.572 108.478 103.614C108.522 103.656 108.557 103.706 108.581 103.762C108.604 103.817 108.617 103.877 108.617 103.938C108.617 103.998 108.604 104.058 108.581 104.114C108.557 104.17 108.522 104.22 108.478 104.262C108.434 104.304 108.382 104.336 108.325 104.357C108.269 104.378 108.208 104.387 108.148 104.384ZM103.589 104.384H101.764C101.65 104.379 101.542 104.329 101.463 104.246C101.384 104.163 101.34 104.052 101.34 103.938C101.34 103.823 101.384 103.713 101.463 103.63C101.542 103.547 101.65 103.497 101.764 103.491H103.589C103.703 103.497 103.811 103.547 103.889 103.63C103.968 103.713 104.012 103.823 104.012 103.938C104.012 104.052 103.968 104.163 103.889 104.246C103.811 104.329 103.703 104.379 103.589 104.384ZM99.0284 104.384H97.2038C97.0895 104.379 96.9818 104.329 96.903 104.246C96.8241 104.163 96.7802 104.052 96.7802 103.938C96.7802 103.823 96.8241 103.713 96.903 103.63C96.9818 103.547 97.0895 103.497 97.2038 103.491H99.0284C99.1426 103.497 99.2503 103.547 99.3292 103.63C99.408 103.713 99.452 103.823 99.452 103.938C99.452 104.052 99.408 104.163 99.3292 104.246C99.2503 104.329 99.1426 104.379 99.0284 104.384ZM94.4681 104.384H92.6435C92.5292 104.379 92.4216 104.329 92.3427 104.246C92.2639 104.163 92.2199 104.052 92.2199 103.938C92.2199 103.823 92.2639 103.713 92.3427 103.63C92.4216 103.547 92.5292 103.497 92.6435 103.491H94.4658C94.5801 103.497 94.6878 103.547 94.7666 103.63C94.8454 103.713 94.8894 103.823 94.8894 103.938C94.8894 104.052 94.8454 104.163 94.7666 104.246C94.6878 104.329 94.5801 104.379 94.4658 104.384H94.4681ZM89.9079 104.384H88.0844C88.024 104.387 87.9636 104.378 87.9068 104.357C87.85 104.336 87.7982 104.304 87.7543 104.262C87.7104 104.22 87.6755 104.17 87.6516 104.114C87.6277 104.058 87.6154 103.998 87.6154 103.938C87.6154 103.877 87.6277 103.817 87.6516 103.762C87.6755 103.706 87.7104 103.656 87.7543 103.614C87.7982 103.572 87.85 103.54 87.9068 103.519C87.9636 103.497 88.024 103.488 88.0844 103.491H89.9079C90.0221 103.497 90.1298 103.547 90.2087 103.63C90.2875 103.713 90.3315 103.823 90.3315 103.938C90.3315 104.052 90.2875 104.163 90.2087 104.246C90.1298 104.329 90.0221 104.379 89.9079 104.384ZM85.3476 104.384H83.5242C83.4099 104.379 83.3022 104.329 83.2234 104.246C83.1445 104.163 83.1006 104.052 83.1006 103.938C83.1006 103.823 83.1445 103.713 83.2234 103.63C83.3022 103.547 83.4099 103.497 83.5242 103.491H85.3476C85.4619 103.497 85.5696 103.547 85.6484 103.63C85.7272 103.713 85.7712 103.823 85.7712 103.938C85.7712 104.052 85.7272 104.163 85.6484 104.246C85.5696 104.329 85.4619 104.379 85.3476 104.384ZM80.7874 104.384H78.9639C78.8497 104.379 78.742 104.329 78.6631 104.246C78.5843 104.163 78.5403 104.052 78.5403 103.938C78.5403 103.823 78.5843 103.713 78.6631 103.63C78.742 103.547 78.8497 103.497 78.9639 103.491H80.7874C80.8478 103.488 80.9082 103.497 80.965 103.519C81.0218 103.54 81.0736 103.572 81.1175 103.614C81.1614 103.656 81.1963 103.706 81.2202 103.762C81.2441 103.817 81.2564 103.877 81.2564 103.938C81.2564 103.998 81.2441 104.058 81.2202 104.114C81.1963 104.17 81.1614 104.22 81.1175 104.262C81.0736 104.304 81.0218 104.336 80.965 104.357C80.9082 104.378 80.8478 104.387 80.7874 104.384ZM76.2283 104.384H76.0294C75.9151 104.379 75.8074 104.329 75.7286 104.246C75.6497 104.163 75.6058 104.052 75.6058 103.938C75.6058 103.823 75.6497 103.713 75.7286 103.63C75.8074 103.547 75.9151 103.497 76.0294 103.491H76.2283C76.3426 103.497 76.4502 103.547 76.5291 103.63C76.6079 103.713 76.6519 103.823 76.6519 103.938C76.6519 104.052 76.6079 104.163 76.5291 104.246C76.4502 104.329 76.3426 104.379 76.2283 104.384Z" fill="#FFD03E"/>
<mask id="mask0_116_40820" style="mask-type:luminance" maskUnits="userSpaceOnUse" x="72" y="24" width="56" height="52">
<path d="M127.383 24.4536H72.3569V75.6913H127.383V24.4536Z" fill="white"/>
</mask>
<g mask="url(#mask0_116_40820)">
<path d="M93.3608 47.1756L78.8528 92.2012L100.182 99.0986L114.69 54.073L93.3608 47.1756Z" fill="#5652CC"/>
<path d="M107.808 53.5382L99.2756 50.7791C98.2431 53.9818 95.2229 55.8757 92.5312 55.0012L82.7412 85.3692C85.4341 86.2403 86.78 89.5392 85.7475 92.7455L94.2794 95.5046C95.312 92.3018 98.3263 90.408 101.024 91.2825L110.813 60.9098C108.121 60.0446 106.774 56.741 107.808 53.5382Z" fill="white"/>
<path d="M94.6551 79.727C93.3556 79.3063 92.2098 78.5091 91.3625 77.4361C90.5153 76.363 90.0046 75.0624 89.8952 73.6987C89.7858 72.3349 90.0826 70.9693 90.7479 69.7745C91.4132 68.5797 92.4172 67.6093 93.633 66.9862C94.8488 66.363 96.2218 66.115 97.5782 66.2735C98.9347 66.432 100.214 66.99 101.254 67.8767C102.294 68.7635 103.048 69.9393 103.421 71.2555C103.794 72.5716 103.769 73.969 103.349 75.2709C103.07 76.1355 102.624 76.9366 102.037 77.6285C101.449 78.3203 100.731 78.8894 99.9236 79.3033C99.1162 79.7171 98.2354 79.9675 97.3314 80.0402C96.4275 80.1129 95.518 80.0065 94.6551 79.727Z" fill="#E9EDF7"/>
<path d="M96.2368 74.2677C95.9477 74.5015 95.6048 74.6593 95.2394 74.7269C94.8739 74.7945 94.4975 74.7696 94.144 74.6546C93.7841 74.5541 93.4492 74.3789 93.1612 74.1403C92.4571 74.1496 92.4848 73.0503 92.5449 71.9036C92.5808 71.2086 92.723 68.7228 94.003 70.4267C94.2959 70.3096 94.6103 70.2558 94.9254 70.2688C95.2406 70.2817 95.5495 70.3611 95.8319 70.5018C96.1143 70.6425 96.3639 70.8413 96.5644 71.0853C96.7649 71.3292 96.9117 71.6128 96.9953 71.9175C98.2522 69.8858 99.8756 70.2622 101.701 70.8518L99.4373 77.8887C97.6082 77.2979 96.0993 76.5659 96.2368 74.2677Z" fill="#BBC0E6"/>
<path d="M99.2673 65.7506C99.2328 65.7508 99.1984 65.7453 99.1656 65.7343C99.0813 65.7072 99.0112 65.6477 98.9707 65.5689C98.9301 65.4901 98.9225 65.3983 98.9494 65.3139L101.206 58.3129C101.234 58.2284 101.293 58.1583 101.372 58.1178C101.451 58.0774 101.543 58.0701 101.627 58.0974C101.712 58.1248 101.782 58.1846 101.822 58.2636C101.862 58.3427 101.87 58.4346 101.842 58.5191L99.5853 65.5189C99.5635 65.5862 99.5211 65.6449 99.4639 65.6865C99.4068 65.7281 99.338 65.7506 99.2673 65.7506ZM97.4717 63.4767C97.4368 63.4769 97.4021 63.4719 97.3688 63.4617C97.327 63.4482 97.2883 63.4265 97.2549 63.398C97.2215 63.3695 97.194 63.3347 97.174 63.2955C97.1541 63.2563 97.142 63.2136 97.1385 63.1698C97.135 63.126 97.1402 63.0819 97.1537 63.04L98.4256 59.1017C98.4388 59.0598 98.4602 59.021 98.4886 58.9875C98.5169 58.9539 98.5516 58.9263 98.5906 58.9063C98.6296 58.8863 98.6722 58.8742 98.7159 58.8707C98.7597 58.8673 98.8036 58.8726 98.8453 58.8863C98.9297 58.9136 98.9998 58.9733 99.0403 59.0524C99.0808 59.1314 99.0885 59.2233 99.0615 59.3079L97.7896 63.2462C97.7677 63.3133 97.7251 63.3718 97.668 63.4132C97.6109 63.4546 97.5422 63.4768 97.4717 63.4767ZM102.047 64.9582C102.012 64.9585 101.977 64.9531 101.944 64.942C101.902 64.9286 101.864 64.9071 101.83 64.8787C101.797 64.8503 101.769 64.8156 101.749 64.7765C101.729 64.7375 101.717 64.6948 101.714 64.6511C101.71 64.6073 101.715 64.5633 101.729 64.5216L103.001 60.5832C103.028 60.4987 103.088 60.4286 103.167 60.3882C103.246 60.3478 103.337 60.3404 103.422 60.3678C103.506 60.3951 103.576 60.4549 103.616 60.534C103.657 60.613 103.664 60.7049 103.637 60.7894L102.365 64.7277C102.343 64.7949 102.3 64.8533 102.243 64.8947C102.186 64.9361 102.117 64.9583 102.047 64.9582Z" fill="#5652CC"/>
</g>
<mask id="mask1_116_40820" style="mask-type:luminance" maskUnits="userSpaceOnUse" x="69" y="42" width="44" height="34">
<path d="M112.139 42.0405H69.8293L75.2105 75.6924H112.139V42.0405Z" fill="white"/>
</mask>
<g mask="url(#mask1_116_40820)">
<path d="M95.196 45.7611L73.0271 49.0643L79.9753 95.8628L102.144 92.5595L95.196 45.7611Z" fill="#807DFB"/>
<path d="M88.7814 48.3407L79.913 49.6612C80.4078 52.9914 78.5393 56.032 75.7412 56.4456L80.4275 88.0136C83.2256 87.5966 85.8954 89.9573 86.3903 93.2875L95.2576 91.9716C94.7627 88.6414 96.6312 85.6008 99.4293 85.1873L94.7442 53.6134C91.9449 54.0304 89.2751 51.6697 88.7814 48.3407Z" fill="white"/>
<path d="M88.6012 77.6558C87.2504 77.857 85.8704 77.6523 84.6356 77.0678C83.4009 76.4832 82.3669 75.545 81.6645 74.3717C80.962 73.1985 80.6226 71.8429 80.6891 70.4764C80.7556 69.1099 81.2252 67.7939 82.0383 66.6947C82.8514 65.5955 83.9716 64.7625 85.2573 64.3011C86.5429 63.8397 87.9363 63.7706 89.2611 64.1025C90.586 64.4344 91.7829 65.1524 92.7004 66.1657C93.618 67.179 94.215 68.4422 94.416 69.7954C94.5494 70.694 94.5049 71.6102 94.2849 72.4916C94.0649 73.3729 93.6738 74.2023 93.1338 74.9322C92.5938 75.6621 91.9156 76.2783 91.1379 76.7457C90.3602 77.213 89.4982 77.5223 88.6012 77.6558Z" fill="#E9EDF7"/>
<path d="M87.5997 72.0599C87.4702 73.114 85.1091 73.4036 84.7865 73.3144C84.1598 73.6364 83.6973 72.6391 83.2429 71.5838C82.9666 70.9444 81.9942 68.6544 83.8951 69.6147C84.2315 69.2382 86.4215 68.4969 87.2366 69.6147C87.4679 67.2354 89.0866 66.8509 90.9817 66.5682L92.0674 73.882C90.1712 74.1657 88.4935 74.182 87.5997 72.0599Z" fill="#BBC0E6"/>
<path d="M89.858 86.4568C89.778 86.4566 89.7007 86.4278 89.64 86.3756C89.5794 86.3233 89.5394 86.2511 89.5273 86.1719L88.4531 78.8952C88.4401 78.8074 88.4624 78.7179 88.5152 78.6465C88.568 78.5752 88.647 78.5278 88.7347 78.5147C88.8224 78.5017 88.9117 78.524 88.9829 78.5769C89.0541 78.6298 89.1015 78.7089 89.1145 78.7968L90.1875 86.0734C90.2001 86.1611 90.1777 86.2501 90.125 86.3213C90.0724 86.3924 89.9939 86.4399 89.9065 86.4533L89.858 86.4568ZM87.246 85.2197C87.166 85.2195 87.0887 85.1904 87.0282 85.1379C86.9677 85.0854 86.9281 85.0129 86.9165 84.9336L86.3083 80.8412C86.2952 80.7534 86.3176 80.6639 86.3704 80.5925C86.4232 80.5212 86.5021 80.4738 86.5898 80.4607C86.6775 80.4477 86.7668 80.47 86.838 80.5229C86.9093 80.5758 86.9566 80.6549 86.9696 80.7428L87.5767 84.8352C87.5832 84.8787 87.5812 84.923 87.5706 84.9658C87.56 85.0085 87.5412 85.0487 87.5151 85.0841C87.489 85.1195 87.4562 85.1493 87.4185 85.172C87.3809 85.1947 87.3391 85.2097 87.2957 85.2162C87.2792 85.2186 87.2626 85.2197 87.246 85.2197ZM91.997 84.5108C91.917 84.5109 91.8396 84.4821 91.7789 84.4299C91.7182 84.3776 91.6782 84.3052 91.6663 84.2259L91.0593 80.1335C91.0509 80.048 91.0756 79.9625 91.1284 79.8948C91.1811 79.827 91.2578 79.7822 91.3426 79.7695C91.4275 79.7569 91.5139 79.7774 91.5841 79.8268C91.6542 79.8762 91.7027 79.9508 91.7195 80.035L92.3277 84.1274C92.3341 84.1709 92.3319 84.2153 92.3211 84.2579C92.3104 84.3005 92.2914 84.3407 92.2652 84.3759C92.239 84.4112 92.2061 84.441 92.1685 84.4635C92.1308 84.4861 92.089 84.501 92.0456 84.5073C92.0296 84.5102 92.0133 84.5114 91.997 84.5108ZM86.3927 63.1164C86.3126 63.1164 86.2352 63.0875 86.1747 63.0349C86.1141 62.9824 86.0745 62.9097 86.0631 62.8303L84.9844 55.5548C84.9713 55.4669 84.9937 55.3775 85.0465 55.3061C85.0993 55.2348 85.1782 55.1874 85.2659 55.1743C85.3536 55.1612 85.4429 55.1836 85.5141 55.2365C85.5854 55.2894 85.6327 55.3685 85.6457 55.4563L86.7187 62.7318C86.7253 62.7753 86.7232 62.8196 86.7126 62.8622C86.702 62.9049 86.6832 62.945 86.6571 62.9803C86.6309 63.0156 86.5981 63.0454 86.5605 63.0679C86.5229 63.0905 86.4812 63.1054 86.4378 63.1118C86.4229 63.1147 86.4078 63.1162 86.3927 63.1164ZM83.7807 61.8781C83.7008 61.8782 83.6235 61.8494 83.563 61.7971C83.5025 61.7448 83.4628 61.6724 83.4512 61.5932L82.843 57.5008C82.8365 57.4573 82.8387 57.4129 82.8494 57.3703C82.86 57.3276 82.879 57.2875 82.9051 57.2521C82.9312 57.2168 82.9641 57.187 83.0017 57.1643C83.0394 57.1417 83.0811 57.1268 83.1245 57.1203C83.168 57.1138 83.2122 57.116 83.2548 57.1267C83.2974 57.1373 83.3375 57.1563 83.3728 57.1825C83.408 57.2087 83.4378 57.2416 83.4604 57.2793C83.483 57.317 83.4979 57.3588 83.5044 57.4023L84.1114 61.4947C84.118 61.5382 84.1159 61.5825 84.1053 61.6251C84.0947 61.6678 84.0758 61.7079 84.0497 61.7432C84.0236 61.7785 83.9908 61.8083 83.9532 61.8308C83.9155 61.8534 83.8738 61.8683 83.8304 61.8747L83.7807 61.8781ZM88.5317 61.1704C88.4518 61.1702 88.3745 61.1414 88.3138 61.0892C88.2532 61.0369 88.2132 60.9647 88.2011 60.8855L87.594 56.7919C87.5876 56.7484 87.5897 56.704 87.6004 56.6614C87.611 56.6187 87.63 56.5786 87.6561 56.5432C87.6823 56.5079 87.7151 56.4781 87.7528 56.4554C87.7904 56.4328 87.8321 56.4179 87.8756 56.4114C87.919 56.4049 87.9633 56.4071 88.0059 56.4178C88.0484 56.4284 88.0885 56.4474 88.1238 56.4736C88.1591 56.4998 88.1888 56.5327 88.2114 56.5704C88.234 56.6081 88.2489 56.6499 88.2554 56.6934L88.8624 60.787C88.875 60.8746 88.8526 60.9637 88.8 61.0349C88.7474 61.106 88.6688 61.1535 88.5815 61.1669L88.5317 61.1704Z" fill="#807DFB"/>
</g>
<path d="M78.122 107.285C76.2003 106.16 73.0842 106.16 71.1764 107.285C70.2271 107.844 69.7519 108.578 69.7507 109.312V110.981C69.7507 110.246 70.2283 109.512 71.1775 108.953C73.0854 107.828 76.2014 107.828 78.1231 108.953C79.0898 109.519 79.5731 110.265 79.5708 111.009C79.5708 110.508 79.5708 109.841 79.5708 109.341C79.5719 108.597 79.0875 107.851 78.122 107.285Z" fill="#E19100"/>
<path d="M78.1222 107.841C80.0439 108.967 80.0543 110.797 78.1465 111.922C76.2387 113.046 73.1191 113.048 71.1974 111.922C69.2757 110.796 69.2676 108.967 71.1766 107.841C73.0856 106.715 76.197 106.717 78.1222 107.841Z" fill="#FBBA05"/>
<path d="M80.7063 109.347V111.015C80.7063 111.918 80.1177 112.821 78.9487 113.509C76.5958 114.899 72.7674 114.899 70.3925 113.509C69.2016 112.814 68.6061 111.895 68.6084 110.98V109.312C68.6084 110.226 69.2016 111.143 70.3937 111.841C72.7617 113.231 76.59 113.231 78.9441 111.841C80.1177 111.148 80.7063 110.247 80.7063 109.347Z" fill="#E19100"/>
<path d="M78.9211 106.813C81.2902 108.203 81.3029 110.451 78.95 111.837C76.597 113.224 72.7675 113.227 70.3995 111.837C68.0315 110.447 68.0188 108.2 70.3718 106.813C72.7247 105.427 76.5531 105.426 78.9211 106.813ZM71.1973 111.366C73.119 112.492 76.2363 112.492 78.1464 111.366C80.0565 110.24 80.0438 108.411 78.1221 107.285C76.2004 106.159 73.0843 106.16 71.1765 107.285C69.2687 108.41 69.2756 110.241 71.1973 111.366Z" fill="#FFD03E"/>
<path d="M135.042 77.291C134.649 80.8818 131.804 85.9785 130.609 90.4173C131.296 93.4405 130.618 97.2792 130.636 101.992H129.472C128.739 99.2391 128.136 96.0074 127.066 90.8725C126.7 89.113 126.835 81.6498 129.114 77.8748C130.227 77.774 135.042 77.291 135.042 77.291Z" fill="#362E94"/>
<path d="M130.811 102.419C130.723 102.291 130.663 102.145 130.636 101.992H129.472C129.588 102.236 129.602 102.515 129.513 102.769C129.816 102.884 130.259 102.584 130.811 102.419Z" fill="#F0CCC0"/>
<path d="M130.811 102.419C130.259 102.584 129.816 102.882 129.513 102.766C129.353 102.882 126.992 103.733 126.752 103.898C126.511 104.062 126.541 104.328 126.802 104.328C127.183 104.328 130.317 104.19 130.317 104.19C130.381 104.259 130.433 104.328 130.433 104.328H131.149C131.363 103.959 131.305 102.846 130.811 102.419Z" fill="#222222"/>
<path d="M136.101 77.1451C136.751 80.8958 136.217 85.843 135.133 90.2794C136.227 93.0594 136.369 96.6502 137.018 101.991H135.859C134.517 98.7098 133.224 95.6205 131.252 90.8713C130.558 89.2114 128.883 80.0455 130.372 75.6045L136.101 77.1451Z" fill="#5652CC"/>
<path d="M137.193 102.419C137.105 102.291 137.045 102.145 137.018 101.992H135.859C135.917 102.113 135.95 102.243 135.957 102.376C135.964 102.509 135.945 102.643 135.901 102.769C136.198 102.884 136.641 102.584 137.193 102.419Z" fill="#F0CCC0"/>
<path d="M137.192 102.419C136.641 102.584 136.198 102.882 135.895 102.766C135.736 102.882 133.375 103.733 133.134 103.898C132.894 104.062 132.924 104.328 133.184 104.328C133.565 104.328 136.7 104.19 136.7 104.19C136.764 104.259 136.816 104.328 136.816 104.328H137.531C137.745 103.959 137.687 102.846 137.192 102.419Z" fill="#222222"/>
<path d="M130.063 65.6034C130.737 66.4385 128.51 72.2533 123.728 73.2727C120.622 73.9353 116.195 73.6596 116.195 73.6596C116.278 73.1962 116.367 72.5012 116.367 72.5012C117.208 72.6263 121.358 71.3626 122.914 70.7973C125.162 69.9795 128.472 63.6342 130.063 65.6034Z" fill="#BBC0E6"/>
<path d="M131.131 64.0988C132.066 64.9281 133.454 65.4679 134.376 68.3174C135.297 71.1669 136.101 77.1451 136.101 77.1451C135.626 77.2273 129.114 77.8771 129.114 77.8771C128.521 76.1628 127.534 72.8963 127.653 70.0561C127.773 67.2158 128.829 65.2895 129.192 64.7729C130.478 64.5517 131.131 64.0988 131.131 64.0988Z" fill="#CED3F8"/>
<path d="M130.523 62.0936C130.575 62.5094 130.917 63.9469 131.367 64.2944C131.169 64.5435 130.281 64.8736 128.925 65.2107C129.069 64.9002 129.326 64.5261 128.944 64.1357C128.53 63.7118 128.209 64.5052 127.615 63.7882C126.922 62.9519 126.315 61.1113 126.631 60.4754C126.986 59.7642 127.81 58.7958 129.365 59.251C130.634 59.6217 130.417 61.2492 130.523 62.0936Z" fill="#F8D8D0"/>
<path d="M129.269 61.4311C128.963 61.5133 128.922 60.6654 128.642 60.5299C128.318 60.3701 127.392 60.4639 126.55 60.7778C125.709 61.0917 124.884 60.0967 125.319 59.4874C125.754 58.8781 126.421 59.3982 126.799 59.1561C127.239 58.8735 127.006 58.3071 127.737 58.1889C128.411 58.0731 128.266 58.7681 128.713 58.7681C129.159 58.7681 129.664 58.036 130.364 58.5816C130.882 58.987 130.364 59.4295 130.571 59.9716C130.698 60.3121 131.827 61.1299 131 61.7995C130.172 62.469 130.146 61.4589 130.097 61.05C130.047 60.6411 129.801 60.4245 129.601 60.4708C129.4 60.5172 129.709 61.3141 129.269 61.4311Z" fill="#362E94"/>
<mask id="mask2_116_40820" style="mask-type:luminance" maskUnits="userSpaceOnUse" x="100" y="60" width="26" height="24">
<path d="M100.793 60.6863V75.6913H113.701C114.12 75.6926 114.521 75.86 114.817 76.1571C115.112 76.4541 115.278 76.8565 115.278 77.2759V83.1116H125.697V60.6863H100.793Z" fill="white"/>
</mask>
<g mask="url(#mask2_116_40820)">
<path d="M105.4 66.4883C106.498 64.9221 108.034 63.7171 109.816 63.0257C111.597 62.3344 113.543 62.1876 115.407 62.6041C117.271 63.0206 118.971 63.9816 120.29 65.3656C121.609 66.7495 122.489 68.4943 122.818 70.3793C123.148 72.2643 122.912 74.2048 122.14 75.9554C121.369 77.7061 120.097 79.1882 118.484 80.2144C116.872 81.2406 114.992 81.7648 113.082 81.7207C111.173 81.6766 109.319 81.0662 107.756 79.9667C105.66 78.4919 104.234 76.2435 103.792 73.716C103.351 71.1885 103.929 68.5888 105.4 66.4883Z" fill="#FCBA06"/>
<path d="M106.221 67.0675C105.238 68.4714 104.693 70.1357 104.655 71.8499C104.616 73.5641 105.085 75.2514 106.004 76.6984C106.922 78.1454 108.248 79.2872 109.814 79.9794C111.38 80.6717 113.115 80.8833 114.801 80.5875C116.487 80.2917 118.048 79.5019 119.285 78.3177C120.523 77.1336 121.383 75.6084 121.756 73.9349C122.129 72.2614 121.998 70.5147 121.38 68.9157C120.762 67.3167 119.685 65.9371 118.284 64.9513C116.404 63.6304 114.078 63.1114 111.816 63.5082C109.554 63.905 107.541 65.1852 106.221 67.0675Z" fill="#E19100"/>
<path d="M106.807 67.4764C105.905 68.7638 105.404 70.2904 105.367 71.8632C105.331 73.436 105.761 74.9843 106.602 76.3124C107.444 77.6404 108.66 78.6885 110.097 79.3241C111.534 79.9597 113.126 80.1543 114.673 79.8833C116.22 79.6123 117.652 78.8878 118.788 77.8015C119.923 76.7151 120.712 75.3158 121.054 73.7803C121.396 72.2449 121.276 70.6423 120.709 69.1752C120.142 67.7082 119.153 66.4426 117.868 65.5385C116.144 64.3286 114.011 63.8531 111.938 64.2164C109.864 64.5797 108.019 65.7521 106.807 67.4764Z" fill="#ED9F00"/>
<rect x="111.87" y="66.2684" width="2.16038" height="9.36163" rx="1.08019" transform="rotate(30 111.87 66.2684)" fill="#FCBA06"/>
<rect x="113.862" y="69.233" width="2.16038" height="6.1538" rx="1.08019" transform="rotate(30 113.862 69.233)" fill="#FCBA06"/>
<rect x="115.822" y="72.2554" width="2.16038" height="6.1538" rx="1.08019" transform="rotate(30 115.822 72.2554)" fill="#FCBA06"/>
<rect x="117.426" y="69.4773" width="2.16038" height="2.16038" rx="1.08019" transform="rotate(30 117.426 69.4773)" fill="#FCBA06"/>
</g>
<path d="M132.108 65.8154C132.846 66.5938 131.09 72.5685 126.405 73.9678C123.363 74.8771 117.932 74.5191 117.932 74.5191C117.978 74.0477 118.012 73.3527 118.012 73.3527C118.858 73.4095 123.89 72.2546 125.395 71.5654C127.572 70.5704 130.364 63.9795 132.108 65.8154Z" fill="#DDE2F8"/>
<path d="M118.012 73.3527C117.693 73.3608 117.725 73.0839 117.385 72.9021C117.045 72.7202 116.911 72.3021 116.807 72.3681C116.703 72.4341 116.911 72.916 116.99 73.0086C116.784 72.953 115.74 72.5789 115.634 72.8175C115.549 73.0121 115.356 73.0492 115.403 73.2982C115.451 73.5473 115.75 73.9932 116.237 74.1415C116.724 74.2898 117.046 74.3905 117.325 74.3442C117.532 74.3172 117.741 74.3243 117.946 74.365C117.96 74.2006 118.012 73.3527 118.012 73.3527Z" fill="#F8D8D0"/>
<path d="M155.591 92.8103C155.19 93.9397 154.47 95.2671 154.47 97.0961C154.47 98.9251 155.209 108.524 155.209 109.046H156.122C156.122 108.436 157.257 100.444 156.497 97.5502C157.1 96.1447 157.816 94.7904 158.638 93.5007L155.591 92.8103Z" fill="#F7D3C9"/>
<path d="M155.622 110.247C155.703 110.258 155.778 110.294 155.837 110.35C155.896 110.407 155.936 110.48 155.95 110.561H156.201C156.352 110.268 156.393 109.932 156.317 109.612C156.235 109.276 156.149 109.357 156.061 109.444C155.862 109.606 155.052 109.659 154.988 109.386C154.779 109.417 152.625 110.039 152.625 110.239C152.625 110.562 152.878 110.561 153.051 110.561C155.088 110.561 154.822 110.436 155.622 110.247Z" fill="#003E7A"/>
<path d="M155.209 109.043C155.279 108.736 156.167 108.505 156.122 109.043C156.108 109.161 156.123 109.281 156.168 109.391C155.969 109.553 154.114 110.127 153.808 109.729C154.021 109.61 155.209 109.37 155.209 109.043ZM165.051 94.8734L165.109 92.6216L161.57 93.2089C161.57 93.2089 162.698 95.5058 163.134 96.1557C163.234 96.3042 163.361 96.4318 163.51 96.531C165.027 97.5468 172.583 101.723 173.017 102.012L173.523 101.253C173.025 100.918 167.556 96.0016 165.051 94.8734Z" fill="#F7D3C9"/>
<path d="M174.247 102.338C174.301 102.276 174.373 102.233 174.452 102.215C174.532 102.198 174.615 102.205 174.69 102.238C174.797 102.078 174.825 102.035 174.829 102.03C174.67 101.742 174.414 101.52 174.107 101.405C173.782 101.289 173.802 101.405 173.825 101.521C173.849 101.776 173.442 102.481 173.181 102.382C173.091 102.574 172.407 104.713 172.574 104.823C172.842 105.004 172.982 104.792 173.078 104.648C174.21 102.956 173.956 103.11 174.247 102.338Z" fill="#003E7A"/>
<path d="M173.018 102.011C172.802 101.779 173.103 100.914 173.524 101.252C173.614 101.327 173.721 101.379 173.835 101.404C173.858 101.66 173.303 103.525 172.803 103.557C172.826 103.315 173.288 102.193 173.018 102.011Z" fill="#F7D3C9"/>
<path d="M163.725 83.6792H159.469C158.014 84.7889 156.694 89.3794 153.129 91.6416C155.952 93.3791 157.993 94.0996 160.663 94.2953C163.132 94.476 164.464 94.2085 167.46 92.3806C166.472 91.8478 165.181 90.2794 164.941 88.1168C164.686 85.8453 164.303 83.6792 163.725 83.6792Z" fill="#FCBA06"/>
<path d="M159.759 69.5777C159.838 70.0596 159.16 73.4998 158.249 75.1956C158.733 75.3184 160.377 75.3335 160.927 74.8701C161.274 73.8543 160.71 70.063 160.42 69.207C159.899 69.207 159.759 69.5777 159.759 69.5777Z" fill="#362E94"/>
<path d="M152.408 63.7084C152.523 63.5926 152.819 64.7891 152.814 64.6802C152.753 63.6818 152.785 63.0331 152.861 63.0331C152.967 63.0331 153.106 64.3072 153.106 64.6478C153.106 64.3119 153.123 63.3968 153.32 63.1802C153.387 63.1049 153.443 64.3478 153.443 64.6953C153.443 64.3142 153.515 63.2288 153.696 63.2485C153.876 63.2682 153.788 64.4069 153.718 64.7787C153.718 64.7787 154.272 64.0837 154.272 64.3524C154.272 64.5227 153.939 64.8482 153.939 65.5328C153.939 66.0112 153.795 66.054 153.792 66.2347C154.66 71.0024 158.355 74.0442 159.226 74.3697C159.226 74.3697 159.767 75.9276 158.64 76.6864C154.162 73.1859 152.67 67.4035 152.647 66.178L152.627 66.1687C152.558 65.5721 152.317 63.7941 152.408 63.7084Z" fill="#F8D8D0"/>
<path d="M159.272 83.8472C158.975 83.8472 158.732 83.89 158.869 82.6101C159.005 81.3301 159.146 80.912 158.929 80.2158C158.712 79.5197 158.133 78.8675 157.974 77.9837C158.09 77.0837 158.857 75.4446 159.06 74.6477C159.262 73.8508 161.333 73.589 162.606 73.589C163.879 73.589 164.271 74.8944 164.43 76.2138C164.59 77.5331 164.937 83.9746 164.012 83.8704C162.754 83.7348 159.272 83.8472 159.272 83.8472Z" fill="#6B67E9"/>
<path d="M149.85 62.2026C149.159 60.6921 148.931 59.0102 149.194 57.3696C149.457 55.729 150.199 54.2034 151.328 52.9857C152.456 51.768 153.92 50.9129 155.534 50.5285C157.147 50.144 158.838 50.2476 160.393 50.8261C161.948 51.4045 163.297 52.4319 164.269 53.7783C165.241 55.1246 165.793 56.7295 165.854 58.39C165.916 60.0504 165.484 61.6919 164.615 63.1068C163.745 64.5217 162.476 65.6465 160.969 66.339C159.967 66.799 158.886 67.0568 157.785 67.0979C156.684 67.1389 155.586 66.9624 154.554 66.5782C153.522 66.1941 152.575 65.61 151.768 64.8592C150.96 64.1084 150.309 63.2057 149.85 62.2026Z" fill="#FCBA06"/>
<path d="M151.013 61.6651C151.6 62.9458 152.552 64.0236 153.749 64.7623C154.947 65.5009 156.336 65.8672 157.741 65.8149C159.147 65.7625 160.505 65.2938 161.645 64.4681C162.784 63.6424 163.654 62.4967 164.143 61.176C164.633 59.8552 164.721 58.4186 164.395 57.048C164.07 55.6773 163.346 54.434 162.315 53.4754C161.285 52.5168 159.994 51.8859 158.605 51.6624C157.216 51.439 155.793 51.633 154.514 52.22C152.801 53.0085 151.47 54.446 150.813 56.2169C150.157 57.9878 150.229 59.9473 151.013 61.6651Z" fill="#E19100"/>
<path d="M151.597 61.3974C152.13 62.5623 152.996 63.5427 154.086 64.2145C155.175 64.8863 156.439 65.2194 157.717 65.1717C158.996 65.1241 160.231 64.6977 161.267 63.9466C162.304 63.1955 163.095 62.1534 163.54 60.952C163.985 59.7507 164.065 58.444 163.769 57.1972C163.473 55.9505 162.815 54.8197 161.877 53.9478C160.94 53.0758 159.765 52.502 158.502 52.2988C157.239 52.0956 155.944 52.2721 154.781 52.8061C153.223 53.5237 152.013 54.8313 151.416 56.442C150.819 58.0527 150.884 59.8349 151.597 61.3974Z" fill="#ED9F00"/>
<path d="M162.8 74.3557C165.677 70.9224 164.805 66.3447 164.221 64.5829L164.195 64.5006C163.848 64.013 162.859 62.7631 162.895 62.6357C162.941 62.4735 163.696 63.194 163.637 63.099C163.175 62.3959 162.732 62.0704 162.876 61.8724C162.939 61.7866 163.715 62.6345 163.878 62.9288C163.716 62.6345 163.137 61.826 163.264 61.5712C163.287 61.4727 164.027 62.4979 164.189 62.8071C164.006 62.4747 163.472 61.5503 163.629 61.4461C163.786 61.3418 164.34 62.3542 164.47 62.7481C164.551 62.7203 164.285 62.3531 164.388 62.1469C164.473 61.9766 164.839 62.4712 164.941 63.26C165.005 63.7396 165.047 64.0176 165.137 64.1867C166.062 66.2995 166.546 69.5637 166.357 70.7834C166.137 73.0642 165.419 75.1492 164.704 76.1117C163.316 77.9778 161.692 75.6739 162.8 74.3557Z" fill="#F8D8D0"/>
<path d="M160.512 73.8021C160.684 73.9747 162.17 73.9886 162.451 73.5901C162.445 73.1024 162.496 72.6158 162.602 72.1399C162.718 71.6453 163.037 71.1066 162.852 69.9541C162.667 68.8015 161.927 67.8031 160.667 68.1483C159.552 68.4529 159.684 70.5622 159.73 71.1993C159.802 72.1619 159.943 72.6947 160.854 72.6287C160.845 73.0431 160.727 73.4478 160.512 73.8021Z" fill="#F8D8D0"/>
<path d="M160.916 69.1375C160.916 69.8916 161.263 71.4704 162.34 71.5456C162.119 72.4932 162.031 73.8218 160.652 75.9473C161.607 76.2659 162.617 75.1851 163.472 73.8623C163.755 73.4245 164.165 71.6812 164.002 70.3688C163.786 68.6718 162.606 67.0768 160.84 67.3965C159.075 67.7162 158.966 69.1583 159.337 69.412C159.869 69.7769 160.524 69.529 160.916 69.1375Z" fill="#362E94"/>
<path d="M45.7067 55.5479C45.4799 54.2463 45.6436 52.9065 46.177 51.698C46.7103 50.4895 47.5895 49.4667 48.7032 48.7588C49.8169 48.0509 51.1151 47.6898 52.4337 47.7211C53.7523 47.7525 55.032 48.1749 56.1109 48.9349C57.1899 49.6949 58.0196 50.7584 58.4951 51.9909C58.9707 53.2233 59.0707 54.5694 58.7825 55.8588C58.4944 57.1482 57.831 58.3231 56.8762 59.2347C55.9215 60.1464 54.7183 60.7539 53.4189 60.9805C51.6772 61.2842 49.8863 60.8825 48.4401 59.8638C46.9939 58.8451 46.0107 57.2927 45.7067 55.5479Z" fill="#FCBA06"/>
<path d="M46.7056 55.3742C46.8978 56.4777 47.4124 57.4994 48.1843 58.31C48.9561 59.1206 49.9506 59.6837 51.0419 59.9281C52.1332 60.1725 53.2723 60.0873 54.3152 59.6831C55.3582 59.279 56.2581 58.5741 56.9011 57.6576C57.5442 56.7411 57.9015 55.6541 57.9279 54.5342C57.9543 53.4143 57.6487 52.3116 57.0496 51.3657C56.4505 50.4198 55.5848 49.6731 54.5621 49.22C53.5394 48.7669 52.4056 48.6278 51.304 48.8203C49.8272 49.0796 48.5135 49.9154 47.6513 51.1442C46.7891 52.373 46.449 53.8943 46.7056 55.3742Z" fill="#E19100"/>
<path d="M47.2086 55.2861C47.3836 56.2899 47.8517 57.2192 48.5538 57.9564C49.2559 58.6937 50.1604 59.2058 51.1531 59.4281C52.1457 59.6504 53.1818 59.5728 54.1304 59.2052C55.0791 58.8376 55.8976 58.1965 56.4825 57.3629C57.0674 56.5293 57.3925 55.5406 57.4166 54.522C57.4406 53.5033 57.1627 52.5003 56.6178 51.6399C56.0729 50.7795 55.2856 50.1003 54.3555 49.6881C53.4253 49.2759 52.394 49.1492 51.392 49.3242C50.0488 49.5606 48.8541 50.321 48.0698 51.4387C47.2856 52.5564 46.9759 53.94 47.2086 55.2861Z" fill="#ED9F00"/>
<rect x="48.3772" y="51.9626" width="1.56749" height="6.79247" rx="0.783747" transform="rotate(-14.5692 48.3772 51.9626)" fill="#FCBA06"/>
<rect x="50.9165" y="52.4802" width="1.56749" height="4.46498" rx="0.783747" transform="rotate(-14.5692 50.9165 52.4802)" fill="#FCBA06"/>
<rect x="53.468" y="53.0448" width="1.56749" height="4.46498" rx="0.783747" transform="rotate(-14.5692 53.468 53.0448)" fill="#FCBA06"/>
<rect x="52.8831" y="50.7925" width="1.56749" height="1.56749" rx="0.783747" transform="rotate(-14.5692 52.8831 50.7925)" fill="#FCBA06"/>
<path d="M48.8355 61.3501C48.869 61.0292 48.2573 60.7164 48.5268 59.9693C48.7962 59.2222 48.8204 58.9025 49.0702 58.8851C49.3199 58.8677 49.1477 59.857 49.2217 60.1419C49.2702 60.3238 49.8796 60.3666 50.1328 60.7211C50.2022 60.7211 50.6196 60.9029 50.7213 60.896C50.5675 61.2435 50.2079 61.4103 50.0599 61.6964C49.4598 61.8701 48.8355 61.3501 48.8355 61.3501Z" fill="#FFD3C9"/>
<path d="M39.5171 71.1912L40.8329 75.1666C40.8329 75.1666 47.1761 71.0962 48.3011 69.6726L45.9667 68.0127C45.118 68.7587 41.3752 70.0166 39.5171 71.1912ZM48.7174 61.35C48.7174 61.35 46.5563 67.5528 45.9667 68.0127L48.3011 69.6726C49.5626 66.866 49.9881 63.3655 50.1176 61.7241C50.1176 61.7241 49.3105 61.3523 48.7174 61.35Z" fill="#DDE2F8"/>
<path d="M20.6126 82.8209C20.5513 83.0144 20.4739 83.2576 20.3814 83.2704C20.2547 83.2788 20.1344 83.3287 20.0389 83.4124C19.9434 83.4962 19.8781 83.6091 19.853 83.7337C19.6333 84.6708 19.853 84.8109 20.0345 84.7507C20.0831 84.9094 20.2392 84.9951 20.3652 84.9175C20.4508 85.1202 20.5964 85.111 20.6993 85.0461C20.7054 85.0841 20.7224 85.1194 20.7483 85.1479C20.7742 85.1763 20.8078 85.1965 20.845 85.2059C21.104 85.2349 21.2254 85.0623 21.4324 84.9546C21.5214 84.9094 21.5388 85.0704 21.6637 84.9986C21.8845 84.8758 22.0105 84.5885 22.0637 84.3963C22.1458 84.1264 21.8741 83.8252 21.8579 83.6375C21.8538 83.508 21.8828 83.3796 21.9423 83.2646L20.6126 82.8209Z" fill="#FFD3C9"/>
<path d="M40.6619 71.0869C39.3346 70.2761 35.5918 69.8823 34.2043 69.8209L32.3046 69.6726C30.9483 70.2703 25.5058 73.2947 24.1796 74.8353C22.8326 76.3991 20.4727 82.7734 20.4727 82.7734L22.0382 83.3004C22.6337 81.9648 25.2942 77.6825 26.0654 76.9226C26.8367 76.1628 31.2582 74.7461 31.5102 74.665C30.8165 76.4269 29.8915 79.2323 29.459 80.8297C30.11 81.1065 36.3063 83.2274 36.3063 83.2274C36.9307 82.1768 43.3433 73.5542 40.6619 71.0869Z" fill="#DDE2F8"/>
<path d="M37.3401 81.6718C38.4258 80.0304 40.0469 77.4415 40.8412 75.1608C41.062 75.0194 45.9009 71.9035 47.7556 70.2297C46.6467 70.9027 41.8587 74.2468 41.4933 74.2492C40.9938 74.2492 41.1904 73.0155 40.9013 73.026C40.3856 73.0445 40.2515 76.172 38.5715 79.347C38.3876 79.7061 37.8824 80.6432 37.3401 81.6718ZM32.9972 74.4982C32.8446 74.065 31.5103 74.665 31.5103 74.665C30.9321 76.1314 30.1933 78.3207 29.7146 79.9354C30.2557 78.908 33.1498 74.9314 32.9972 74.4982Z" fill="#CED3F8"/>
<path d="M33.8781 86.8751C31.0048 91.5906 29.1999 93.6177 26.8088 96.4753C26.453 96.9242 25.9689 97.2535 25.4213 97.4194C21.2252 98.624 14.7999 99.465 13.0309 99.7673C13.0309 99.7673 12.9014 98.8603 12.8447 98.4595C15.2729 96.8483 18.8387 94.4587 23.7354 93.6779C24.8478 90.1751 27.5846 83.4846 29.4589 80.8297C31.0846 81.5861 33.8781 86.8751 33.8781 86.8751Z" fill="#362E94"/>
<path d="M27.2274 90.6025C26.9164 95.6911 24.6443 96.3027 22.8163 96.7231C20.9883 97.1436 17.2732 98.8661 15.636 99.363C18.3983 98.9367 22.4579 98.2684 25.419 97.4205C25.9667 97.2546 26.4507 96.9253 26.8065 96.4764C29.2011 93.6188 31.006 91.5917 33.8781 86.875C33.8781 86.875 33.2272 85.6425 32.375 84.2826L29.4613 80.8285C28.997 81.5112 28.5749 82.2219 28.1975 82.9563C27.5188 85.0784 27.3777 88.1376 27.2274 90.6025Z" fill="url(#paint0_linear_116_40820)"/>
<path d="M12.372 98.5278L12.8507 98.4595L13.0368 99.7672C12.7432 99.8198 12.4581 99.9122 12.1893 100.042C12.0043 99.7209 12.2702 99.1753 12.372 98.5278Z" fill="#FCCCC0"/>
<path d="M12.3719 98.5279C12.276 99.1754 12.01 99.721 12.1892 100.042C12.084 100.241 11.5105 103.03 11.3637 103.327C11.2168 103.623 10.9162 103.631 10.8734 103.34C10.8133 102.911 10.4664 99.3665 10.4664 99.3665C10.3785 99.3063 10.293 99.2588 10.293 99.2588L10.175 98.4584C10.5531 98.1549 11.81 98.0414 12.3719 98.5279Z" fill="#222222"/>
<path d="M41.5916 106.51C41.5916 106.244 41.6089 105.604 41.6089 105.604L42.897 105.881C42.8264 106.366 43.0126 106.692 43.0692 106.874C42.7305 107.014 42.2217 106.683 41.5916 106.51Z" fill="#FCCCC0"/>
<path d="M41.5915 106.51C42.2217 106.684 42.7304 107.014 43.0704 106.874C43.2542 107.002 45.9494 107.909 46.2258 108.091C46.5021 108.273 46.4744 108.573 46.1795 108.579C45.7482 108.588 42.1928 108.507 42.1928 108.507C42.1222 108.587 42.0656 108.667 42.0656 108.667L41.2562 108.683C41.003 108.268 41.0469 107.006 41.5915 106.51Z" fill="#222222"/>
<path d="M36.3063 83.2275C41.1058 87.3152 43.0703 89.2357 44.5931 91.3057C44.9319 91.769 45.0995 92.2138 44.992 92.8034C43.9109 98.7445 43.2253 104.116 42.898 105.881L41.6088 105.604C40.9405 102.758 40.2537 98.0379 40.9567 94.3092C35.7432 92.1849 31.4858 89.135 29.918 86.5832C28.7074 84.614 28.8299 82.6356 29.4555 80.8297L36.3063 83.2275Z" fill="#423EAF"/>
<path d="M39.0281 69.5104C39.0003 69.9008 39.1807 70.5263 39.1807 70.5263C38.8176 71.1379 37.7493 70.7058 36.6982 70.0224C37.0567 69.2116 37.2891 67.7544 37.2891 67.7544L39.0281 69.5104Z" fill="#FDC9C0"/>
<path d="M40.9925 65.8896C40.9521 66.6193 40.6271 68.8375 40.0294 69.4804C39.5403 70.0132 38.8199 69.9437 37.7955 69.287C36.7711 68.6302 37.2312 66.5857 37.2312 65.9625C37.2312 64.9745 41.0526 64.8309 40.9925 65.8896Z" fill="#FFD3C9"/>
<path d="M41.558 65.2525C41.9407 65.0081 43.1074 63.8984 42.0714 64.1521C42.3859 63.8046 42.1176 62.6265 40.9926 63.6586C39.8676 64.6907 39.027 64.02 39.027 64.02C39.3738 63.8972 39.9358 62.9208 38.5899 63.6181C37.244 64.3154 36.7468 64.6722 36.9399 65.6405C37.133 66.6089 36.4774 68.6881 36.7769 69.0507C36.9145 69.2209 37.2059 68.8896 37.3203 68.0278C37.429 67.217 37.9412 67.7649 37.969 67.0757C37.9455 67.1083 37.9146 67.1348 37.8788 67.1529C37.8429 67.1711 37.8033 67.1803 37.7632 67.1799C37.6129 67.173 37.4984 67.0062 37.5088 66.8093C37.5192 66.6124 37.6487 66.4618 37.8002 66.4618C37.8321 66.4641 37.8631 66.473 37.8914 66.488C37.9196 66.5029 37.9445 66.5236 37.9644 66.5487C37.954 65.9278 37.9702 65.3973 38.3309 65.2745C38.7772 65.1216 40.7359 66.1791 41.4967 65.8096C42.2575 65.4401 42.0297 65.161 41.558 65.2525Z" fill="#362E94"/>
<path d="M38.4395 70.809C37.4521 70.5067 36.682 69.5035 36.682 69.5035L36.238 70.041C36.6601 70.5287 37.0983 71.2132 37.9909 71.5654C38.1873 71.3443 38.3396 71.0875 38.4395 70.809ZM38.7078 70.8194L38.909 71.5654C39.1136 71.526 39.353 70.9654 39.2836 70.5889C39.2142 70.2124 39.1113 70.2298 39.1113 70.2298C39.1067 70.326 39.0188 70.8032 38.7078 70.8194Z" fill="white"/>
<defs>
<linearGradient id="paint0_linear_116_40820" x1="31.5379" y1="85.4618" x2="15.8813" y2="100.173" gradientUnits="userSpaceOnUse">
<stop stop-color="#20196F"/>
<stop offset="0.33" stop-color="#2C2483"/>
<stop offset="0.68" stop-color="#332B90"/>
<stop offset="1" stop-color="#362E94"/>
</linearGradient>
</defs>
</svg>
