<svg width="31" height="31" viewBox="0 0 31 31" fill="none" xmlns="http://www.w3.org/2000/svg">
<path d="M1 6.79989C1 3.5967 3.5967 1 6.79989 1H24.1996C27.4027 1 29.9994 3.5967 29.9994 6.79989V24.1996C29.9994 27.4027 27.4027 29.9994 24.1996 29.9994H6.79989C3.5967 29.9994 1 27.4027 1 24.1996V6.79989Z" stroke="#222222" stroke-width="1.5" stroke-linecap="round" stroke-linejoin="round"/>
<path d="M10.4247 14.0499C12.4267 14.0499 14.0497 12.427 14.0497 10.425C14.0497 8.42299 12.4267 6.80005 10.4247 6.80005C8.42274 6.80005 6.7998 8.42299 6.7998 10.425C6.7998 12.427 8.42274 14.0499 10.4247 14.0499Z" stroke="#9877D5" stroke-width="1.5" stroke-linecap="round" stroke-linejoin="round"/>
<path d="M19.1626 16.4011L6.7998 30.0002H24.5921C27.5785 30.0002 29.9994 27.5794 29.9994 24.593C29.9994 23.9164 29.7458 23.2647 29.2887 22.766L23.4461 16.3922C22.2935 15.135 20.3101 15.139 19.1626 16.4011Z" stroke="#222222" stroke-width="1.5" stroke-linecap="round" stroke-linejoin="round"/>
</svg>
