<svg width="106" height="89" viewBox="0 0 106 89" fill="none" xmlns="http://www.w3.org/2000/svg">
<path d="M80.3635 46.2893C84.1848 45.8828 85.6323 42.601 84.5328 38.2245C81.1578 39.2785 78.1938 42.7031 80.3635 46.2893Z" fill="#222222"/>
<path d="M80.0495 53.1432C87.1262 54.1869 91.2695 48.9455 91.3352 40.5474C84.7599 40.8781 77.8169 45.6721 80.0495 53.1432Z" fill="#FCBA06"/>
<path d="M80.0498 53.1432C81.9223 50.7961 87.1612 45.7148 90.0263 42.1545" stroke="#ED9F00" stroke-width="2" stroke-linecap="round" stroke-linejoin="round"/>
<path d="M19.5511 61.5584C20.1691 61.5688 23.8293 57.0611 23.0102 56.3069C22.3724 55.7195 21.7331 56.3809 21.5199 56.639C21.184 57.0458 20.4403 58.077 20.1776 57.7816C19.7021 57.247 21.9171 54.8784 22.4209 54.2682C22.9247 53.6581 23.7368 52.3365 23.4668 51.5047C23.1967 50.6729 22.9912 50.3665 22.169 51.483C21.3467 52.5995 20.0024 55.0001 19.7817 54.012C19.561 53.0238 21.0393 51.4025 21.5442 50.1633C22.0491 48.9241 22.5882 46.3943 21.6059 46.6119C20.7276 46.8065 19.7748 50.6404 19.24 50.2016C18.8122 49.8505 19.4675 48.912 19.9813 47.2275C20.4951 45.5429 20.9629 43.9476 19.9867 43.5511C19.203 43.2328 19.1025 44.3805 18.8139 45.2853C18.5253 46.1902 18.0754 47.4351 17.7586 46.998C17.4417 46.5608 19.2817 42.2728 18.1308 41.4771C17.3694 40.9507 17.2687 41.99 16.8735 43.0239C16.4783 44.0578 16.2621 44.3921 16.0838 44.2459C15.9056 44.0996 16.2115 42.6185 16.401 41.8095C16.5906 41.0006 16.5852 39.7758 15.8351 39.5736C15.085 39.3714 14.9158 40.6991 14.9673 41.204C15.0189 41.7089 14.8526 42.2121 14.7016 42.2259C14.5506 42.2398 14.2618 40.5857 13.4306 40.8681C12.5993 41.1504 13.0303 42.7048 13.7077 43.2607C14.3851 43.8165 15.2807 44.5908 15.0773 44.8372C14.8738 45.0836 14.0895 44.44 13.4715 43.933C12.8536 43.4259 12.4917 43.3652 12.3561 43.5294C11.904 44.077 12.327 45.1984 12.7786 45.5689C13.2302 45.9394 16.0327 47.6879 15.7323 48.0516C15.432 48.4154 14.45 47.649 13.9509 47.2395C13.4518 46.8299 12.2872 45.8743 11.7834 46.4844C11.2796 47.0946 12.577 48.7103 13.5761 49.4317C14.5752 50.1531 16.2826 51.1998 16.0501 51.4815C15.8176 51.7631 14.3073 51.1536 13.7012 50.6563C13.0952 50.159 12.2656 48.9666 11.6456 49.7176C11.0255 50.4685 11.8249 51.3803 13.0148 52.3567C13.512 52.7647 14.7531 53.7622 15.7646 53.8932C16.9163 54.0424 17.4656 54.3052 17.4439 54.5738C17.4006 55.1091 16.4044 54.8428 15.7371 54.4921C15.0698 54.1414 13.0622 52.9271 12.6974 54.0449C12.3326 55.1628 14.1977 55.7287 14.9253 56.0305C15.6529 56.3323 18.3083 57.1727 18.128 57.7531C17.9478 58.3335 16.6669 57.5187 16.2426 57.3083C15.8183 57.0979 14.8007 56.942 14.8457 57.3824C14.8907 57.8229 18.4491 61.5399 19.5511 61.5584Z" fill="#FCBA06"/>
<path d="M26.0217 5.54353C25.5159 5.18142 25.1267 4.65174 25.3734 4.35548C25.6083 4.0733 26.1668 4.33545 26.6317 4.71558C26.6172 4.17723 26.7631 3.68093 27.1018 3.66809C27.766 3.6429 27.8083 5.58729 27.4622 5.99696C27.0948 6.60621 25.2057 6.81726 25.1333 6.15669C25.0989 5.84291 25.5223 5.63826 26.0217 5.54353Z" fill="#CED3F8"/>
<path d="M27.4624 5.99695C28.0732 6.47134 29.0783 8.79174 28.9613 11.2156" stroke="#6B67E9" stroke-width="2" stroke-linecap="round" stroke-linejoin="round"/>
<path d="M26.7691 6.08284C26.8404 5.98887 26.9445 5.92497 27.0608 5.90376C26.9386 5.78786 26.8354 5.54508 26.9799 5.43081C27.0831 5.34926 27.2336 5.51259 27.3422 5.6754C27.3517 5.60763 27.3705 5.54147 27.3979 5.47875C27.6342 4.97551 27.7455 5.84689 27.5258 6.05163C27.4431 6.12013 27.3535 6.18001 27.2586 6.23032C27.0164 6.36441 26.6726 6.26511 26.7691 6.08284Z" fill="#6B67E9"/>
<path d="M23.564 69.778C24.5442 68.1268 25.5992 63.263 21.9758 61.1214C20.3358 60.152 19.8482 59.9938 19.1155 60.2217C18.6384 60.3702 18.3123 60.7366 17.9186 60.5284C17.1987 60.1474 18.6282 57.462 16.1482 55.8292C13.6682 54.1964 12.0962 55.6797 11.4312 55.2309C10.7663 54.7822 11.12 53.5767 9.73719 53.2568C8.35436 52.937 7.78219 55.1907 5.94815 55.024C4.04066 54.8507 0.814001 55.2614 0.648979 57.0665C0.483958 58.8717 1.96358 58.9332 2.62174 59.9881C3.2799 61.043 2.86443 64.597 5.68268 64.853C8.48338 65.1074 9.55904 64.7927 10.4911 68.1779C11.4233 71.563 14.7813 72.6448 16.3948 72.039C18.0083 71.4332 17.7379 72.3917 16.9609 73.0369C16.1838 73.6821 17.6608 74.1683 18.8638 73.7923C20.0667 73.4162 22.3338 71.8505 23.564 69.778Z" fill="#423EAF"/>
<path d="M24.2108 70.492C18.5377 63.242 10.268 59.0325 3.85449 57.6854M8.9483 59.2374C8.8654 58.7958 8.76542 56.8938 9.13604 55.8353M7.62796 58.746C6.99379 59.0294 5.70624 60.0985 5.39038 60.458M14.2775 61.8558C14.0989 61.2008 13.8073 59.8638 14.4926 57.9603M12.2504 60.7352C11.623 60.8544 9.84475 62.0641 9.12032 62.6656M18.1171 64.4636C17.2107 64.7111 16.3808 65.5338 15.7748 66.0368M20.1253 66.1361C19.7736 65.3019 19.7296 63.5869 19.9883 62.3545" stroke="#362E94" stroke-width="2" stroke-linecap="round" stroke-linejoin="round"/>
<path d="M79.7302 64.9813C78.0272 63.88 76.9179 60.696 77.7946 58.9092C78.6713 57.1223 80.5349 57.4682 80.7401 56.3691C80.9452 55.2699 79.5876 53.3061 80.4831 52.0704C82.0746 49.8745 85.1818 53.0907 86.5207 51.5927C87.8595 50.0946 86.0143 48.4121 87.0455 46.8163C88.0766 45.2206 90.4869 48.0233 92.4018 46.7133C94.3167 45.4033 98.8895 43.362 99.755 46.1345C100.439 48.3259 97.5384 48.0119 97.2004 48.9436C96.8149 50.0063 98.1086 50.6554 97.4265 51.7338C96.4626 53.2576 94.2099 52.4504 93.6262 53.8313C93.0426 55.2121 94.6813 56.3285 93.0466 57.4468C91.0228 58.8312 88.9883 55.5433 87.4552 58.3726C85.9222 61.2018 90.066 61.5317 89.3667 63.4112C88.6034 65.4628 85.0574 63.699 84.8812 65.1785C84.6414 67.1917 82.3718 66.6897 79.7302 64.9813Z" fill="#6B67E9"/>
<path d="M79.3031 64.6511C79.5309 64.159 79.4484 62.7087 80.2891 62.1336C81.1297 61.5585 82.2071 61.3212 82.9589 60.4898C84.636 58.6348 83.9064 56.5771 84.867 55.4065C85.5804 54.537 86.4357 55.3946 87.6189 54.5852C88.8022 53.7759 87.9843 53.1711 89.425 52.1855C90.7015 51.3122 91.1983 52.2052 92.5628 51.3629C94.6119 50.0981 94.4077 48.2795 95.1248 47.841C95.7533 47.4567 96.2256 47.7818 96.2256 47.7818M9.27295 25.1715C10.9462 25.1547 17.3271 25.8965 21.5133 31.252" stroke="#807DFB" stroke-width="2" stroke-linecap="round" stroke-linejoin="round"/>
<path d="M8.51983 25.518C8.4401 25.4199 8.39132 25.3005 8.37967 25.1748C8.36802 25.0491 8.39402 24.9228 8.45438 24.8119C8.51474 24.7009 8.60675 24.6103 8.71877 24.5515C8.8308 24.4926 8.9578 24.4682 9.08374 24.4814C9.20967 24.4945 9.32886 24.5446 9.42626 24.6252C9.52365 24.7059 9.59486 24.8135 9.63088 24.9345C9.6669 25.0555 9.66612 25.1845 9.62864 25.305C9.59115 25.4256 9.51865 25.5324 9.42029 25.6119C9.28839 25.7184 9.11942 25.7684 8.95056 25.7508C8.78169 25.7332 8.62675 25.6495 8.51983 25.518Z" fill="#FCBA06"/>
<path d="M14.2415 26.1221C12.7037 25.826 12.2313 26.8717 11.8391 27.6551C12.3163 27.7102 13.9648 28.0325 14.2415 26.1221ZM14.2415 26.1221C12.814 25.4798 13.0331 24.3539 13.1661 23.4884C13.5878 23.7179 15.1209 24.4025 14.2415 26.1221ZM16.8066 27.2672C15.1034 27.2424 14.7974 28.4519 14.5273 29.3653C15.0488 29.3335 16.8757 29.3654 16.8066 27.2672ZM16.8066 27.2672C15.6406 26.0293 16.331 24.989 16.826 24.1746C17.1539 24.5802 18.4084 25.9044 16.8066 27.2672ZM19.682 29.2968C17.8306 28.9602 17.2759 30.2226 16.8144 31.1689C17.3886 31.2291 19.3736 31.5958 19.682 29.2968ZM19.682 29.2968C18.8981 27.5912 19.9886 26.744 20.7946 26.0648C20.9948 26.6046 21.8409 28.4318 19.682 29.2968ZM21.9632 73.3175C17.7077 69.7649 12.8342 71.5556 9.37256 77.0832C13.8559 79.524 20.3989 79.1616 21.9632 73.3175Z" fill="#807DFB"/>
<path d="M21.9632 73.3175C19.7695 74.1124 14.2365 75.354 10.8926 76.5498" stroke="#5652CC" stroke-width="2" stroke-linecap="round" stroke-linejoin="round"/>
<path d="M91.3403 2.55815C93.1998 3.03037 94.2305 1.54619 94.7665 0.616068C94.1867 0.514505 91.8161 0.241174 91.3403 2.55815Z" fill="#DDE2F8"/>
<path d="M78.1523 13.1827C80.4524 9.92566 85.2432 5.41165 91.5502 2.45862" stroke="#DDE2F8" stroke-width="2" stroke-linecap="round" stroke-linejoin="round"/>
<path d="M79.1263 10.585C79.9702 6.81448 77.4091 5.57495 75.4931 4.5523C75.3225 5.72569 74.4058 9.76746 79.1263 10.585ZM81.6084 7.83142C83.0199 5.06771 81.2769 3.594 79.9922 2.41737C79.6246 3.2956 78.102 6.25568 81.6084 7.83142ZM84.8538 5.42699C86.5911 3.40076 85.432 1.81994 84.5959 0.579085C84.1116 1.23902 82.2419 3.40715 84.8538 5.42699ZM88.171 3.36286C89.5599 2.45332 89.1426 1.30976 88.8591 0.424805C88.4553 0.735191 86.9628 1.70646 88.171 3.36286ZM80.8369 11.6603C83.8797 10.105 85.51 12.0103 86.8113 13.4143C85.8438 13.8201 82.5849 15.4976 80.8369 11.6603ZM83.5927 8.71599C85.976 6.98357 87.6217 8.3889 88.9198 9.41118C88.1503 9.88613 85.599 11.7519 83.5927 8.71599ZM87.3602 5.73943C89.2537 5.0509 90.0678 6.28375 90.726 7.19953C90.1308 7.36641 88.1021 8.11073 87.3602 5.73943ZM90.0404 3.91188C91.051 3.31578 91.6494 3.93539 92.1246 4.38968C91.8015 4.54865 90.7196 5.19128 90.0404 3.91188ZM74.3221 73.7864C72.1145 72.3406 66.6741 61.6855 70.9511 59.6203C75.0048 57.6631 76.2907 65.9977 76.532 67.0804C77.3768 62.9903 78.4824 59.0208 81.1876 59.7426C83.8929 60.4644 81.1876 66.2381 81.1876 66.2381C83.6516 63.1105 89.7918 58.2972 92.5865 59.7419C95.3815 61.1869 86.9095 66.3693 86.9095 66.3693C90.7593 64.1922 102.264 61.2607 90.7745 66.7944C96.035 65.098 106.294 64.2656 94.89 67.804C101.754 67.2099 105.238 68.1414 105.358 69.1039C105.479 70.0661 103.466 71.4277 94.5954 71.6513C98.9766 72.3731 101.174 73.3952 100.045 73.7864H74.3221Z" fill="#DDE2F8"/>
<path d="M89.0215 68.6431C89.0215 68.5729 89.0424 68.5043 89.0816 68.4459C89.1207 68.3875 89.1764 68.342 89.2415 68.3151C89.3065 68.2883 89.3782 68.2813 89.4472 68.295C89.5163 68.3087 89.5798 68.3425 89.6296 68.3921C89.6794 68.4418 89.7133 68.5051 89.7271 68.5739C89.7408 68.6428 89.7338 68.7142 89.7068 68.7791C89.6799 68.844 89.6342 68.8994 89.5757 68.9385C89.5171 68.9775 89.4482 68.9983 89.3778 68.9983C89.331 68.9983 89.2847 68.9892 89.2414 68.9713C89.1982 68.9535 89.1589 68.9273 89.1258 68.8943C89.0928 68.8613 89.0665 68.8222 89.0486 68.7791C89.0307 68.736 89.0215 68.6898 89.0215 68.6431ZM76.7886 70.734C76.7886 70.6259 76.8207 70.5201 76.881 70.4302C76.9412 70.3403 77.0269 70.2702 77.1271 70.2288C77.2274 70.1874 77.3377 70.1766 77.4441 70.1977C77.5505 70.2188 77.6482 70.2708 77.7249 70.3473C77.8016 70.4238 77.8539 70.5212 77.875 70.6273C77.8962 70.7334 77.8853 70.8433 77.8438 70.9432C77.8023 71.0432 77.732 71.1285 77.6417 71.1886C77.5515 71.2487 77.4455 71.2807 77.337 71.2807C77.265 71.2807 77.1936 71.2666 77.1271 71.2391C77.0606 71.2116 77.0001 71.1714 76.9492 71.1206C76.8983 71.0698 76.8579 71.0096 76.8303 70.9432C76.8027 70.8769 76.7886 70.8058 76.7886 70.734ZM83.9287 66.6839C83.9288 66.5916 83.9562 66.5014 84.0077 66.4247C84.0591 66.3479 84.1323 66.2882 84.2178 66.2529C84.3033 66.2176 84.3974 66.2084 84.4882 66.2264C84.579 66.2444 84.6624 66.2889 84.7279 66.3541C84.7933 66.4194 84.8379 66.5026 84.8559 66.5931C84.874 66.6836 84.8647 66.7774 84.8293 66.8627C84.7938 66.9479 84.7338 67.0208 84.6569 67.072C84.5799 67.1233 84.4894 67.1507 84.3968 67.1507C84.3353 67.1507 84.2745 67.1386 84.2177 67.1151C84.1608 67.0917 84.1092 67.0573 84.0658 67.0139C84.0223 66.9706 83.9878 66.9191 83.9643 66.8625C83.9408 66.8059 83.9287 66.7452 83.9287 66.6839Z" fill="white"/>
<path d="M71.6706 82.6421L71.6668 83.844C71.6651 84.3971 71.2664 84.9494 70.4701 85.3714C68.867 86.2209 66.2595 86.2209 64.6459 85.3715C63.834 84.944 63.4284 84.3829 63.4302 83.8226L63.4339 82.6207C63.4322 83.181 63.8377 83.7421 64.6497 84.1696C66.2632 85.0191 68.8707 85.019 70.4738 84.1695C71.2702 83.7475 71.6688 83.1952 71.6706 82.6421Z" fill="#BBC0E6"/>
<path d="M71.6706 82.6412C71.6735 81.4398 69.832 80.4615 67.5575 80.4561C65.283 80.4507 63.4368 81.4202 63.4339 82.6215C63.431 83.8229 65.2726 84.8011 67.547 84.8066C69.8215 84.812 71.6677 83.8425 71.6706 82.6412Z" fill="#DDE2F8"/>
<path d="M69.6309 82.7504L69.633 83.0918L66.3371 83.0923C66.2576 83.0934 66.179 83.0761 66.1073 83.0418C66.0821 83.0319 66.06 83.0156 66.0432 82.9944C66.0264 82.9732 66.0156 82.9479 66.0119 82.9211L66.0063 81.851H66.6526L66.6581 82.7499L69.6309 82.7504Z" fill="#2F2880"/>
<g style="mix-blend-mode:screen">
<path d="M70.4546 81.0933C68.841 80.2438 66.2335 80.2438 64.6304 81.0933C63.6128 81.6326 63.2456 82.3844 63.5252 83.079L71.409 81.8757C71.1567 81.544 70.8298 81.276 70.4546 81.0933Z" fill="#222222"/>
</g>
<path d="M55.388 73.2969L55.3836 74.707C55.3816 75.3559 54.9101 76.0039 53.9682 76.4992C52.0725 77.4958 48.9891 77.4958 47.0822 76.4998C46.122 75.9983 45.6425 75.34 45.6445 74.6827L45.649 73.2726C45.6469 73.9299 46.1264 74.5882 47.0866 75.0897C48.9935 76.0857 52.0769 76.0857 53.9726 75.0891C54.9145 74.5939 55.386 73.9458 55.388 73.2969Z" fill="#BBC0E6"/>
<path d="M53.9514 71.4806C55.8583 72.4766 55.8683 74.0924 53.9726 75.0891C52.0769 76.0857 48.9935 76.0858 47.0866 75.0898C45.1785 74.0931 45.1684 72.4773 47.0641 71.4807C48.9599 70.484 52.0433 70.484 53.9514 71.4806Z" fill="#DDE2F8"/>
<path d="M52.0765 72.4151C52.0791 72.6313 52.1093 72.7958 52.3779 72.9361C52.6464 73.0763 53.0083 73.2653 53.0273 73.2753L51.7162 73.9646C50.9036 74.3918 49.3495 74.3567 48.7011 74.191C48.3814 73.8511 48.3094 73.0368 49.122 72.6096L50.4331 71.9203C50.453 71.9307 50.8299 72.1275 51.0814 72.2589C51.3585 72.4036 51.692 72.4151 52.0765 72.4151Z" fill="#B2B6D6"/>
<g style="mix-blend-mode:screen">
<path d="M53.9514 71.4806C52.0433 70.484 48.9599 70.484 47.0642 71.4807C45.6814 72.2077 45.3138 73.2639 45.9561 74.1692L55.2791 72.7575C55.0886 72.2895 54.6467 71.8438 53.9514 71.4806Z" fill="#222222"/>
</g>
<path d="M38.1632 81.6184C36.0777 80.663 32.6963 80.6636 30.6258 81.6184C29.5961 82.0931 29.0805 82.7159 29.0782 83.3395L29.0732 84.7555C29.0755 84.132 29.5912 83.5094 30.6207 83.0345C32.6914 82.0797 36.0728 82.0791 38.1583 83.0345C39.2079 83.5154 39.7319 84.1481 39.7297 84.7798C39.7312 84.3549 39.7333 83.7886 39.7348 83.3637C39.7373 82.732 39.213 82.0994 38.1632 81.6184Z" fill="#E19100"/>
<path d="M38.1631 82.0921C40.2487 83.0475 40.2597 84.6022 38.1891 85.557C36.1171 86.5125 32.7343 86.5125 30.6489 85.557C28.5633 84.6016 28.5536 83.0475 30.6257 82.0921C32.6962 81.1372 36.0776 81.1367 38.1631 82.0921ZM34.4117 83.3632C34.4108 83.2414 34.5132 83.1263 34.7008 83.0397C35.1528 82.8615 35.6559 82.8615 36.108 83.0397C36.4979 83.2185 36.4998 83.5079 36.1125 83.6866L36.754 83.9805C37.3818 83.6911 37.4705 83.2466 37.0251 82.9111L37.5264 82.6798L36.8862 82.3866L36.385 82.6179C35.6535 82.4141 34.6882 82.4571 34.0604 82.7465C33.7036 82.9111 33.5073 83.1301 33.509 83.3632C33.5106 83.5962 33.7101 83.8152 34.0692 83.9798C34.4591 84.1586 34.4598 84.4486 34.0737 84.6266C33.6218 84.8053 33.1185 84.8053 32.6665 84.6266C32.2782 84.4486 32.2745 84.1586 32.662 83.9798L32.0218 83.6866C31.3942 83.976 31.304 84.4198 31.7493 84.7552L31.2855 84.9693L31.9259 85.2625L32.3895 85.0487C33.121 85.2523 34.0878 85.21 34.7154 84.9206C35.4528 84.5804 35.4475 84.0266 34.7053 83.6866C34.5165 83.6002 34.4112 83.4854 34.4117 83.3632Z" fill="#FCBA06"/>
<path d="M40.968 83.3653L40.9629 85.2934C40.96 86.0603 40.325 86.8259 39.0564 87.411C36.5025 88.5886 32.3477 88.5886 29.7773 87.411C28.4837 86.8184 27.8377 86.0404 27.8403 85.2636L27.8455 83.3356C27.8426 84.1123 28.4887 84.8903 29.7822 85.483C32.3529 86.6605 36.5074 86.6605 39.0615 85.4828C40.33 84.8978 40.9652 84.1322 40.968 83.3653Z" fill="#E19100"/>
<path d="M39.0308 81.2182C41.6015 82.3957 41.615 84.3052 39.0612 85.4828C36.5071 86.6606 32.3526 86.6606 29.782 85.483C27.2116 84.3054 27.1979 82.3957 29.7518 81.2182C32.3057 80.0406 36.4604 80.0406 39.0308 81.2182ZM30.6486 85.0834C32.7341 86.0388 36.1169 86.0388 38.1889 85.0834C40.2594 84.1285 40.2484 82.5738 38.1629 81.6184C36.0773 80.663 32.696 80.6636 30.6254 81.6184C28.5534 82.5738 28.5631 84.1279 30.6486 85.0834Z" fill="#FFD03E"/>
<path d="M37.5265 82.3027L37.0252 82.5338C37.4706 82.8695 37.3819 83.3138 36.7541 83.6033L36.1126 83.3093C36.4999 83.1307 36.498 82.8413 36.1081 82.6626C35.6561 82.4843 35.1529 82.4843 34.7009 82.6626C34.5133 82.749 34.4109 82.8644 34.4118 82.986C34.4113 83.1083 34.5166 83.2229 34.7054 83.3095C35.4476 83.6495 35.4529 84.2033 34.7155 84.5433C34.0879 84.8328 33.1211 84.875 32.3896 84.6714L31.926 84.8854L31.2856 84.592L31.7494 84.3782C31.3041 84.0425 31.3943 83.5989 32.0219 83.3095L32.6621 83.6027C32.2746 83.7813 32.2783 84.0715 32.6666 84.2494C33.1185 84.4282 33.6219 84.4282 34.0738 84.2494C34.4599 84.0713 34.4592 83.7813 34.0693 83.6027C33.7102 83.4381 33.5107 83.2191 33.5091 82.9859C33.5074 82.753 33.7037 82.5338 34.0605 82.3694C34.6883 82.0798 35.6536 82.037 36.3851 82.2406L36.8863 82.0095L37.5265 82.3027Z" fill="#FFD03E"/>
<path d="M34.0693 83.9798C34.1443 84.0124 34.2127 84.0585 34.2711 84.1158C34.4371 83.9472 34.3725 83.7415 34.0693 83.6027C33.7273 83.446 33.5323 83.2398 33.5127 83.0193C33.5109 83.0193 33.5089 83.3519 33.5091 83.3633C33.5107 83.5962 33.7102 83.8152 34.0693 83.9798ZM31.5152 84.4856C31.5152 84.4861 31.7494 84.3782 31.7494 84.3782C31.6704 84.3291 31.6041 84.262 31.5561 84.1824C31.5081 84.1029 31.4797 84.0131 31.4732 83.9205C31.4722 83.9207 31.4722 84.3009 31.4722 84.3009C31.4734 84.3648 31.488 84.4277 31.5152 84.4856ZM34.7155 84.5433C34.0879 84.8327 33.1211 84.875 32.3896 84.6714L31.926 84.8854L31.2856 84.592V84.9693L31.926 85.2625L32.3896 85.0487C33.1211 85.2523 34.0879 85.21 34.7155 84.9206C35.0856 84.75 35.2684 84.5253 35.265 84.3009L35.2652 83.9275C35.2665 84.1507 35.0835 84.3736 34.7155 84.5433ZM32.4648 84.1135C32.522 84.0575 32.5888 84.0122 32.6621 83.9798V83.6027C32.3615 83.7413 32.2974 83.9467 32.4648 84.1135ZM37.0252 82.5338C37.1239 82.6034 37.2043 82.6958 37.2595 82.803L37.5265 82.6798V82.3027L37.0252 82.5338ZM36.7541 83.6033L36.1126 83.3093V83.6866L36.7541 83.9806C37.1235 83.8103 37.3047 83.5862 37.3019 83.3623C37.3028 83.3615 37.3028 82.9946 37.3028 82.9946C37.3002 83.215 37.1185 83.4352 36.7541 83.6033ZM36.3098 83.1757C36.4767 83.007 36.4113 82.8016 36.1081 82.6626C35.6561 82.4843 35.1529 82.4843 34.7009 82.6626C34.5133 82.749 34.4109 82.8643 34.4118 82.9859C34.4137 83.0217 34.4227 83.0567 34.4383 83.0889C34.4538 83.1212 34.4757 83.1501 34.5025 83.1739C34.56 83.1176 34.6272 83.0722 34.7009 83.0397C35.1529 82.8615 35.656 82.8615 36.1081 83.0397C36.1831 83.0724 36.2515 83.1185 36.3098 83.1757Z" fill="#E19100"/>
<path d="M56.5506 68.9787L76.1865 78.8682C76.3628 78.957 76.5589 78.9993 76.7562 78.9911C76.9535 78.9828 77.1454 78.9243 77.3136 78.8212C77.4818 78.7181 77.6207 78.5737 77.717 78.4018C77.8134 78.23 77.864 78.0364 77.864 77.8396V10.115C77.864 9.92531 77.817 9.73851 77.7272 9.57122C77.6374 9.40394 77.5075 9.26134 77.3491 9.15609C77.1908 9.05085 77.0088 8.9862 76.8194 8.9679C76.6299 8.9496 76.4389 8.9782 76.2632 9.05118L56.6439 17.2003C56.3876 17.3068 56.1686 17.4865 56.0146 17.7169C55.8605 17.9472 55.7783 18.2178 55.7783 18.4947V67.7271C55.7783 67.9865 55.8505 68.2409 55.9869 68.4618C56.1232 68.6828 56.3184 68.8617 56.5506 68.9787Z" fill="#5652CC"/>
<path d="M77.3489 78.7964C77.5078 78.6922 77.6381 78.5501 77.728 78.383C77.8179 78.216 77.8646 78.0292 77.8639 77.8395V10.115C77.8642 9.89017 77.7983 9.67016 77.6742 9.48236C77.5501 9.29457 77.3734 9.14729 77.166 9.05884L80.0012 10.2412V10.2418C80.2274 10.3205 80.4234 10.4675 80.5619 10.6623C80.7005 10.8571 80.7747 11.0902 80.7743 11.329V76.3659C80.7751 76.5885 80.7107 76.8065 80.5892 76.9933C80.4677 77.1801 80.2942 77.3276 80.0899 77.4177V77.4181L77.3489 78.7964Z" fill="#362E94"/>
<path d="M56.3696 63.9555L76.7371 72.418V12.0312L56.3696 19.6451V63.9555Z" fill="white"/>
<path d="M68.7784 13.3025L62.3198 15.8775V16.386L68.7784 13.8639V13.3025Z" fill="#222222"/>
<path d="M65.2832 72.5853C64.5567 72.2315 63.9878 71.0323 63.9878 69.8555C63.9878 69.0968 64.2204 68.5086 64.6262 68.2418C64.7522 68.1594 64.8973 68.1105 65.0476 68.0997C65.1979 68.0889 65.3485 68.1166 65.485 68.1802C66.2417 68.5028 66.8345 69.7128 66.8345 70.9346C66.8345 71.7086 66.5951 72.3015 66.1779 72.5611C66.0417 72.6469 65.8838 72.6925 65.7227 72.6925C65.5699 72.6907 65.4196 72.654 65.2832 72.5853ZM64.8934 68.6454C64.69 68.7792 64.4729 69.1672 64.4729 69.8555C64.4729 70.8294 64.9415 71.8806 65.4963 72.1509C65.5604 72.1893 65.6338 72.2096 65.7086 72.2096C65.7835 72.2096 65.8569 72.1893 65.921 72.1509C66.1282 72.0221 66.3494 71.6349 66.3494 70.9346C66.3494 69.9264 65.8662 68.8686 65.2943 68.6247C65.2335 68.5973 65.1677 68.5824 65.101 68.5811C65.0269 68.5813 64.9546 68.6037 64.8934 68.6454Z" fill="#807DFB"/>
<path d="M50.5163 14.5729C52.0707 14.5729 53.3309 13.3167 53.3309 11.7671C53.3309 10.2175 52.0707 8.9613 50.5163 8.9613C48.9618 8.9613 47.7017 10.2175 47.7017 11.7671C47.7017 13.3167 48.9618 14.5729 50.5163 14.5729Z" fill="#DDE2F8"/>
<path d="M49.2681 11.6782L50.5164 12.9226L53.6426 9.80615" stroke="#362E94" stroke-width="3" stroke-linecap="round" stroke-linejoin="round"/>
<path d="M44.8338 68.9787L25.198 78.8682C25.0217 78.957 24.8256 78.9993 24.6283 78.9911C24.431 78.9828 24.2391 78.9243 24.0709 78.8212C23.9027 78.718 23.7638 78.5737 23.6674 78.4018C23.5711 78.23 23.5205 78.0364 23.5205 77.8396V10.115C23.5205 9.92531 23.5675 9.73851 23.6573 9.57122C23.7471 9.40394 23.877 9.26134 24.0353 9.15609C24.1937 9.05085 24.3757 8.9862 24.5651 8.9679C24.7546 8.9496 24.9456 8.9782 25.1213 9.05118L44.7405 17.2003C44.9969 17.3068 45.2159 17.4865 45.3699 17.7169C45.5239 17.9472 45.6061 18.2178 45.6061 18.4947V67.7271C45.6061 67.9865 45.534 68.2409 45.3976 68.4618C45.2613 68.6828 45.0661 68.8617 44.8338 68.9787Z" fill="#362E94"/>
<path d="M24.0353 78.7964C23.8764 78.6922 23.7461 78.5501 23.6562 78.383C23.5663 78.216 23.5196 78.0292 23.5203 77.8395V10.115C23.52 9.89017 23.5859 9.67016 23.71 9.48236C23.8341 9.29457 24.0108 9.14729 24.2182 9.05884L21.383 10.2412V10.2418C21.1568 10.3205 20.9608 10.4675 20.8223 10.6623C20.6837 10.8571 20.6095 11.0901 20.6099 11.329V76.3659C20.6091 76.5885 20.6735 76.8065 20.795 76.9933C20.9165 77.1801 21.09 77.3276 21.2943 77.4177V77.4181L24.0353 78.7964Z" fill="#5652CC"/>
<path d="M45.0145 63.9555L24.647 72.418V12.0312L45.0145 19.6451V63.9555Z" fill="white"/>
<path d="M32.606 13.3025L39.0645 15.8775V16.386L32.606 13.8639V13.3025Z" fill="#222222"/>
<path d="M35.6616 72.6925C35.5004 72.6925 35.3426 72.6469 35.2064 72.5611C34.7892 72.3015 34.5498 71.7086 34.5498 70.9346C34.5498 69.7128 35.1426 68.5027 35.8992 68.1802C36.0358 68.1166 36.1864 68.0889 36.3367 68.0997C36.487 68.1105 36.6321 68.1594 36.7581 68.2418C37.1639 68.5086 37.3965 69.0968 37.3965 69.8555C37.3965 71.0323 36.8275 72.2315 36.101 72.5853C35.9647 72.654 35.8144 72.6907 35.6616 72.6925ZM36.2833 68.5811C36.2165 68.5824 36.1508 68.5973 36.09 68.6247C35.518 68.8686 35.0349 69.9264 35.0349 70.9346C35.0349 71.6349 35.2561 72.0221 35.4633 72.1509C35.5274 72.1893 35.6008 72.2096 35.6756 72.2096C35.7505 72.2096 35.8239 72.1893 35.888 72.1509C36.4427 71.8806 36.9114 70.8294 36.9114 69.8555C36.9114 69.1672 36.6943 68.7792 36.4909 68.6454C36.4297 68.6037 36.3574 68.5813 36.2833 68.5811Z" fill="#5652CC"/>
<path d="M38.3765 26.327C39.3278 27.0038 40.9396 29.0382 40.4236 33.3003C42.1245 34.397 43.0967 35.7594 43.0029 36.0604C42.5562 37.4943 39.1321 34.2836 39.1321 34.2836L38.3765 26.327Z" fill="#BBC0E6"/>
<path d="M66.4434 29.7241C65.8817 29.035 65.0491 29.2132 64.4175 29.7398C63.4619 30.5365 60.5514 32.1772 59.6525 32.3436C58.4052 32.5744 53.5762 31.9508 53.1655 31.7326C52.7549 31.5143 52.6742 31.3484 52.4904 31.2336C52.4199 31.186 52.3522 31.1346 52.2875 31.0795C52.2564 31.222 52.1722 31.5656 52.1722 31.5656C51.8236 31.4882 50.1816 31.4017 50.317 31.7631C50.4524 32.1246 51.0751 32.9105 52.0484 33.0145C52.6994 33.084 53.3144 32.8339 53.7169 32.9354C56.0056 33.5131 58.6215 34.2017 60.0429 33.9147L60.0432 33.9156C61.8428 33.5808 65.0971 31.9352 65.7519 31.4204C66.4068 30.9056 66.7838 30.1417 66.4434 29.7241Z" fill="#F0C9C0"/>
<path d="M42.23 35.546C42.2298 33.9121 42.7156 32.3149 43.6261 30.9563C44.5365 29.5977 45.8306 28.5388 47.3448 27.9134C48.859 27.288 50.5252 27.1243 52.1327 27.4429C53.7402 27.7615 55.2168 28.5482 56.3758 29.7035C57.5348 30.8587 58.3241 32.3306 58.6439 33.9331C58.9638 35.5355 58.7997 37.1965 58.1726 38.706C57.5454 40.2155 56.4833 41.5057 55.1206 42.4135C53.7578 43.3212 52.1557 43.8058 50.5167 43.8058C49.4285 43.8058 48.351 43.5922 47.3457 43.1772C46.3403 42.7621 45.4268 42.1537 44.6573 41.3867C43.8878 40.6197 43.2774 39.7092 42.8609 38.707C42.4444 37.7048 42.23 36.6307 42.23 35.546Z" fill="#FCBA06"/>
<path d="M43.7837 35.546C43.7838 36.8734 44.1787 38.171 44.9186 39.2746C45.6585 40.3783 46.71 41.2385 47.9402 41.7464C49.1705 42.2543 50.5242 42.3872 51.8302 42.1282C53.1362 41.8692 54.3358 41.2299 55.2774 40.2913C56.2189 39.3526 56.8601 38.1567 57.1199 36.8548C57.3796 35.5529 57.2463 34.2034 56.7367 32.977C56.2272 31.7506 55.3642 30.7024 54.2571 29.9649C53.1499 29.2274 51.8482 28.8338 50.5166 28.8337C48.7314 28.8355 47.0199 29.5433 45.7576 30.8017C44.4953 32.0601 43.7854 33.7664 43.7837 35.546Z" fill="#C67500"/>
<path d="M44.3237 35.5459C44.3238 36.7668 44.6871 37.9603 45.3676 38.9755C46.0481 39.9906 47.0153 40.7818 48.1468 41.2489C49.2784 41.7161 50.5235 41.8383 51.7247 41.6001C52.9259 41.3618 54.0293 40.7739 54.8953 39.9105C55.7613 39.0472 56.3511 37.9472 56.59 36.7497C56.8289 35.5523 56.7063 34.3111 56.2376 33.1831C55.7689 32.0551 54.9752 31.091 53.9569 30.4126C52.9385 29.7343 51.7413 29.3722 50.5165 29.3722C48.8745 29.3738 47.3003 30.0248 46.1393 31.1823C44.9783 32.3397 44.3253 33.9091 44.3237 35.5459Z" fill="#E19100"/>
<rect x="47" y="32" width="1.76334" height="7.64115" rx="0.881671" fill="#FCBA06"/>
<rect x="49.6182" y="33.2822" width="1.76334" height="5.02285" rx="0.881671" fill="#FCBA06"/>
<rect x="52.2368" y="34.6182" width="1.76334" height="5.02285" rx="0.881671" fill="#FCBA06"/>
<rect x="52.2368" y="32" width="1.76334" height="1.76334" rx="0.881671" fill="#FCBA06"/>
<path d="M36.1356 67.1346C40.654 65.5153 44.0548 63.4759 43.7315 62.5795C43.4082 61.683 39.4833 62.2691 34.9649 63.8884C30.4466 65.5077 27.0458 67.5471 27.369 68.4435C27.6923 69.3399 31.6173 68.7539 36.1356 67.1346Z" fill="#E9EDF7"/>
<path d="M73.6641 68.4435C73.9874 67.5471 70.5866 65.5077 66.0682 63.8884C61.5499 62.269 57.6249 61.683 57.3017 62.5794C56.9784 63.4758 60.3792 65.5152 64.8975 67.1346C69.4159 68.7539 73.3409 69.3399 73.6641 68.4435Z" fill="#E9EDF7"/>
<path d="M66.436 23.0196C65.9848 22.6446 64.0956 22.168 63.2601 23.3094C62.4246 24.4508 62.7717 27.8257 63.6002 29.7936C64.0728 29.5565 65.6938 29.3435 65.6938 29.3435L66.436 23.0196Z" fill="#222222"/>
<path d="M69.4319 38.0104C69.3393 33.3444 69.2432 31.2354 68.1206 29.4776C67.7795 28.9434 67.3907 28.5401 67.149 28.1545L67.1478 28.1544C66.5585 28.5216 65.5746 28.5056 65.0236 28.3788C65.0169 28.4177 65.0038 28.4552 64.9848 28.4897C64.1851 29.8896 62.2782 32.2389 63.0308 33.1695C64.0901 34.4792 65.1523 35.9011 64.9428 38.1845L69.4319 38.0104Z" fill="#6B67E9"/>
<path d="M67.1479 28.1543L67.1492 28.1544C66.8758 27.4861 66.8406 26.7446 67.0493 26.0535C67.0493 26.0535 67.3668 25.2982 67.0395 24.1988C66.6218 22.7957 64.6739 22.5589 63.8548 23.2944C63.1629 24.0081 63.2705 24.5055 63.3615 25.529C63.3615 25.529 63.217 26.5445 63.226 26.6075C63.2392 26.6994 63.5156 26.615 63.5399 26.6551C63.5643 26.6953 63.6235 27.2703 63.8547 27.4606C64.0858 27.6509 64.7022 27.3363 64.8118 27.5064C64.8933 27.633 65.0772 28.0929 65.0237 28.3787C65.5747 28.5055 66.5587 28.5215 67.1479 28.1543ZM67.1552 28.9822C66.3419 28.6202 65.6798 29.154 65.3548 29.9081C64.863 31.0491 63.0093 33.8232 62.2826 34.3763C61.2743 35.1437 56.6832 36.7611 56.2179 36.7512C55.7526 36.7413 55.6055 36.6296 55.3895 36.6099C55.2933 36.6011 54.6035 36.5542 54.6043 36.6264C54.6052 36.6987 55.2967 36.794 55.2836 36.9769C55.2705 37.1598 53.4056 37.7992 53.6902 38.0607C53.9747 38.3222 54.8863 38.7432 55.8019 38.3978C56.4142 38.1668 56.8496 37.6668 57.2547 37.5762C59.5585 37.0613 62.2044 36.4983 63.3427 35.6023L63.3433 35.603C64.7974 34.4942 66.9555 31.561 67.3066 30.8069C67.6578 30.0529 67.6481 29.2015 67.1552 28.9822Z" fill="#F7D3C9"/>
<path d="M63.4731 23.8003C64.1936 23.7855 64.6858 23.8511 65.468 25.3874C66.215 26.8546 66.0666 29.8461 66.0666 29.8461C66.7695 29.4401 69.0911 28.0443 69.0911 28.0443C68.8022 26.1842 67.7437 22.7321 65.2475 22.616C64.0645 22.5609 63.7449 23.1791 63.4731 23.8003Z" fill="#222222"/>
<path d="M61.8028 48.1199C61.4744 49.1966 60.8561 50.4718 60.9369 52.1844C61.0176 53.8969 62.1455 62.3008 62.1685 62.7901C62.4548 62.7766 63.0275 62.7498 63.0275 62.7498C63.0005 62.1789 63.7095 55.199 62.8658 52.521C63.3702 51.1779 63.9826 49.8776 64.697 48.6329L61.8028 48.1199Z" fill="#F7D3C9"/>
<path d="M62.6105 63.9C62.6871 63.9066 62.7597 63.9371 62.8179 63.9873C62.8761 64.0375 62.9168 64.1048 62.9343 64.1795C63.115 64.171 63.1633 64.1687 63.1697 64.1684C63.299 63.8881 63.3228 63.5707 63.2367 63.2743C63.1452 62.963 63.0676 63.0423 62.9893 63.128C62.8093 63.2884 62.0481 63.3742 61.9761 63.1212C61.7804 63.1599 59.7788 63.837 59.7876 64.024C59.8019 64.3271 60.0403 64.3151 60.2026 64.3075C62.122 64.2175 61.8623 64.1119 62.6105 63.9Z" fill="#362E94"/>
<path d="M62.1684 62.7899C62.2206 62.4986 63.0469 62.2431 63.0274 62.7497C63.021 62.8593 63.0412 62.9689 63.0863 63.069L63.0858 63.0691C62.9059 63.2295 61.1837 63.8499 60.8779 63.4896C61.074 63.3728 62.1829 63.0957 62.1684 62.7899ZM68.1554 50.3224L68.1567 50.3216L68.5863 48.252L65.2039 48.2045C65.2039 48.2045 65.868 50.5136 66.164 51.187C66.2315 51.3406 66.3287 51.4795 66.45 51.5958C67.6879 52.7862 74.0033 57.9018 74.3566 58.2419C74.5556 58.0364 74.9538 57.6253 74.9538 57.6253C74.5464 57.2332 70.2917 51.7818 68.1554 50.3224Z" fill="#F7D3C9"/>
<path d="M75.4418 58.7475C75.5021 58.6998 75.576 58.6724 75.6528 58.6692C75.7297 58.6659 75.8056 58.687 75.8698 58.7294C75.9953 58.5997 76.029 58.565 76.0332 58.5605C75.9345 58.268 75.7335 58.0208 75.4669 57.864C75.186 57.6999 75.1841 57.8109 75.1861 57.9266C75.1657 58.1665 74.6708 58.7493 74.4441 58.6146C74.3284 58.7766 73.3378 60.638 73.4731 60.768C73.692 60.9789 73.8572 60.8072 73.9701 60.6905C75.3047 59.3126 75.0431 59.4134 75.4418 58.7475Z" fill="#362E94"/>
<path d="M74.3565 58.242C74.1939 57.9943 74.6196 57.2435 74.9538 57.6253C75.0246 57.7095 75.1147 57.7754 75.2165 57.8175L75.2163 57.8178C75.1957 58.0576 74.3694 59.6868 73.8989 59.6337C73.9613 59.4145 74.5775 58.4547 74.3565 58.242Z" fill="#F7D3C9"/>
<path d="M69.4321 38.0104C68.8588 38.0104 64.943 38.1844 64.943 38.1844C63.5712 39.2253 62.3797 44.6466 59.022 46.7692C61.6836 48.402 63.6082 49.0756 66.1265 49.2593C68.4543 49.4291 69.8096 49.2556 72.6351 47.5412C71.7035 47.0411 70.9045 45.9167 70.3327 44.3887C69.5542 42.3086 70.9991 40.0039 69.4321 38.0104Z" fill="#FCBA06"/>
<path d="M32.3353 38.9797C31.8234 42.3094 35.8964 47.0868 37.0107 51.2179C36.3429 55.1057 37.6346 57.6512 38.1959 62.1315H39.2859C39.3291 59.3627 39.4421 57.1071 40.0572 51.7736C40.2492 50.1089 39.2458 42.9299 38.0908 38.9797H32.3353Z" fill="#222222"/>
<path d="M38.1138 62.5292C38.1554 62.4727 38.1843 62.408 38.1985 62.3393C38.2126 62.2707 38.2117 62.1998 38.1957 62.1316H39.2857C39.2576 62.3732 39.2722 62.6179 39.329 62.8546C39.0454 62.963 38.6307 62.6829 38.1138 62.5292Z" fill="#F0CCC0"/>
<path d="M38.1139 62.5292C38.6308 62.6829 39.0455 62.963 39.3291 62.8546C39.479 62.963 41.6897 63.7559 41.9148 63.9093C42.1451 64.0664 42.1114 64.3101 41.8675 64.3101C41.5112 64.3101 38.5758 64.1813 38.5758 64.1813C38.5161 64.2457 38.4678 64.3101 38.4678 64.3101H37.7971C37.5969 63.9643 37.6513 62.9269 38.1139 62.5292Z" fill="#222222"/>
<path d="M31.2213 38.9797C30.7093 42.3094 31.5218 47.8423 32.3809 51.9734C31.7312 55.0334 31.2213 59.6419 30.9585 64.9671H32.0485C32.996 62.6623 34.5775 57.2907 36.0217 52.529C36.5082 50.9251 37.0555 43.336 36.7803 38.9797H31.2213Z" fill="#362E94"/>
<path d="M30.7944 65.3648C30.8766 65.2453 30.9325 65.1097 30.9583 64.9672H32.0484C31.9401 65.1936 31.9262 65.4535 32.0097 65.6901C31.7262 65.7986 31.3114 65.5185 30.7944 65.3648Z" fill="#F0CCC0"/>
<path d="M30.7944 65.3647C31.3114 65.5185 31.7262 65.7986 32.0097 65.6901C32.1597 65.7986 34.3705 66.5914 34.5954 66.7449C34.8257 66.902 34.792 67.1457 34.5481 67.1457C34.1918 67.1457 31.2564 67.0169 31.2564 67.0169C31.1967 67.0813 31.1484 67.1457 31.1484 67.1457H30.4776C30.2777 66.7998 30.3318 65.7625 30.7944 65.3647Z" fill="#222222"/>
<path d="M36.2036 25.9885C34.5951 26.1951 34.302 26.8693 33.2152 29.4414C31.7113 33.001 31.2212 38.9797 31.2212 38.9797C31.6639 39.0693 38.3067 39.762 38.3067 39.762C38.9086 38.182 39.9114 32.8545 39.8778 30.2053C39.8439 27.5561 38.702 26.8172 38.3762 26.327C37.1786 26.0846 36.2036 25.9885 36.2036 25.9885Z" fill="#DDE2F8"/>
<path d="M38.3382 25.4264C38.3282 25.7861 38.3762 26.327 38.3762 26.327C38.1846 26.4997 37.1542 26.8134 36.2036 25.9885C36.4108 25.3668 36.6606 23.8778 36.6606 23.8778L38.3382 25.4264Z" fill="#F2CFC8"/>
<path d="M40.2436 22.0553C40.1858 22.7424 40.0659 24.8109 39.4832 25.4069C39.0048 25.8962 38.324 25.8129 37.3702 25.1656C36.4161 24.5183 36.9034 22.5997 36.9183 22.0114C36.9421 21.0795 40.3275 21.0588 40.2436 22.0553Z" fill="#F8D8D0"/>
<path d="M40.5941 21.3442C40.9365 21.0839 41.9525 19.945 40.9916 20.267C41.2618 19.9134 40.9133 18.8259 39.9306 19.8884C38.9479 20.9507 38.0984 20.3857 38.0984 20.3857C38.4206 20.2422 38.8712 19.2775 37.6527 20.0424C36.4346 20.8073 35.9928 21.1823 36.253 22.0786C36.5118 22.9701 36.0619 24.9869 36.3706 25.3048C36.5152 25.454 36.7636 25.1191 36.8035 24.2977C36.8413 23.5206 37.3705 24.0007 37.3414 23.3485C37.3219 23.3813 37.2948 23.4089 37.2624 23.429C37.2299 23.4491 37.1931 23.461 37.155 23.4638C37.0118 23.4686 36.8905 23.3213 36.8844 23.1347C36.8782 22.9482 36.9893 22.7931 37.1326 22.7884C37.1629 22.7883 37.193 22.7943 37.2209 22.8061C37.2488 22.8178 37.2741 22.8351 37.2951 22.8569C37.2358 22.2727 37.2085 21.7722 37.5401 21.6266C37.9511 21.4465 39.89 22.2868 40.5808 21.8779C41.2713 21.4692 41.0333 21.2209 40.5941 21.3442Z" fill="#222222"/>
<path d="M34.8543 26.6943C33.983 27.1898 34.1601 33.1066 37.351 35.1954C39.8366 36.8225 44.0227 37.9823 44.0227 37.9823C44.109 37.5492 44.2658 36.9194 44.2658 36.9194C43.4909 36.7424 40.2529 34.5989 39.0877 33.5796C37.404 32.107 36.9119 25.524 34.8543 26.6943Z" fill="#F6F6FB"/>
<path d="M44.2654 36.9194C44.5493 37.0128 44.5943 36.7568 44.9488 36.6858C45.2853 36.6185 45.5346 36.2769 45.605 36.3631C45.675 36.4492 45.3644 36.8233 45.2692 36.8849C45.4694 36.8918 46.5058 36.837 46.5356 37.0783C46.5602 37.2756 46.7219 37.364 46.6188 37.5719C46.5157 37.7795 46.1255 38.0975 45.6446 38.1C45.1683 38.1023 44.8495 38.1047 44.6144 37.9885C44.4363 37.9087 44.2462 37.8587 44.0518 37.8405C44.0836 37.6904 44.2654 36.9194 44.2654 36.9194Z" fill="#F8D8D0"/>
<path d="M44.042 27.3576C45.1312 26.5017 46.3802 25.8703 47.7165 25.5002C49.0527 25.1301 50.4495 25.0286 51.8255 25.2016C53.2014 25.3747 54.5292 25.8188 55.7313 26.5082C56.9335 27.1976 57.9861 28.1184 58.8279 29.2172M56.9908 43.733C56.871 43.8272 56.7491 43.9187 56.6253 44.0076" stroke="#DDE2F8" stroke-width="2" stroke-linecap="round" stroke-linejoin="round"/>
<path d="M55.8545 44.511C53.7861 45.7346 51.3577 46.2102 48.9786 45.8576C46.5995 45.505 44.415 44.3459 42.793 42.5753" stroke="#DDE2F8" stroke-width="2" stroke-linecap="round" stroke-linejoin="round" stroke-dasharray="6.04 6.04"/>
<path d="M42.4908 42.2299C42.3929 42.1132 42.2977 41.9943 42.2051 41.8734" stroke="#DDE2F8" stroke-width="2" stroke-linecap="round" stroke-linejoin="round"/>
<path d="M57.3062 29.0145L58.8274 29.2176L59.0293 27.715" stroke="#DDE2F8" stroke-width="2" stroke-linecap="round" stroke-linejoin="round"/>
<path d="M94.7928 81.0062L92.8707 81.3951C92.8176 81.4058 92.7682 81.4303 92.7276 81.4661C92.687 81.5019 92.6566 81.5477 92.6394 81.5989L92.016 83.4529C91.9988 83.5041 91.9954 83.559 92.0062 83.6119C92.0169 83.6649 92.0415 83.714 92.0774 83.7545L93.3766 85.2196C93.4125 85.2601 93.4584 85.2904 93.5098 85.3076C93.5612 85.3247 93.6162 85.3281 93.6693 85.3174L95.5914 84.9284C95.6445 84.9177 95.6938 84.8932 95.7344 84.8574C95.775 84.8217 95.8055 84.7759 95.8227 84.7247L96.4461 82.8706C96.4633 82.8194 96.4667 82.7646 96.4559 82.7116C96.4452 82.6587 96.4206 82.6095 96.3847 82.569L95.0855 81.1039C95.0496 81.0634 95.0037 81.0331 94.9523 81.0159C94.9009 80.9988 94.8459 80.9954 94.7928 81.0062Z" fill="#FFD03E"/>
<path d="M96.5267 23.8118L96.0716 26.9815C96.0639 27.035 96.0423 27.0855 96.0088 27.128C95.9753 27.1705 95.9312 27.2034 95.8809 27.2236C95.8306 27.2437 95.7759 27.2502 95.7223 27.2426C95.6686 27.2349 95.6179 27.2133 95.5753 27.18L93.0492 25.2022C93.0066 25.1688 92.9735 25.1249 92.9533 25.0747C92.9332 25.0246 92.9266 24.97 92.9343 24.9166C92.9419 24.8631 92.9636 24.8126 92.9971 24.7701C93.0305 24.7276 93.0746 24.6946 93.1249 24.6745L96.1062 23.4826C96.1565 23.4625 96.2113 23.4559 96.2649 23.4636C96.3185 23.4712 96.3692 23.4928 96.4118 23.5262C96.4544 23.5595 96.4875 23.6035 96.5077 23.6536C96.5278 23.7038 96.5344 23.7583 96.5267 23.8118Z" fill="#6B67E9"/>
<path d="M10.4539 2.5282L9.60283 5.61584C9.58847 5.66793 9.58812 5.72286 9.60181 5.77513C9.61551 5.82739 9.64276 5.87515 9.68083 5.91359C9.7189 5.95203 9.76645 5.9798 9.8187 5.99411C9.87096 6.00842 9.92607 6.00877 9.9785 5.99512L13.0864 5.18606C13.1388 5.17241 13.1867 5.14525 13.2253 5.10729C13.2638 5.06934 13.2917 5.02194 13.306 4.96985C13.3204 4.91777 13.3208 4.86283 13.3071 4.81056C13.2934 4.7583 13.2661 4.71055 13.228 4.67211L10.9712 2.39352C10.9331 2.35508 10.8856 2.32731 10.8333 2.313C10.7811 2.29869 10.726 2.29834 10.6735 2.31199C10.6211 2.32564 10.5732 2.3528 10.5347 2.39076C10.4961 2.42871 10.4682 2.47611 10.4539 2.5282Z" fill="#FCBA06"/>
</svg>
