<svg width="70" height="14" viewBox="0 0 70 14" fill="none" xmlns="http://www.w3.org/2000/svg">
<path d="M0 9.68362C0.378 11.9696 2.268 13.7696 6.516 13.7696C10.818 13.7696 12.852 12.0236 12.852 9.61162C12.852 7.70362 11.916 6.19162 7.146 5.34562C5.166 4.98562 4.644 4.71562 4.644 4.12162C4.644 3.52762 5.166 3.16762 6.282 3.16762C7.866 3.16762 8.208 3.81562 8.352 4.37362H12.348C12.186 2.50162 10.512 0.557617 6.3 0.557617C2.844 0.557617 0.486 2.01562 0.486 4.51762C0.486 6.19162 1.152 7.79362 5.832 8.60362C8.208 9.01762 8.604 9.41362 8.604 10.0796C8.604 10.7096 8.154 11.1596 6.696 11.1596C5.04 11.1596 4.392 10.5296 4.122 9.68362H0Z" fill="#222222"/>
<path d="M15.022 13.4996H19.108V9.19762H22.15C25.3 9.19762 27.298 7.64962 27.298 4.96762C27.298 2.35762 25.174 0.845618 22.132 0.845618H15.022V13.4996ZM19.108 3.61762H21.502C22.762 3.61762 23.248 4.19362 23.248 5.00362C23.248 5.97562 22.6 6.42562 21.502 6.42562H19.108V3.61762Z" fill="#222222"/>
<path d="M36.5927 11.1416L37.4567 13.4996H41.8667L36.7727 0.845618H31.4087L26.6207 13.4996H30.7427L31.5527 11.1416H36.5927ZM32.4347 8.20762C33.1187 6.28162 33.6767 4.48162 33.9467 3.43762H34.0187C34.3247 4.48162 34.8107 5.92162 35.6387 8.20762H32.4347Z" fill="#222222"/>
<path d="M52.0942 9.19762C51.7343 10.2776 51.1042 10.9616 49.5742 10.9616C47.4502 10.9616 46.6943 9.08962 46.6943 7.07362C46.6943 4.85962 47.6303 3.34762 49.5563 3.34762C51.3743 3.34762 51.8963 4.39162 52.0763 5.07562H56.2163C55.8923 2.78962 53.8762 0.557617 49.5742 0.557617C44.6782 0.557617 42.3563 3.68962 42.3563 7.16362C42.3563 10.7816 44.7143 13.7876 49.4123 13.7876C53.4803 13.7876 55.6222 11.8796 56.1982 9.19762H52.0942Z" fill="#222222"/>
<path d="M68.8537 5.52562H62.0857V3.76162H69.2137V0.845618H58.0357V13.4996H69.1777L69.6457 10.5836H62.0857V8.45962H68.8537V5.52562Z" fill="#222222"/>
</svg>
